<?xml version="1.0" encoding="UTF-8" standalone="no"?>
<!-- Created with Inkscape (http://www.inkscape.org/) -->

<svg
   width="48px"
   height="48px"
   id="svg7206"
   sodipodi:version="0.32"
   inkscape:version="1.4 (e7c3feb, 2024-10-09)"
   sodipodi:docname="accounts.svg"
   inkscape:output_extension="org.inkscape.output.svg.inkscape"
   version="1.1"
   xmlns:inkscape="http://www.inkscape.org/namespaces/inkscape"
   xmlns:sodipodi="http://sodipodi.sourceforge.net/DTD/sodipodi-0.dtd"
   xmlns:xlink="http://www.w3.org/1999/xlink"
   xmlns="http://www.w3.org/2000/svg"
   xmlns:svg="http://www.w3.org/2000/svg"
   xmlns:rdf="http://www.w3.org/1999/02/22-rdf-syntax-ns#"
   xmlns:cc="http://creativecommons.org/ns#"
   xmlns:dc="http://purl.org/dc/elements/1.1/">
  <defs
     id="defs7208">
    <linearGradient
       inkscape:collect="always"
       xlink:href="#linearGradient3951"
       id="linearGradient3122"
       gradientUnits="userSpaceOnUse"
       gradientTransform="matrix(0.993546,0,0,0.998054,0.154891,5.053321)"
       x1="17.725422"
       y1="3.860764"
       x2="27.055439"
       y2="24.431168" />
    <linearGradient
       inkscape:collect="always"
       id="linearGradient3223">
      <stop
         style="stop-color: rgb(114, 159, 207); stop-opacity: 1;"
         offset="0"
         id="stop3225" />
      <stop
         style="stop-color: rgb(57, 110, 167); stop-opacity: 1;"
         offset="1"
         id="stop3227" />
    </linearGradient>
    <linearGradient
       inkscape:collect="always"
       xlink:href="#linearGradient3223"
       id="linearGradient3229"
       x1="24.000008"
       y1="31.785711"
       x2="30.00001"
       y2="38.499996"
       gradientUnits="userSpaceOnUse"
       gradientTransform="matrix(0.679906,0,0,0.709362,7.68348,1.608141)" />
    <linearGradient
       inkscape:collect="always"
       xlink:href="#linearGradient3951"
       id="linearGradient3957"
       x1="16"
       y1="2"
       x2="32.927006"
       y2="31.587952"
       gradientUnits="userSpaceOnUse"
       gradientTransform="matrix(0.993546,0,0,0.998054,0.154891,5.053321)" />
    <linearGradient
       inkscape:collect="always"
       id="linearGradient3112">
      <stop
         style="stop-color: white; stop-opacity: 1;"
         offset="0"
         id="stop3114" />
      <stop
         style="stop-color: white; stop-opacity: 0;"
         offset="1"
         id="stop3116" />
    </linearGradient>
    <linearGradient
       inkscape:collect="always"
       xlink:href="#linearGradient3112"
       id="linearGradient3118"
       x1="24.260687"
       y1="2.5335035"
       x2="24.832115"
       y2="22.012075"
       gradientUnits="userSpaceOnUse" />
    <linearGradient
       id="linearGradient3128"
       inkscape:collect="always">
      <stop
         id="stop3130"
         offset="0"
         style="stop-color: rgb(254, 242, 145); stop-opacity: 1;" />
      <stop
         id="stop3132"
         offset="1"
         style="stop-color: rgb(237, 212, 0); stop-opacity: 1;" />
    </linearGradient>
    <radialGradient
       inkscape:collect="always"
       xlink:href="#linearGradient3128"
       id="radialGradient3221"
       gradientUnits="userSpaceOnUse"
       gradientTransform="matrix(0.999999,0,0,1.00034,1.0000001e-6,-8.3266686)"
       cx="21.142859"
       cy="22.17857"
       fx="21.142859"
       fy="22.17857"
       r="9" />
    <linearGradient
       inkscape:collect="always"
       id="linearGradient3951">
      <stop
         style="stop-color: white; stop-opacity: 1;"
         offset="0"
         id="stop3953" />
      <stop
         style="stop-color: white; stop-opacity: 0;"
         offset="1"
         id="stop3955" />
    </linearGradient>
    <linearGradient
       inkscape:collect="always"
       xlink:href="#linearGradient3951"
       id="linearGradient3115"
       gradientUnits="userSpaceOnUse"
       gradientTransform="matrix(1.25849,0,0,1.26012,-6.20379,-0.580299)"
       x1="16"
       y1="2"
       x2="38.465416"
       y2="42.405006" />
    <linearGradient
       inkscape:collect="always"
       xlink:href="#linearGradient3106"
       id="linearGradient3113"
       x1="15.571428"
       y1="29.99917"
       x2="15.571428"
       y2="42.285942"
       gradientUnits="userSpaceOnUse"
       gradientTransform="translate(1,-1.6904222e-4)" />
    <linearGradient
       inkscape:collect="always"
       id="linearGradient3106">
      <stop
         style="stop-color: black; stop-opacity: 1;"
         offset="0"
         id="stop3108" />
      <stop
         style="stop-color: black; stop-opacity: 0;"
         offset="1"
         id="stop3110" />
    </linearGradient>
    <linearGradient
       inkscape:collect="always"
       xlink:href="#linearGradient3106"
       id="linearGradient3116"
       x1="15.571428"
       y1="29.99917"
       x2="15.571428"
       y2="42.285942"
       gradientUnits="userSpaceOnUse"
       gradientTransform="translate(-1,-1.6904222e-4)" />
    <linearGradient
       inkscape:collect="always"
       id="linearGradient3103">
      <stop
         style="stop-color: rgb(115, 210, 22); stop-opacity: 1;"
         offset="0"
         id="stop3105" />
      <stop
         style="stop-color: rgb(78, 154, 6); stop-opacity: 1;"
         offset="1"
         id="stop3107" />
    </linearGradient>
    <radialGradient
       inkscape:collect="always"
       xlink:href="#linearGradient3103"
       id="radialGradient3117"
       gradientUnits="userSpaceOnUse"
       gradientTransform="matrix(1.98906,0,0,1.76923,-17.2808,-17.611769)"
       cx="16.488304"
       cy="23.537582"
       fx="16.488304"
       fy="23.537582"
       r="19" />
    <linearGradient
       inkscape:collect="always"
       id="linearGradient3121">
      <stop
         style="stop-color: black; stop-opacity: 1;"
         offset="0"
         id="stop3123" />
      <stop
         style="stop-color: black; stop-opacity: 0;"
         offset="1"
         id="stop3125" />
    </linearGradient>
    <radialGradient
       inkscape:collect="always"
       xlink:href="#linearGradient3121"
       id="radialGradient3127"
       cx="23.991123"
       cy="44.514973"
       fx="23.991123"
       fy="44.514973"
       r="20.85965"
       gradientTransform="matrix(1,0,0,0.16707,0,37.0779)"
       gradientUnits="userSpaceOnUse" />
  </defs>
  <sodipodi:namedview
     id="base"
     pagecolor="#ffffff"
     bordercolor="#666666"
     borderopacity="1.0"
     inkscape:pageopacity="0.0"
     inkscape:pageshadow="2"
     inkscape:zoom="7"
     inkscape:cx="24.071429"
     inkscape:cy="24.071429"
     inkscape:current-layer="layer1"
     showgrid="true"
     inkscape:grid-bbox="true"
     inkscape:document-units="px"
     inkscape:window-width="1740"
     inkscape:window-height="1018"
     inkscape:window-x="1037"
     inkscape:window-y="25"
     inkscape:showpageshadow="0"
     inkscape:pagecheckerboard="1"
     inkscape:deskcolor="#d1d1d1"
     inkscape:window-maximized="0" />
  <metadata
     id="metadata7211">
    <rdf:RDF>
      <cc:Work
         rdf:about="">
        <dc:format>image/svg+xml</dc:format>
        <dc:type
           rdf:resource="http://purl.org/dc/dcmitype/StillImage" />
      </cc:Work>
    </rdf:RDF>
  </metadata>
  <g
     id="layer1"
     inkscape:label="Layer 1"
     inkscape:groupmode="layer">
    <g
       id="g2"
       transform="matrix(1.0631229,0,0,1.0631229,-0.07214044,-0.19837556)">
      <g
         id="g1"
         transform="matrix(0.71804531,0,0,0.71804531,-2.4473694,-1.1654623)">
        <ellipse
           style="display:inline;overflow:visible;visibility:visible;opacity:0.2;fill:url(#radialGradient3127);fill-opacity:1;fill-rule:nonzero;stroke:none;stroke-width:1;stroke-linecap:butt;stroke-linejoin:miter;stroke-miterlimit:4;stroke-dasharray:none;stroke-dashoffset:0;stroke-opacity:1;marker:none"
           id="path3119"
           transform="matrix(0.91085,0,0,1.0043,2.1477,-1.206399)"
           cx="23.991123"
           cy="44.514973"
           rx="20.85965"
           ry="3.4850264" />
        <path
           style="display:inline;overflow:visible;visibility:visible;fill:url(#radialGradient3117);fill-opacity:1;fill-rule:nonzero;stroke:#4e9a06;stroke-width:1;stroke-linecap:butt;stroke-linejoin:miter;stroke-miterlimit:4;stroke-dashoffset:0;stroke-opacity:1;marker:none"
           d="m 24,20.499825 c -9.659998,0 -18.500001,5.114081 -18.5,8.425151 0,1.540746 6.282985,0.658209 6.5,2.009791 l 1.5625,10.559168 c 0,1.010151 0.531707,1.80127 1.21875,1.801269 6.262501,1.617995 12.413095,1.594266 18.40625,0 0.687044,0 1.249999,-0.791119 1.25,-1.801269 L 36,30.934767 c 0.288444,-1.138625 6.500001,-0.469045 6.5,-2.009791 0,-3.31107 -8.840002,-8.42515 -18.5,-8.425151 z"
           id="rect2193"
           sodipodi:nodetypes="csccccccsc" />
        <path
           style="opacity:0.137778;fill:url(#linearGradient3116);fill-opacity:1;fill-rule:evenodd;stroke:none;stroke-width:1px;stroke-linecap:butt;stroke-linejoin:miter;stroke-opacity:1"
           d="m 12,29.999831 c 1.08167,0.07502 3.108027,0.873469 4,0 -1.85465,1.181252 -0.873011,8.878321 -1.785714,12.785714 C 13.476214,38.523304 12.935303,31.500822 12,29.999831 Z"
           id="path2203"
           sodipodi:nodetypes="cccc" />
        <path
           sodipodi:nodetypes="cccc"
           id="path3092"
           d="m 36,29.999831 c -1.08167,0.07502 -3.108027,0.873469 -4,0 1.85465,1.181252 0.873011,8.878321 1.785714,12.785714 C 34.523786,38.523304 35.064697,31.500822 36,29.999831 Z"
           style="opacity:0.137778;fill:url(#linearGradient3113);fill-opacity:1;fill-rule:evenodd;stroke:none;stroke-width:1px;stroke-linecap:butt;stroke-linejoin:miter;stroke-opacity:1" />
        <path
           sodipodi:nodetypes="csccccccsc"
           id="path2200"
           d="m 23.999995,21.499821 c -9.137834,0 -17.908189,5.449846 -17.285711,7.142358 0.085908,0.233583 5.943363,0.279101 6.148648,1.585243 l 1.692325,10.236417 c 0,0.976188 0.0744,2.026293 0.7243,2.026292 6.077911,1.370063 11.872117,1.322258 17.411314,0 0.649907,0 0.753861,-0.764523 0.753862,-1.74071 L 35.06563,30.298818 c 0.272852,-1.100344 5.937621,-0.861453 6.077218,-1.942221 0.261896,-2.027606 -8.005019,-6.856775 -17.142853,-6.856776 z"
           style="display:inline;overflow:visible;visibility:visible;opacity:1;fill:none;fill-opacity:1;fill-rule:nonzero;stroke:url(#linearGradient3115);stroke-width:1;stroke-linecap:butt;stroke-linejoin:miter;stroke-miterlimit:4;stroke-dasharray:none;stroke-dashoffset:0;stroke-opacity:1;marker:none" />
        <ellipse
           style="display:inline;overflow:visible;visibility:visible;opacity:1;fill:#000000;fill-opacity:0.0593608;fill-rule:nonzero;stroke:#ffffff;stroke-width:0.856162;stroke-linecap:butt;stroke-linejoin:miter;stroke-miterlimit:4;stroke-dasharray:none;stroke-dashoffset:0;stroke-opacity:0.423529;marker:none"
           id="path2201"
           transform="matrix(0.809624,0,0,1.68502,4.76022,-20.487469)"
           cx="23.763838"
           cy="27.291872"
           rx="6.7932758"
           ry="2.3738585" />
        <path
           style="opacity:1;fill:url(#radialGradient3221);fill-opacity:1;stroke:#c4a000;stroke-width:1;stroke-miterlimit:4;stroke-dasharray:none;stroke-dashoffset:0;stroke-opacity:1"
           d="m 23.999992,6.4998314 c -4.694677,0 -8.499997,3.8093056 -8.499997,8.5029116 0,2.999773 1.551932,5.639273 3.899709,7.153253 1.532664,1.747842 0.850142,1.176487 1.100292,3.319084 0,0.567923 0.463522,1.031603 1.031245,1.031603 1.819981,1.396743 3.442269,1.249612 4.937499,0 0.567726,0 1.03125,-0.463681 1.03125,-1.031603 0.297753,-2.097288 -0.132842,-1.831066 0.961251,-3.231317 2.425347,-1.49836 4.038748,-4.182417 4.038748,-7.24102 0,-4.693606 -3.805321,-8.5029116 -8.499997,-8.5029116 z"
           id="path2159"
           sodipodi:nodetypes="csccccccsc" />
        <ellipse
           style="display:inline;overflow:visible;visibility:visible;opacity:1;fill:url(#linearGradient3118);fill-opacity:1;fill-rule:nonzero;stroke:none;stroke-width:0.902564;stroke-linecap:butt;stroke-linejoin:miter;stroke-miterlimit:4;stroke-dasharray:none;stroke-dashoffset:0;stroke-opacity:1;marker:none"
           id="path3110"
           transform="matrix(0.457973,0,-0.285667,0.588089,13.5248,5.593351)"
           cx="22.930462"
           cy="12.594153"
           rx="4.2426405"
           ry="5.1012702" />
        <path
           sodipodi:nodetypes="csccccccsc"
           id="path3941"
           d="m 23.999997,7.4998291 c -4.142363,0 -7.500001,3.4862079 -7.500001,7.7817099 0,2.745338 1.496903,4.745313 3.81643,6.546015 1.352348,1.599597 0.854299,1.381292 0.956399,3.055127 0,0.519751 0.171905,0.679377 0.672841,0.679377 1.403466,1.273464 2.842636,1.240539 4.19131,-0.04152 0.500939,0 0.547623,-0.232699 0.547623,-0.75245 0.174712,-2.16848 0.27213,-1.907786 1.237505,-3.189268 2.140015,-1.371271 3.577894,-3.498106 3.577894,-6.297284 0,-4.295503 -3.357639,-7.7817099 -7.500001,-7.7817099 z"
           style="display:inline;overflow:visible;visibility:visible;opacity:1;fill:none;fill-opacity:1;fill-rule:nonzero;stroke:url(#linearGradient3957);stroke-width:1;stroke-linecap:butt;stroke-linejoin:miter;stroke-miterlimit:4;stroke-dasharray:none;stroke-dashoffset:0;stroke-opacity:1;marker:none" />
        <path
           style="display:inline;overflow:visible;visibility:visible;opacity:1;fill:url(#linearGradient3229);fill-opacity:1;fill-rule:nonzero;stroke:#3465a4;stroke-width:1;stroke-linecap:butt;stroke-linejoin:miter;stroke-miterlimit:4;stroke-dasharray:none;stroke-dashoffset:0;stroke-opacity:1;marker:none"
           d="m 20.009177,22.868296 c 0.314701,0.54856 0.317852,1.114589 0.489098,2.597918 0,0.570506 0.455085,1.035939 1.019033,1.035939 1.80786,1.403093 3.427906,1.255294 4.913177,0 0.563946,0 1.09046,-0.447577 1.09046,-1.018082 0.194311,-1.384115 0.270949,-2.269972 0.475324,-2.752504 l -1.386487,0.806554 h -5.235111 z"
           id="rect3216"
           sodipodi:nodetypes="ccccccccc" />
        <path
           sodipodi:nodetypes="ccccccc"
           id="path3118"
           d="m 21.46429,24.499851 0.0537,1.009787 0.499938,-8.15e-4 c 1.816785,1.599209 2.931067,0.871375 4.000047,-0.0065 l 0.388976,-6.34e-4 0.128761,-1.001817 z"
           style="display:inline;overflow:visible;visibility:visible;opacity:1;fill:none;fill-opacity:1;fill-rule:nonzero;stroke:url(#linearGradient3122);stroke-width:1;stroke-linecap:butt;stroke-linejoin:miter;stroke-miterlimit:4;stroke-dasharray:none;stroke-dashoffset:0;stroke-opacity:1;marker:none" />
      </g>
      <use
         x="0"
         y="0"
         xlink:href="#g1"
         id="use1"
         transform="translate(15.714286,8.7142859)" />
    </g>
  </g>
</svg>
