<?xml version="1.0" encoding="UTF-8" standalone="no"?>
<!-- Created with Inkscape (http://www.inkscape.org/) -->

<svg
   version="1.1"
   id="svg1"
   width="48"
   height="48"
   viewBox="0 0 48 48"
   sodipodi:docname="cinnamon-settings.svg"
   inkscape:version="1.4 (e7c3feb, 2024-10-09)"
   xml:space="preserve"
   xmlns:inkscape="http://www.inkscape.org/namespaces/inkscape"
   xmlns:sodipodi="http://sodipodi.sourceforge.net/DTD/sodipodi-0.dtd"
   xmlns:xlink="http://www.w3.org/1999/xlink"
   xmlns="http://www.w3.org/2000/svg"
   xmlns:svg="http://www.w3.org/2000/svg"><defs
     id="defs1"><linearGradient
       id="linearGradient7"
       inkscape:collect="always"><stop
         style="stop-color:#a62e1e;stop-opacity:1;"
         offset="0"
         id="stop8" /><stop
         style="stop-color:#f69954;stop-opacity:1;"
         offset="1"
         id="stop9" /></linearGradient><linearGradient
       id="linearGradient4"
       inkscape:collect="always"><stop
         style="stop-color:#5a2e1e;stop-opacity:1;"
         offset="0"
         id="stop4" /><stop
         style="stop-color:#733f2a;stop-opacity:1;"
         offset="0.5"
         id="stop7" /><stop
         style="stop-color:#773922;stop-opacity:1;"
         offset="1"
         id="stop5" /></linearGradient><filter
       style="color-interpolation-filters:sRGB"
       inkscape:label="Drop Shadow"
       id="filter5"
       x="-0.031970508"
       y="-0.03362795"
       width="1.0766026"
       height="1.0805739"><feFlood
         result="flood"
         in="SourceGraphic"
         flood-opacity="0.482353"
         flood-color="rgb(0,0,0)"
         id="feFlood4" /><feGaussianBlur
         result="blur"
         in="SourceGraphic"
         stdDeviation="4.000000"
         id="feGaussianBlur4" /><feOffset
         result="offset"
         in="blur"
         dx="4.000000"
         dy="4.000000"
         id="feOffset4" /><feComposite
         result="comp1"
         operator="in"
         in="flood"
         in2="offset"
         id="feComposite4" /><feComposite
         result="comp2"
         operator="over"
         in="SourceGraphic"
         in2="comp1"
         id="feComposite5" /></filter><filter
       style="color-interpolation-filters:sRGB"
       inkscape:label="Drop Shadow"
       id="filter5-5"
       x="-0.038119212"
       y="-0.039585382"
       width="1.0921214"
       height="1.0956647"><feFlood
         result="flood"
         in="SourceGraphic"
         flood-opacity="0.482353"
         flood-color="rgb(0,0,0)"
         id="feFlood4-6" /><feGaussianBlur
         result="blur"
         in="SourceGraphic"
         stdDeviation="4.000000"
         id="feGaussianBlur4-2" /><feOffset
         result="offset"
         in="blur"
         dx="4.000000"
         dy="4.000000"
         id="feOffset4-9" /><feComposite
         result="comp1"
         operator="in"
         in="flood"
         in2="offset"
         id="feComposite4-1" /><feComposite
         result="comp2"
         operator="over"
         in="SourceGraphic"
         in2="comp1"
         id="feComposite5-2" /></filter><clipPath
       clipPathUnits="userSpaceOnUse"
       id="clipath_lpe_path-effect39"><path
         style="display:block;opacity:0.655916;fill:#b3b3b3;fill-opacity:1;fill-rule:evenodd;stroke-width:1.04327;stroke-linecap:round;stroke-linejoin:round"
         id="path41"
         sodipodi:type="arc"
         sodipodi:cx="612.51251"
         sodipodi:cy="66.467598"
         sodipodi:rx="33.936207"
         sodipodi:ry="33.918915"
         sodipodi:start="0"
         sodipodi:end="6.2384506"
         sodipodi:open="true"
         sodipodi:arc-type="arc"
         d="M 646.44872,66.467598 A 33.936207,33.918915 0 0 1 612.89204,100.38439 33.936207,33.918915 0 0 1 578.58479,67.226211 33.936207,33.918915 0 0 1 611.37413,32.567772 33.936207,33.918915 0 0 1 646.41477,64.950751" /></clipPath><inkscape:path-effect
       effect="powerclip"
       id="path-effect39"
       is_visible="true"
       lpeversion="1"
       inverse="true"
       flatten="false"
       hide_clip="false"
       message="" /><clipPath
       clipPathUnits="userSpaceOnUse"
       id="clipath_lpe_path-effect41"><path
         style="display:block;opacity:0.742002;fill:#cccccc;fill-opacity:1;fill-rule:evenodd;stroke-width:0.994971;stroke-linecap:round;stroke-linejoin:round"
         id="path42"
         sodipodi:type="arc"
         sodipodi:cx="624.91882"
         sodipodi:cy="253.65746"
         sodipodi:rx="80.682816"
         sodipodi:ry="84.584274"
         sodipodi:start="0"
         sodipodi:end="6.2384506"
         sodipodi:open="true"
         sodipodi:arc-type="arc"
         d="m 705.60164,253.65746 a 80.682816,84.584274 0 0 1 -79.78051,84.57898 80.682816,84.584274 0 0 1 -81.56494,-82.68722 80.682816,84.584274 0 0 1 77.95615,-86.42844 80.682816,84.584274 0 0 1 83.30858,80.75408" /></clipPath><inkscape:path-effect
       effect="powerclip"
       id="path-effect41"
       is_visible="true"
       lpeversion="1"
       inverse="true"
       flatten="false"
       hide_clip="false"
       message="" /><filter
       style="color-interpolation-filters:sRGB"
       inkscape:label="Drop Shadow"
       id="filter39"
       x="-0.050086513"
       y="-0.051401474"
       width="1.1135046"
       height="1.1164799"><feFlood
         result="flood"
         in="SourceGraphic"
         flood-opacity="0.498039"
         flood-color="rgb(0,0,0)"
         id="feFlood38" /><feGaussianBlur
         result="blur"
         in="SourceGraphic"
         stdDeviation="1.500000"
         id="feGaussianBlur38" /><feOffset
         result="offset"
         in="blur"
         dx="1.000000"
         dy="1.000000"
         id="feOffset38" /><feComposite
         result="comp1"
         operator="in"
         in="flood"
         in2="offset"
         id="feComposite38" /><feComposite
         result="comp2"
         operator="over"
         in="SourceGraphic"
         in2="comp1"
         id="feComposite39" /></filter><filter
       style="color-interpolation-filters:sRGB"
       inkscape:label="Drop Shadow"
       id="filter41"
       x="-0.037431389"
       y="-0.036587071"
       width="1.0839924"
       height="1.0820978"><feFlood
         result="flood"
         in="SourceGraphic"
         flood-opacity="0.498039"
         flood-color="rgb(0,0,0)"
         id="feFlood39" /><feGaussianBlur
         result="blur"
         in="SourceGraphic"
         stdDeviation="1.500000"
         id="feGaussianBlur39" /><feOffset
         result="offset"
         in="blur"
         dx="1.000000"
         dy="1.000000"
         id="feOffset39" /><feComposite
         result="comp1"
         operator="in"
         in="flood"
         in2="offset"
         id="feComposite40" /><feComposite
         result="comp2"
         operator="over"
         in="SourceGraphic"
         in2="comp1"
         id="feComposite41" /></filter><linearGradient
       inkscape:collect="always"
       xlink:href="#linearGradient4"
       id="linearGradient5"
       x1="-94.134026"
       y1="215.87276"
       x2="-93.935432"
       y2="95.722786"
       gradientUnits="userSpaceOnUse"
       gradientTransform="matrix(0.99219595,0,0,0.97369159,159.64079,-88.638289)" /><linearGradient
       inkscape:collect="always"
       xlink:href="#linearGradient7"
       id="linearGradient9"
       x1="39.163445"
       y1="136.22517"
       x2="40.499737"
       y2="62.943619"
       gradientUnits="userSpaceOnUse"
       gradientTransform="matrix(1.0135656,0,0,0.96740282,-5.8864211,-13.609554)" /><filter
       style="color-interpolation-filters:sRGB"
       inkscape:label="Drop Shadow"
       id="filter5-6"
       x="-0.031970508"
       y="-0.033627951"
       width="1.0766026"
       height="1.0805739"><feFlood
         result="flood"
         in="SourceGraphic"
         flood-opacity="0.482353"
         flood-color="rgb(0,0,0)"
         id="feFlood4-2" /><feGaussianBlur
         result="blur"
         in="SourceGraphic"
         stdDeviation="4.000000"
         id="feGaussianBlur4-9" /><feOffset
         result="offset"
         in="blur"
         dx="4.000000"
         dy="4.000000"
         id="feOffset4-1" /><feComposite
         result="comp1"
         operator="in"
         in="flood"
         in2="offset"
         id="feComposite4-2" /><feComposite
         result="comp2"
         operator="over"
         in="SourceGraphic"
         in2="comp1"
         id="feComposite5-7" /></filter><linearGradient
       id="linearGradient27"
       inkscape:collect="always"><stop
         style="stop-color:#b6b6b6;stop-opacity:1;"
         offset="0"
         id="stop27" /><stop
         style="stop-color:#e1e2e1;stop-opacity:1;"
         offset="1"
         id="stop28" /></linearGradient><filter
       inkscape:collect="always"
       style="color-interpolation-filters:sRGB"
       id="filter65"
       x="-0.0032678222"
       y="-0.0032678222"
       width="1.0065356"
       height="1.0065356"><feGaussianBlur
         inkscape:collect="always"
         stdDeviation="0.20376702"
         id="feGaussianBlur65" /></filter><linearGradient
       id="linearGradient1"
       inkscape:collect="always"><stop
         style="stop-color:#afafae;stop-opacity:1"
         offset="0"
         id="stop1" /><stop
         style="stop-color:#d8d8d7;stop-opacity:1;"
         offset="1"
         id="stop2" /></linearGradient><filter
       inkscape:collect="always"
       style="color-interpolation-filters:sRGB"
       id="filter2"
       x="-0.045836472"
       y="-0.045836472"
       width="1.0916729"
       height="1.0916729"><feGaussianBlur
         inkscape:collect="always"
         stdDeviation="1.2545487"
         id="feGaussianBlur2" /></filter><linearGradient
       id="linearGradient5-0"
       inkscape:collect="always"><stop
         style="stop-color:#ffffff;stop-opacity:1;"
         offset="0"
         id="stop5-9" /><stop
         style="stop-color:#fcfcfc;stop-opacity:0.84578756"
         offset="0.5"
         id="stop7-3" /><stop
         style="stop-color:#fafafa;stop-opacity:0.75805724;"
         offset="0.75"
         id="stop8-6" /><stop
         style="stop-color:#f9f9f9;stop-opacity:0.56368041;"
         offset="0.875"
         id="stop9-0" /><stop
         style="stop-color:#f9f9f9;stop-opacity:0;"
         offset="1"
         id="stop6" /></linearGradient><linearGradient
       id="linearGradient18"
       inkscape:collect="always"><stop
         style="stop-color:#f9f9f9;stop-opacity:1;"
         offset="0"
         id="stop18" /><stop
         style="stop-color:#f9f9f9;stop-opacity:0;"
         offset="1"
         id="stop19" /></linearGradient><linearGradient
       inkscape:collect="always"
       xlink:href="#linearGradient19"
       id="linearGradient21"
       x1="414.12491"
       y1="50.361629"
       x2="415.60458"
       y2="60.427769"
       gradientUnits="userSpaceOnUse"
       gradientTransform="translate(189.6001,-14.204733)" /><linearGradient
       id="linearGradient19"
       inkscape:collect="always"><stop
         style="stop-color:#f9f9f9;stop-opacity:0;"
         offset="0"
         id="stop20" /><stop
         style="stop-color:#f9f9f9;stop-opacity:0.00191783;"
         offset="0.89379257"
         id="stop22" /><stop
         style="stop-color:#f9f9f9;stop-opacity:0.59659761;"
         offset="0.94689631"
         id="stop23" /><stop
         style="stop-color:#f9f9f9;stop-opacity:1;"
         offset="1"
         id="stop21" /></linearGradient><clipPath
       clipPathUnits="userSpaceOnUse"
       id="clipPath25"><path
         style="display:block;opacity:0.655916;fill:#b3b3b3;fill-opacity:1;fill-rule:evenodd;stroke-width:1.04327;stroke-linecap:round;stroke-linejoin:round"
         id="path25"
         sodipodi:type="arc"
         sodipodi:cx="612.51251"
         sodipodi:cy="66.467598"
         sodipodi:rx="33.936207"
         sodipodi:ry="33.918915"
         sodipodi:start="0"
         sodipodi:end="6.2384506"
         sodipodi:open="true"
         sodipodi:arc-type="arc"
         d="M 646.44872,66.467598 A 33.936207,33.918915 0 0 1 612.89204,100.38439 33.936207,33.918915 0 0 1 578.58479,67.226211 33.936207,33.918915 0 0 1 611.37413,32.567772 33.936207,33.918915 0 0 1 646.41477,64.950751" /></clipPath><filter
       inkscape:collect="always"
       style="color-interpolation-filters:sRGB"
       id="filter64"
       x="-0.071468697"
       y="-0.072091444"
       width="1.1429374"
       height="1.1441829"><feGaussianBlur
         inkscape:collect="always"
         stdDeviation="2.114413"
         id="feGaussianBlur64" /></filter><inkscape:path-effect
       effect="powerclip"
       id="path-effect25"
       is_visible="true"
       lpeversion="1"
       inverse="true"
       flatten="false"
       hide_clip="false"
       message="" /><clipPath
       clipPathUnits="userSpaceOnUse"
       id="clipPath30"><path
         style="display:block;opacity:0.742002;fill:#cccccc;fill-opacity:1;fill-rule:evenodd;stroke-width:0.994971;stroke-linecap:round;stroke-linejoin:round"
         id="path30"
         sodipodi:type="arc"
         sodipodi:cx="624.91882"
         sodipodi:cy="253.65746"
         sodipodi:rx="80.682816"
         sodipodi:ry="84.584274"
         sodipodi:start="0"
         sodipodi:end="6.2384506"
         sodipodi:open="true"
         sodipodi:arc-type="arc"
         d="m 705.60164,253.65746 a 80.682816,84.584274 0 0 1 -79.78051,84.57898 80.682816,84.584274 0 0 1 -81.56494,-82.68722 80.682816,84.584274 0 0 1 77.95615,-86.42844 80.682816,84.584274 0 0 1 83.30858,80.75408" /></clipPath><filter
       inkscape:collect="always"
       style="color-interpolation-filters:sRGB"
       id="filter63"
       x="-0.021105718"
       y="-0.020894085"
       width="1.0422114"
       height="1.0417882"><feGaussianBlur
         inkscape:collect="always"
         stdDeviation="1.3248817"
         id="feGaussianBlur63" /></filter><inkscape:path-effect
       effect="powerclip"
       id="path-effect30"
       is_visible="true"
       lpeversion="1"
       inverse="true"
       flatten="false"
       hide_clip="false"
       message="" /><radialGradient
       inkscape:collect="always"
       xlink:href="#linearGradient5-0"
       id="radialGradient22"
       gradientUnits="userSpaceOnUse"
       gradientTransform="matrix(1.0336768,0.0408955,-0.04468912,1.1295644,-10.745565,-27.949992)"
       cx="422.57291"
       cy="81.953201"
       fx="422.57291"
       fy="81.953201"
       r="28.524216" /><radialGradient
       inkscape:collect="always"
       xlink:href="#linearGradient18"
       id="radialGradient23"
       gradientUnits="userSpaceOnUse"
       gradientTransform="matrix(1.5582544,0,0,0.82059207,-238.95042,22.604462)"
       cx="424.30304"
       cy="136.06775"
       fx="424.30304"
       fy="136.06775"
       r="23.528017" /><clipPath
       clipPathUnits="userSpaceOnUse"
       id="clipath_lpe_path-effect14"><path
         style="display:none;opacity:0.655916;fill:#b3b3b3;fill-opacity:1;fill-rule:evenodd;stroke-width:1.04327;stroke-linecap:round;stroke-linejoin:round"
         id="path16"
         sodipodi:type="arc"
         sodipodi:cx="612.51251"
         sodipodi:cy="66.467598"
         sodipodi:rx="33.936207"
         sodipodi:ry="33.918915"
         sodipodi:start="0"
         sodipodi:end="6.2384506"
         sodipodi:open="true"
         sodipodi:arc-type="arc"
         d="M 646.44872,66.467598 A 33.936207,33.918915 0 0 1 612.89204,100.38439 33.936207,33.918915 0 0 1 578.58479,67.226211 33.936207,33.918915 0 0 1 611.37413,32.567772 33.936207,33.918915 0 0 1 646.41477,64.950751" /><path
         id="lpe_path-effect14"
         style="opacity:0.655916;fill:#b3b3b3;fill-opacity:1;fill-rule:evenodd;stroke-width:1.04327;stroke-linecap:round;stroke-linejoin:round"
         class="powerclip"
         d="m 567.48663,23.581007 h 91.15358 v 90.540213 h -91.15358 z m 78.92814,41.369744 a 33.936207,33.918915 0 0 0 -35.04064,-32.382979 33.936207,33.918915 0 0 0 -32.78934,34.658439 33.936207,33.918915 0 0 0 34.30725,33.158179 33.936207,33.918915 0 0 0 33.55668,-33.916792" /></clipPath><inkscape:path-effect
       effect="powerclip"
       id="path-effect14"
       is_visible="true"
       lpeversion="1"
       inverse="true"
       flatten="false"
       hide_clip="false"
       message="" /><radialGradient
       inkscape:collect="always"
       xlink:href="#linearGradient5-0"
       id="radialGradient24"
       gradientUnits="userSpaceOnUse"
       gradientTransform="matrix(1.0336768,0.0408955,-0.04468912,1.1295644,-10.745565,-27.949992)"
       cx="422.57291"
       cy="81.953201"
       fx="422.57291"
       fy="81.953201"
       r="28.524216" /><clipPath
       clipPathUnits="userSpaceOnUse"
       id="clipath_lpe_path-effect16"><path
         style="display:none;opacity:0.742002;fill:#cccccc;fill-opacity:1;fill-rule:evenodd;stroke-width:0.994971;stroke-linecap:round;stroke-linejoin:round"
         id="path17"
         sodipodi:type="arc"
         sodipodi:cx="624.91882"
         sodipodi:cy="253.65746"
         sodipodi:rx="80.682816"
         sodipodi:ry="84.584274"
         sodipodi:start="0"
         sodipodi:end="6.2384506"
         sodipodi:open="true"
         sodipodi:arc-type="arc"
         d="m 705.60164,253.65746 a 80.682816,84.584274 0 0 1 -79.78051,84.57898 80.682816,84.584274 0 0 1 -81.56494,-82.68722 80.682816,84.584274 0 0 1 77.95615,-86.42844 80.682816,84.584274 0 0 1 83.30858,80.75408" /><path
         id="lpe_path-effect16"
         style="opacity:0.742002;fill:#cccccc;fill-opacity:1;fill-rule:evenodd;stroke-width:0.994971;stroke-linecap:round;stroke-linejoin:round"
         class="powerclip"
         d="M 542.11069,182.55339 H 709.12673 V 351.09542 H 542.11069 Z m 163.41023,67.32147 a 80.682816,84.584274 0 0 0 -83.30858,-80.75408 80.682816,84.584274 0 0 0 -77.95615,86.42844 80.682816,84.584274 0 0 0 81.56494,82.68722 80.682816,84.584274 0 0 0 79.78051,-84.57898" /></clipPath><inkscape:path-effect
       effect="powerclip"
       id="path-effect16"
       is_visible="true"
       lpeversion="1"
       inverse="true"
       flatten="false"
       hide_clip="false"
       message="" /><clipPath
       clipPathUnits="userSpaceOnUse"
       id="clipath_lpe_path-effect39-2"><path
         style="display:none;opacity:0.655916;fill:#b3b3b3;fill-opacity:1;fill-rule:evenodd;stroke-width:1.04327;stroke-linecap:round;stroke-linejoin:round"
         id="path41-6"
         sodipodi:type="arc"
         sodipodi:cx="612.51251"
         sodipodi:cy="66.467598"
         sodipodi:rx="33.936207"
         sodipodi:ry="33.918915"
         sodipodi:start="0"
         sodipodi:end="6.2384506"
         sodipodi:open="true"
         sodipodi:arc-type="arc"
         d="M 646.44872,66.467598 A 33.936207,33.918915 0 0 1 612.89204,100.38439 33.936207,33.918915 0 0 1 578.58479,67.226211 33.936207,33.918915 0 0 1 611.37413,32.567772 33.936207,33.918915 0 0 1 646.41477,64.950751" /><path
         id="lpe_path-effect39"
         style="opacity:0.655916;fill:#b3b3b3;fill-opacity:1;fill-rule:evenodd;stroke-width:1.04327;stroke-linecap:round;stroke-linejoin:round"
         class="powerclip"
         d="m 567.48663,23.581007 h 91.15358 v 90.540213 h -91.15358 z m 78.92814,41.369744 a 33.936207,33.918915 0 0 0 -35.04064,-32.382979 33.936207,33.918915 0 0 0 -32.78934,34.658439 33.936207,33.918915 0 0 0 34.30725,33.158179 33.936207,33.918915 0 0 0 33.55668,-33.916792" /></clipPath><inkscape:path-effect
       effect="powerclip"
       id="path-effect39-1"
       is_visible="true"
       lpeversion="1"
       inverse="true"
       flatten="false"
       hide_clip="false"
       message="" /><clipPath
       clipPathUnits="userSpaceOnUse"
       id="clipath_lpe_path-effect41-8"><path
         style="display:none;opacity:0.742002;fill:#cccccc;fill-opacity:1;fill-rule:evenodd;stroke-width:0.994971;stroke-linecap:round;stroke-linejoin:round"
         id="path42-7"
         sodipodi:type="arc"
         sodipodi:cx="624.91882"
         sodipodi:cy="253.65746"
         sodipodi:rx="80.682816"
         sodipodi:ry="84.584274"
         sodipodi:start="0"
         sodipodi:end="6.2384506"
         sodipodi:open="true"
         sodipodi:arc-type="arc"
         d="m 705.60164,253.65746 a 80.682816,84.584274 0 0 1 -79.78051,84.57898 80.682816,84.584274 0 0 1 -81.56494,-82.68722 80.682816,84.584274 0 0 1 77.95615,-86.42844 80.682816,84.584274 0 0 1 83.30858,80.75408" /><path
         id="lpe_path-effect41"
         style="opacity:0.742002;fill:#cccccc;fill-opacity:1;fill-rule:evenodd;stroke-width:0.994971;stroke-linecap:round;stroke-linejoin:round"
         class="powerclip"
         d="M 542.11069,182.55339 H 709.12673 V 351.09542 H 542.11069 Z m 163.41023,67.32147 a 80.682816,84.584274 0 0 0 -83.30858,-80.75408 80.682816,84.584274 0 0 0 -77.95615,86.42844 80.682816,84.584274 0 0 0 81.56494,82.68722 80.682816,84.584274 0 0 0 79.78051,-84.57898" /></clipPath><inkscape:path-effect
       effect="powerclip"
       id="path-effect41-9"
       is_visible="true"
       lpeversion="1"
       inverse="true"
       flatten="false"
       hide_clip="false"
       message="" /><clipPath
       clipPathUnits="userSpaceOnUse"
       id="clipath_lpe_path-effect39-1"><path
         style="display:block;opacity:0.655916;fill:#b3b3b3;fill-opacity:1;fill-rule:evenodd;stroke-width:1.04327;stroke-linecap:round;stroke-linejoin:round"
         id="path13"
         sodipodi:type="arc"
         sodipodi:cx="612.51251"
         sodipodi:cy="66.467598"
         sodipodi:rx="33.936207"
         sodipodi:ry="33.918915"
         sodipodi:start="0"
         sodipodi:end="6.2384506"
         sodipodi:open="true"
         sodipodi:arc-type="arc"
         d="M 646.44872,66.467598 A 33.936207,33.918915 0 0 1 612.89204,100.38439 33.936207,33.918915 0 0 1 578.58479,67.226211 33.936207,33.918915 0 0 1 611.37413,32.567772 33.936207,33.918915 0 0 1 646.41477,64.950751" /></clipPath><clipPath
       clipPathUnits="userSpaceOnUse"
       id="clipath_lpe_path-effect41-9"><path
         style="display:block;opacity:0.742002;fill:#cccccc;fill-opacity:1;fill-rule:evenodd;stroke-width:0.994971;stroke-linecap:round;stroke-linejoin:round"
         id="path14"
         sodipodi:type="arc"
         sodipodi:cx="624.91882"
         sodipodi:cy="253.65746"
         sodipodi:rx="80.682816"
         sodipodi:ry="84.584274"
         sodipodi:start="0"
         sodipodi:end="6.2384506"
         sodipodi:open="true"
         sodipodi:arc-type="arc"
         d="m 705.60164,253.65746 a 80.682816,84.584274 0 0 1 -79.78051,84.57898 80.682816,84.584274 0 0 1 -81.56494,-82.68722 80.682816,84.584274 0 0 1 77.95615,-86.42844 80.682816,84.584274 0 0 1 83.30858,80.75408" /></clipPath><linearGradient
       inkscape:collect="always"
       xlink:href="#linearGradient27"
       id="linearGradient20"
       gradientUnits="userSpaceOnUse"
       gradientTransform="matrix(1.3458412,0,0,1.2749062,-262.12732,108.98443)"
       x1="378.29376"
       y1="202.51608"
       x2="373.83978"
       y2="16.333994" /><linearGradient
       inkscape:collect="always"
       xlink:href="#linearGradient1"
       id="linearGradient22"
       gradientUnits="userSpaceOnUse"
       gradientTransform="translate(501.62718,-80.958299)"
       x1="-80.494415"
       y1="88.225006"
       x2="-79.809822"
       y2="234.69597" /></defs><sodipodi:namedview
     id="namedview1"
     pagecolor="#ffffff"
     bordercolor="#000000"
     borderopacity="0.25"
     inkscape:showpageshadow="2"
     inkscape:pageopacity="0.0"
     inkscape:pagecheckerboard="0"
     inkscape:deskcolor="#d1d1d1"
     inkscape:zoom="14.242187"
     inkscape:cx="8.9171697"
     inkscape:cy="26.189798"
     inkscape:window-width="2723"
     inkscape:window-height="1752"
     inkscape:window-x="380"
     inkscape:window-y="195"
     inkscape:window-maximized="0"
     inkscape:current-layer="g1" /><g
     inkscape:groupmode="layer"
     inkscape:label="Image"
     id="g1"><g
       id="g2"
       transform="matrix(0.36880656,0,0,0.36880656,0.07166619,0.92436957)"><rect
         style="fill:#ae8777;fill-opacity:1;stroke:#000000;stroke-opacity:1"
         id="rect1"
         width="109.53374"
         height="112.06144"
         x="8.5661001"
         y="7.442677"
         ry="13.059792"
         transform="matrix(1.0777984,0,0,1.0777984,-5.2443605,-6.0928341)" /><rect
         style="fill:url(#linearGradient5);fill-opacity:1;stroke:none;stroke-width:1.05937;stroke-opacity:1"
         id="rect4"
         width="117.13398"
         height="117.60212"
         x="4.3853526"
         y="4.5106082"
         ry="13.70551" /><path
         id="path9"
         style="fill:#ab4a3b;fill-opacity:1;stroke-width:1.52075"
         d="M 35.319665,43.202523 4.4093219,78.458029 V 108.2767 c 0,7.27648 5.9640531,13.13403 13.3703981,13.13403 h 90.97413 c 7.40636,0 13.36843,-5.85755 13.36843,-13.13403 V 99.887127 L 54.657782,50.413706 34.473593,78.008655 42.376875,55.821604 Z" /><path
         id="rect2"
         style="fill:url(#linearGradient9);stroke-width:1.51156"
         d="M 34.786031,42.209552 3.6149393,76.748861 v 29.212909 c 0,7.12867 6.0143663,12.86723 13.4831877,12.86723 h 91.741543 c 7.46884,0 13.48121,-5.73856 13.48121,-12.86723 V 97.742632 L 54.287275,49.274243 33.932821,76.308615 41.902772,54.572283 Z" /><g
         id="g13"
         transform="matrix(0.19460406,-0.04616007,0.04616007,0.19460406,30.345748,-2.8800542)"
         style="filter:url(#filter5-6)"><path
           id="path4"
           style="opacity:0.742002;fill:#b3b3b3;fill-rule:evenodd;stroke:#000000;stroke-linecap:round;stroke-linejoin:round;stroke-opacity:1"
           inkscape:transform-center-x="-1.1448996"
           inkscape:transform-center-y="1.1448996"
           d="M 104.40792,-2.1193369 A 158.45024,150.57489 0 0 0 80.661821,1.4490225 L 79.400103,33.736132 A 124.91952,119.53868 0 0 0 67.183306,38.302538 L 43.810259,14.298632 a 158.45024,150.57489 0 0 0 -20.03711,11.86914 L 36.032915,56.87871 A 124.91952,119.53868 0 0 0 25.443071,66.706835 L -6.8127881,53.829882 A 158.45024,150.57489 0 0 0 -19.683882,71.69121 L 4.8278369,95.560351 a 124.91952,119.53868 0 0 0 -6.2851563,14.900389 l -35.2929686,1.37891 a 158.45024,150.57489 0 0 0 -3.767578,20.6914 l 32.8671873,12.11719 a 124.91952,119.53868 0 0 0 -0.2890625,5.67774 124.91952,119.53868 0 0 0 1.109375,11.34375 l -31.3203128,15.43554 a 158.45024,150.57489 0 0 0 5.800782,20.20508 l 34.8789058,-2.29297 a 124.91952,119.53868 0 0 0 7.8867192,14.57031 l -21.677735,26.05274 A 158.45024,150.57489 0 0 0 3.2008838,252.0584 L 33.366899,236.17949 a 124.91952,119.53868 0 0 0 12.197266,9.22266 l -8.972656,31.78515 a 158.45024,150.57489 0 0 0 20.671875,9.69336 l 20.49414,-26.00781 a 124.91952,119.53868 0 0 0 13.876954,3.53125 l 4.710937,32.54297 a 158.45024,150.57489 0 0 0 22.375005,1.26953 158.45024,150.57489 0 0 0 0.72851,-0.0566 l 8.04297,-31.69727 a 124.91952,119.53868 0 0 0 14.39258,-1.95507 l 17.64062,27.97265 a 158.45024,150.57489 0 0 0 21.48828,-7.31054 l -5.54492,-32.22461 a 124.91952,119.53868 0 0 0 13.76953,-8.10157 l 28.22657,18.86914 a 158.45024,150.57489 0 0 0 15.98828,-14.4121 l -18.59375,-27.81446 a 124.91952,119.53868 0 0 0 10.27148,-14.59765 l 34.42578,5.92382 a 158.45024,150.57489 0 0 0 7.8418,-18.73242 L 238.1169,175.61309 a 124.91952,119.53868 0 0 0 3.06055,-18.6543 l 34.17382,-8.66992 a 158.45024,150.57489 0 0 0 0.0469,-0.63672 l -0.1582,-6.73438 a 158.45024,150.57489 0 0 0 -1.53711,-12.57422 l -34.59375,-5.00781 A 124.91952,119.53868 0 0 0 233.70088,105.7166 L 260.49971,84.599413 A 158.45024,150.57489 0 0 0 249.98995,66.439257 l -33.42969,9.4375 A 124.91952,119.53868 0 0 0 205.58956,63.685351 L 220.9626,34.482226 A 158.45024,150.57489 0 0 0 202.65987,21.368944 L 176.73604,42.939257 A 124.91952,119.53868 0 0 0 163.8962,36.931444 L 166.00362,4.8689444 A 158.45024,150.57489 0 0 0 142.89424,-0.52363375 L 128.47042,28.741991 A 124.91952,119.53868 0 0 0 115.61495,28.281054 Z M 115.96846,117.55058 a 29.19573,30.117872 0 0 1 30.14649,28.75391 l 0.0293,1.3457 A 29.19573,30.117872 0 0 1 117.2751,177.76738 29.19573,30.117872 0 0 1 87.759478,148.32402 29.19573,30.117872 0 0 1 115.96846,117.55058 Z"
           transform="translate(132.13896,101.40254)" /><g
           id="g12"
           transform="translate(1.7297786,-0.0848215)"><path
             style="fill:url(#linearGradient20);fill-opacity:1;fill-rule:evenodd;stroke-width:1.34452;stroke-linecap:round;stroke-linejoin:round"
             id="path5"
             sodipodi:type="arc"
             sodipodi:cx="247.37418"
             sodipodi:cy="250.26599"
             sodipodi:rx="125.92075"
             sodipodi:ry="121.25689"
             sodipodi:start="0"
             sodipodi:end="6.2384506"
             sodipodi:open="true"
             sodipodi:arc-type="arc"
             d="M 373.29493,250.26599 A 125.92075,121.25689 0 0 1 248.7824,371.5153 125.92075,121.25689 0 0 1 121.48492,252.97796 125.92075,121.25689 0 0 1 243.1502,129.07734 125.92075,121.25689 0 0 1 373.16895,244.84341" /><g
             id="g11"
             transform="matrix(1.3458412,0,0,1.2749062,-321.10229,145.53316)"
             style="filter:url(#filter65)"><path
               style="opacity:1;fill:url(#linearGradient22);fill-opacity:1;fill-rule:evenodd;stroke-width:1.07512;stroke-linecap:round;stroke-linejoin:round"
               id="path6"
               sodipodi:type="arc"
               sodipodi:cx="422.39493"
               sodipodi:cy="82.149429"
               sodipodi:rx="74.826721"
               sodipodi:ry="74.826721"
               sodipodi:start="0"
               sodipodi:end="6.2384506"
               sodipodi:open="true"
               sodipodi:arc-type="arc"
               d="M 497.22165,82.149429 A 74.826721,74.826721 0 0 1 423.23175,156.97147 74.826721,74.826721 0 0 1 347.58692,83.822965 74.826721,74.826721 0 0 1 419.88489,7.3648193 74.826721,74.826721 0 0 1 497.14679,78.803194" /><path
               style="opacity:0.793458;fill:#676866;fill-opacity:0.807843;fill-rule:evenodd;stroke-width:1.05129;stroke-linecap:round;stroke-linejoin:round;filter:url(#filter2)"
               id="path7"
               sodipodi:type="arc"
               sodipodi:cx="422.39493"
               sodipodi:cy="82.149429"
               sodipodi:rx="32.844116"
               sodipodi:ry="32.844116"
               sodipodi:start="0"
               sodipodi:end="6.2384506"
               sodipodi:open="true"
               sodipodi:arc-type="arc"
               d="m 455.23904,82.149429 a 32.844116,32.844116 0 0 1 -32.4768,32.842061 32.844116,32.844116 0 0 1 -33.20321,-32.107486 32.844116,32.844116 0 0 1 31.73415,-33.560207 32.844116,32.844116 0 0 1 33.91301,31.35685" /><path
               style="opacity:1;fill:url(#radialGradient22);fill-opacity:1;fill-rule:evenodd;stroke-width:1.20865;stroke-linecap:round;stroke-linejoin:round"
               id="path8"
               sodipodi:type="arc"
               sodipodi:cx="422.39578"
               sodipodi:cy="81.902763"
               sodipodi:rx="29.507883"
               sodipodi:ry="29.507883"
               sodipodi:start="0"
               sodipodi:end="6.2384506"
               sodipodi:open="true"
               sodipodi:arc-type="arc"
               d="m 451.90367,81.902763 a 29.507883,29.507883 0 0 1 -29.17789,29.506037 29.507883,29.507883 0 0 1 -29.8305,-28.846078 29.507883,29.507883 0 0 1 28.51067,-30.151235 29.507883,29.507883 0 0 1 30.46819,28.17169" /><path
               style="opacity:0.655916;fill:url(#radialGradient23);fill-opacity:1;fill-rule:evenodd;stroke-width:1.30262;stroke-linecap:round;stroke-linejoin:round"
               id="path9-2"
               sodipodi:type="arc"
               sodipodi:cx="422.22165"
               sodipodi:cy="134.26059"
               sodipodi:rx="36.662636"
               sodipodi:ry="19.306906"
               sodipodi:start="0"
               sodipodi:end="6.2384506"
               sodipodi:open="true"
               sodipodi:arc-type="arc"
               d="m 458.88428,134.26059 a 36.662636,19.306906 0 0 1 -36.25262,19.3057 36.662636,19.306906 0 0 1 -37.06348,-18.87389 36.662636,19.306906 0 0 1 35.42363,-19.72785 36.662636,19.306906 0 0 1 37.8558,18.43264" /><path
               style="opacity:0.655916;mix-blend-mode:normal;fill:url(#linearGradient21);fill-opacity:1;fill-rule:evenodd;stroke-width:0.996718;stroke-linecap:round;stroke-linejoin:round;filter:url(#filter64)"
               id="path10"
               sodipodi:type="arc"
               sodipodi:cx="613.06342"
               sodipodi:cy="68.851112"
               sodipodi:rx="35.502197"
               sodipodi:ry="35.195515"
               sodipodi:start="0"
               sodipodi:end="6.2384506"
               sodipodi:open="true"
               sodipodi:arc-type="arc"
               d="M 648.56561,68.851112 A 35.502197,35.195515 0 0 1 613.46045,104.04443 35.502197,35.195515 0 0 1 577.5701,69.638277 35.502197,35.195515 0 0 1 611.8725,33.675405 35.502197,35.195515 0 0 1 648.5301,67.277176"
               clip-path="url(#clipath_lpe_path-effect14)"
               inkscape:path-effect="#path-effect14"
               transform="translate(-190.3583,15.655834)" /><path
               style="opacity:1;fill:url(#radialGradient24);fill-opacity:1;fill-rule:evenodd;stroke-width:1.20865;stroke-linecap:round;stroke-linejoin:round"
               id="path11"
               sodipodi:type="arc"
               sodipodi:cx="422.39578"
               sodipodi:cy="81.902763"
               sodipodi:rx="29.507883"
               sodipodi:ry="29.507883"
               sodipodi:start="0"
               sodipodi:end="6.2384506"
               sodipodi:open="true"
               sodipodi:arc-type="arc"
               d="m 451.90367,81.902763 a 29.507883,29.507883 0 0 1 -29.17789,29.506037 29.507883,29.507883 0 0 1 -29.8305,-28.846078 29.507883,29.507883 0 0 1 28.51067,-30.151235 29.507883,29.507883 0 0 1 30.46819,28.17169" /></g><path
             style="opacity:0.742002;mix-blend-mode:normal;fill:#f2f2f2;fill-opacity:1;fill-rule:evenodd;stroke-width:1.0248;stroke-linecap:round;stroke-linejoin:round;filter:url(#filter63)"
             id="path12"
             sodipodi:type="arc"
             sodipodi:cx="625.61871"
             sodipodi:cy="266.8244"
             sodipodi:rx="75.328308"
             sodipodi:ry="76.091293"
             sodipodi:start="0"
             sodipodi:end="6.2384506"
             sodipodi:open="true"
             sodipodi:arc-type="arc"
             d="m 700.94702,266.8244 a 75.328308,76.091293 0 0 1 -74.48588,76.08654 75.328308,76.091293 0 0 1 -76.15189,-74.38472 75.328308,76.091293 0 0 1 72.7826,-77.75029 75.328308,76.091293 0 0 1 77.77981,72.64569"
             clip-path="url(#clipath_lpe_path-effect16)"
             inkscape:path-effect="#path-effect16"
             transform="matrix(1.305112,0,0,1.2749062,-568.2251,-93.631484)" /></g></g></g></g></svg>
