<?xml version="1.0" encoding="UTF-8" standalone="no"?>
<svg
   height="48"
   width="48"
   version="1.1"
   id="svg42"
   sodipodi:docname="extensions.svg"
   inkscape:version="1.4 (e7c3feb, 2024-10-09)"
   xmlns:inkscape="http://www.inkscape.org/namespaces/inkscape"
   xmlns:sodipodi="http://sodipodi.sourceforge.net/DTD/sodipodi-0.dtd"
   xmlns:xlink="http://www.w3.org/1999/xlink"
   xmlns="http://www.w3.org/2000/svg"
   xmlns:svg="http://www.w3.org/2000/svg">
  <sodipodi:namedview
     id="namedview42"
     pagecolor="#ffffff"
     bordercolor="#111111"
     borderopacity="1"
     inkscape:showpageshadow="0"
     inkscape:pageopacity="0"
     inkscape:pagecheckerboard="1"
     inkscape:deskcolor="#d1d1d1"
     inkscape:zoom="4.7421875"
     inkscape:cx="47.973641"
     inkscape:cy="47.973641"
     inkscape:window-width="3840"
     inkscape:window-height="2072"
     inkscape:window-x="0"
     inkscape:window-y="0"
     inkscape:window-maximized="1"
     inkscape:current-layer="svg42" />
  <defs
     id="defs14">
    <linearGradient
       id="c"
       stop-color="#ffffff">
      <stop
         offset="0"
         id="stop1" />
      <stop
         stop-opacity="0"
         offset="1"
         id="stop2" />
    </linearGradient>
    <filter
       id="g"
       height="1.3915758"
       width="1.3915758"
       color-interpolation-filters="sRGB"
       y="-0.19578789"
       x="-0.19578789">
      <feGaussianBlur
         stdDeviation="5.28"
         id="feGaussianBlur2" />
    </filter>
    <linearGradient
       id="r"
       y2="138.66"
       xlink:href="#c"
       gradientUnits="userSpaceOnUse"
       x2="48"
       y1="20.221001"
       x1="48" />
    <clipPath
       id="f">
      <rect
         rx="6"
         ry="6"
         height="84"
         width="84"
         y="6"
         x="6"
         fill="#ffffff"
         id="rect2" />
    </clipPath>
    <clipPath
       id="d">
      <rect
         rx="6"
         ry="6"
         height="84"
         width="84"
         y="6"
         x="6"
         fill="url(#h)"
         id="rect3" />
    </clipPath>
    <linearGradient
       id="h"
       y2="5.9877"
       gradientUnits="userSpaceOnUse"
       x2="48"
       y1="90"
       x1="48">
      <stop
         stop-color="#70a83e"
         offset="0"
         id="stop3" />
      <stop
         stop-color="#9fd058"
         offset="1"
         id="stop4" />
    </linearGradient>
    <linearGradient
       id="b"
       y2="7.0165"
       gradientUnits="userSpaceOnUse"
       x2="45.448002"
       gradientTransform="translate(100)"
       y1="92.540001"
       x1="45.448002">
      <stop
         offset="0"
         id="stop5" />
      <stop
         stop-opacity=".58824"
         offset="1"
         id="stop6" />
    </linearGradient>
    <linearGradient
       id="q"
       y2="20.895"
       gradientUnits="userSpaceOnUse"
       x2="84.639"
       gradientTransform="matrix(0.41503,0,0,0.41503,21.438,20.853)"
       y1="105.1"
       x1="86.133003">
      <stop
         stop-color="#e5e5e5"
         offset="0"
         id="stop7" />
      <stop
         stop-color="#ababab"
         offset="1"
         id="stop8" />
    </linearGradient>
    <linearGradient
       id="p"
       y2="45.016998"
       gradientUnits="userSpaceOnUse"
       x2="20.759001"
       gradientTransform="matrix(1.2791,0,0,1.2791,17.302,17.582)"
       y1="1"
       x1="20.759001">
      <stop
         stop-color="#f6f6f6"
         offset="0"
         id="stop9" />
      <stop
         stop-color="#d2d2d2"
         offset="1"
         id="stop10" />
    </linearGradient>
    <linearGradient
       id="o"
       y2="45"
       gradientUnits="userSpaceOnUse"
       x2="37.201"
       gradientTransform="matrix(1.2791,0,0,1.2791,17.302,17.582)"
       y1="1"
       x1="37.201">
      <stop
         stop-color="#aaa"
         offset="0"
         id="stop11" />
      <stop
         stop-color="#8c8c8c"
         offset="1"
         id="stop12" />
    </linearGradient>
    <radialGradient
       id="e"
       xlink:href="#c"
       gradientUnits="userSpaceOnUse"
       cy="90.171997"
       cx="48"
       gradientTransform="matrix(1.1573,0,0,0.99591,-7.551,0.19713)"
       r="42" />
    <linearGradient
       id="n"
       y2="63.893002"
       xlink:href="#c"
       gradientUnits="userSpaceOnUse"
       x2="36.356998"
       y1="6"
       x1="36.356998" />
    <linearGradient
       id="m"
       y2="90"
       gradientUnits="userSpaceOnUse"
       x2="48"
       y1="6"
       x1="48">
      <stop
         stop-color="#80a2c8"
         offset="0"
         id="stop13" />
      <stop
         stop-color="#2e4c6d"
         offset="1"
         id="stop14" />
    </linearGradient>
    <linearGradient
       id="k"
       y2="6"
       xlink:href="#b"
       gradientUnits="userSpaceOnUse"
       x2="32.250999"
       gradientTransform="translate(0,1)"
       y1="90"
       x1="32.250999" />
    <linearGradient
       id="j"
       y2="5.9995999"
       xlink:href="#b"
       gradientUnits="userSpaceOnUse"
       x2="32.250999"
       gradientTransform="matrix(1.0238,0,0,1.0119,-1.1429,0.929)"
       y1="90"
       x1="32.250999" />
    <linearGradient
       id="i"
       y2="90.238998"
       xlink:href="#b"
       gradientUnits="userSpaceOnUse"
       x2="32.250999"
       gradientTransform="matrix(1.0238,0,0,-1.0119,-1.1429,98.071)"
       y1="6.1317"
       x1="32.250999" />
    <linearGradient
       inkscape:collect="always"
       xlink:href="#b"
       id="linearGradient42"
       gradientUnits="userSpaceOnUse"
       gradientTransform="matrix(1.0238,0,0,-1.0119,-1.1429,98.071)"
       x1="32.250999"
       y1="6.1317"
       x2="32.250999"
       y2="90.238998" />
    <linearGradient
       inkscape:collect="always"
       xlink:href="#b"
       id="linearGradient43"
       gradientUnits="userSpaceOnUse"
       gradientTransform="matrix(1.0238,0,0,-1.0119,-1.1429,98.071)"
       x1="32.250999"
       y1="6.1317"
       x2="32.250999"
       y2="90.238998" />
    <linearGradient
       inkscape:collect="always"
       xlink:href="#b"
       id="linearGradient44"
       gradientUnits="userSpaceOnUse"
       gradientTransform="matrix(1.0238,0,0,-1.0119,-1.1429,98.071)"
       x1="32.250999"
       y1="6.1317"
       x2="32.250999"
       y2="90.238998" />
  </defs>
  <g
     id="g42"
     transform="matrix(0.45812396,0,0,0.45812396,2.1213197,1.7289597)">
    <g
       fill="url(#i)"
       id="g16"
       style="fill:url(#i)">
      <path
         opacity="0.08"
         d="M 12,95.031 C 6.4889,95.031 1.969,90.511 1.969,85 V 14 C 1.969,8.4889 6.4892,3.969 12,3.969 h 72 c 5.5111,0 10.031,4.5202 10.031,10.031 v 71 c 0,5.5111 -4.5202,10.031 -10.031,10.031 z"
         id="path14"
         style="fill:url(#linearGradient42)" />
      <path
         opacity="0.1"
         d="m 12,94.031 c -4.9716,0 -9.0312,-4.0596 -9.0312,-9.0312 v -71 C 2.9688,9.028 7.0284,4.9684 12,4.9684 h 72 c 4.9716,0 9.0312,4.0596 9.0312,9.0312 v 71 c 0,4.9716 -4.0596,9.0312 -9.0312,9.0312 H 12 Z"
         id="path15"
         style="fill:url(#linearGradient43)" />
      <path
         opacity="0.2"
         d="M 12,93 C 7.5909,93 4,89.409 4,85 V 14 C 4,9.5909 7.5909,6 12,6 h 72 c 4.4091,0 8,3.5909 8,8 v 71 c 0,4.4091 -3.5909,8 -8,8 z"
         id="path16"
         style="fill:url(#linearGradient44)" />
    </g>
    <rect
       opacity="0.3"
       rx="7"
       ry="7"
       height="85"
       width="86"
       y="7"
       x="5"
       fill="url(#j)"
       id="rect16"
       style="fill:url(#j)" />
    <rect
       opacity="0.45"
       rx="6"
       ry="6"
       height="84"
       width="84"
       y="7"
       x="6"
       fill="url(#k)"
       id="rect17"
       style="fill:url(#k)" />
    <rect
       rx="6"
       ry="6"
       height="84"
       width="84"
       y="6"
       x="6"
       fill="url(#m)"
       id="rect18"
       style="fill:url(#m)" />
    <path
       opacity="0.4"
       d="M 12,6 C 8.676,6 6,8.676 6,12 v 72 c 0,0.33472 0.04135,0.6507 0.09375,0.96875 0.0487,0.2956 0.09704,0.59692 0.1875,0.875 0.00988,0.03038 0.020892,0.0636 0.03125,0.09375 0.098865,0.28777 0.23488,0.54745 0.375,0.8125 0.14459,0.27351 0.31562,0.53562 0.5,0.78125 0.18438,0.24564 0.37378,0.47347 0.59375,0.6875 0.43995,0.42806 0.94291,0.81453 1.5,1.0938 0.27854,0.13961 0.57347,0.24695 0.875,0.34375 -0.2562,-0.10022 -0.48671,-0.23627 -0.71875,-0.375 -0.00741,-0.0044 -0.023866,0.0045 -0.03125,0 -0.0319,-0.019 -0.0622,-0.042 -0.0937,-0.062 -0.1204,-0.077 -0.231,-0.164 -0.3437,-0.25 -0.1062,-0.081 -0.2133,-0.161 -0.3126,-0.25 -0.1778,-0.162 -0.3473,-0.346 -0.4999,-0.531 -0.1075,-0.131 -0.2183,-0.266 -0.3124,-0.407 -0.0251,-0.038 -0.0385,-0.086 -0.0626,-0.125 -0.0647,-0.103 -0.1302,-0.204 -0.1874,-0.312 -0.1011,-0.195 -0.2057,-0.416 -0.2813,-0.625 -0.008,-0.022 -0.0236,-0.041 -0.0313,-0.063 -0.0318,-0.092 -0.0358,-0.187 -0.0624,-0.281 -0.0304,-0.107 -0.0704,-0.203 -0.0938,-0.313 -0.0729,-0.341 -0.125,-0.698 -0.125,-1.062 v -72 c 0,-2.782 2.2182,-5 5,-5 h 72 c 2.7818,0 5,2.2182 5,5 v 72 c 0,0.3643 -0.05212,0.72099 -0.125,1.0625 -0.04415,0.20689 -0.08838,0.39766 -0.15625,0.59375 -0.0077,0.02195 -0.0233,0.04069 -0.03125,0.0625 -0.06274,0.17374 -0.13838,0.36745 -0.21875,0.53125 -0.04158,0.0828 -0.07904,0.16995 -0.125,0.25 -0.0546,0.09721 -0.12677,0.18835 -0.1875,0.28125 -0.09411,0.14096 -0.20492,0.276 -0.3125,0.40625 -0.14317,0.17445 -0.30314,0.347 -0.46875,0.5 -0.01117,0.0102 -0.01998,0.02115 -0.03125,0.03125 -0.13839,0.12556 -0.28509,0.23444 -0.4375,0.34375 -0.10257,0.07315 -0.20432,0.15336 -0.3125,0.21875 -0.0074,0.0045 -0.02384,-0.0044 -0.03125,0 -0.23204,0.13873 -0.46255,0.27478 -0.71875,0.375 0.30153,-0.0968 0.59646,-0.20414 0.875,-0.34375 0.55709,-0.27922 1.0601,-0.66569 1.5,-1.0938 0.21997,-0.21403 0.40937,-0.44186 0.59375,-0.6875 0.18438,-0.24564 0.35541,-0.50774 0.5,-0.78125 0.14012,-0.26505 0.27614,-0.52473 0.375,-0.8125 0.01041,-0.03078 0.02133,-0.06274 0.03125,-0.09375 0.09046,-0.27808 0.1388,-0.5794 0.1875,-0.875 0.053,-0.318 0.094,-0.634 0.094,-0.969 V 12 c 0,-3.324 -2.676,-6 -6,-6 h -72 z"
       fill="url(#n)"
       id="path18"
       style="fill:url(#n)" />
    <path
       opacity="0.2"
       d="M 12,90 C 8.676,90 6,87.324 6,84 V 12 c 0,-0.33472 0.04135,-0.6507 0.09375,-0.96875 0.0487,-0.2956 0.09704,-0.59692 0.1875,-0.875 0.0099,-0.03 0.0209,-0.063 0.0313,-0.094 0.0989,-0.2873 0.2349,-0.547 0.375,-0.812 0.1446,-0.2735 0.3156,-0.5356 0.5,-0.7812 0.1844,-0.2457 0.3738,-0.4735 0.5937,-0.6876 0.44,-0.428 0.943,-0.8145 1.5,-1.0937 0.2786,-0.1396 0.5735,-0.2469 0.8748,-0.3437 -0.256,0.1002 -0.4865,0.2362 -0.7185,0.375 -0.00741,0.0044 -0.023866,-0.0045 -0.03125,0 -0.031933,0.0193 -0.062293,0.04251 -0.09375,0.0625 -0.1204,0.0767 -0.23102,0.16351 -0.34375,0.25 -0.10617,0.0808 -0.21328,0.16111 -0.3125,0.25 -0.1779,0.1614 -0.3474,0.3453 -0.5,0.5312 -0.1075,0.1303 -0.2183,0.2653 -0.3124,0.4063 -0.0251,0.0383 -0.0385,0.0858 -0.0626,0.125 -0.0647,0.103 -0.1302,0.2045 -0.1874,0.3124 -0.1011,0.1948 -0.2057,0.4158 -0.2813,0.625 -0.008,0.0219 -0.0236,0.0406 -0.0313,0.0626 -0.0318,0.0919 -0.0358,0.1868 -0.0624,0.2812 -0.0304,0.1066 -0.0704,0.203 -0.0938,0.3125 -0.0729,0.3415 -0.125,0.6985 -0.125,1.0625 v 72 c 0,2.7818 2.2182,5 5,5 h 72 c 2.7818,0 5,-2.2182 5,-5 v -72 c 0,-0.364 -0.052,-0.721 -0.125,-1.0625 -0.044,-0.2069 -0.088,-0.3977 -0.156,-0.5937 -0.008,-0.022 -0.024,-0.0407 -0.031,-0.0626 -0.063,-0.1737 -0.139,-0.3674 -0.219,-0.5312 -0.042,-0.0828 -0.079,-0.17 -0.125,-0.25 -0.055,-0.0972 -0.127,-0.1884 -0.188,-0.2812 -0.094,-0.141 -0.205,-0.276 -0.312,-0.4063 -0.143,-0.1745 -0.303,-0.347 -0.469,-0.5 -0.011,-0.0102 -0.02,-0.0211 -0.031,-0.0313 -0.139,-0.1255 -0.285,-0.2344 -0.438,-0.3437 -0.102,-0.0731 -0.204,-0.1534 -0.312,-0.2187 -0.0074,-0.0045 -0.02384,0.0044 -0.03125,0 -0.23204,-0.13873 -0.46255,-0.27478 -0.71875,-0.375 0.30153,0.0968 0.59646,0.20414 0.875,0.34375 0.55709,0.27922 1.0601,0.66569 1.5,1.0938 0.21997,0.21403 0.40937,0.44186 0.59375,0.6875 0.18438,0.24564 0.35541,0.50774 0.5,0.78125 0.14012,0.26505 0.27614,0.52473 0.375,0.8125 0.01041,0.03078 0.02133,0.06274 0.03125,0.09375 0.09046,0.27808 0.1388,0.5794 0.1875,0.875 0.053,0.318 0.094,0.634 0.094,0.969 v 72 c 0,3.324 -2.676,6 -6,6 h -72 z"
       fill="url(#e)"
       id="path19"
       style="fill:url(#e)" />
    <g
       opacity="0.9"
       fill="#aaccff"
       clip-path="url(#d)"
       id="g35">
      <path
         opacity="0.15"
         d="M 48,48 72,-8 h 16 z"
         id="path20" />
      <path
         opacity="0.15"
         d="m 48,48 55.25,25.677 -0.48,15.993 z"
         id="path21" />
      <path
         opacity="0.15"
         d="m 48,48 -59.828,11.516 -8.969,-13.25 z"
         id="path22" />
      <path
         opacity="0.15"
         d="M 48,48 -1.311,12.217 2.2249,-3.387 47.9999,48 Z"
         id="path23" />
      <path
         opacity="0.15"
         d="M 48,48 65.519,-14.073 95.955,-1.359 Z"
         id="path24" />
      <path
         opacity="0.15"
         d="m 48,48 61.64,-19.001 5.85,32.461 z"
         id="path25" />
      <path
         opacity="0.15"
         d="M 48,48 16.754,104.42 -9.969,85.089 Z"
         id="path26" />
      <path
         opacity="0.15"
         d="M 48,48 -14.812,33.349 -3.508,2.361 Z"
         id="path27" />
      <path
         opacity="0.15"
         d="m 48,48 45.81,45.403 -3.692,9.027 z"
         id="path28" />
      <path
         opacity="0.15"
         d="m 48,48 -2.9701,64.43 -9.1685,3.31 L 47.9984,48 Z"
         id="path29" />
      <path
         opacity="0.15"
         d="M 48,48 3.141,94.343 -5.9239,90.758 48.0001,48 Z"
         id="path30" />
      <path
         opacity="0.15"
         d="m 48,48 -62.116,17.366 -6.016,-7.67 z"
         id="path31" />
      <path
         opacity="0.15"
         d="m 48,48 -29.147,-57.537 6.35,-7.396 z"
         id="path32" />
      <path
         opacity="0.15"
         d="m 48,48 59.482,-24.939 6.921,6.8641 -66.4,18.074 z"
         id="path33" />
      <path
         opacity="0.15"
         d="M 48,48 88.187,93.793 81.29,108.23 Z"
         id="path34" />
      <path
         opacity="0.15"
         d="M 48,48 12.042,-1.184 20.194,-14.951 Z"
         id="path35" />
    </g>
    <rect
       opacity="0.1"
       clip-path="url(#f)"
       rx="12"
       ry="12"
       height="66"
       filter="url(#g)"
       width="66"
       stroke="#ffffff"
       stroke-linecap="round"
       y="15"
       x="15"
       stroke-width="0.5"
       fill="url(#r)"
       id="rect35"
       style="fill:url(#r)" />
    <path
       opacity="0.05"
       d="m 44.188,17 c -3.032,0 -5.438,2.542 -5.438,5.5 V 24 c -0.40375,0.15655 -0.79124,0.35424 -1.1875,0.53125 l -1.093,-1.093 c -0.885,-0.885 -2.2116,-1.6427 -3.8125,-1.6562 -1.3981,-0.01194 -2.8068,0.52558 -3.875,1.5938 l -5.407,5.405 c -2.1478,2.1478 -2.0043,5.6205 0.0625,7.6875 l 1.0938,1.0938 c -0.178,0.397 -0.375,0.784 -0.532,1.188 h -1.5 c -2.9583,0 -5.5,2.406 -5.5,5.438 v 7.625 c 0,3.0316 2.5417,5.4375 5.5,5.4375 h 1.5 c 0.15655,0.40375 0.35424,0.79124 0.53125,1.1875 l -1.0938,1.0938 c -2.067,2.067 -2.2105,5.5397 -0.0625,7.6875 l 5.4062,5.4062 c 2.1478,2.1478 5.6204,2.0046 7.6875,-0.0625 l 1.094,-1.095 c 0.397,0.177 0.784,0.374 1.188,0.531 v 1.5 c 0,2.9583 2.4059,5.5 5.4375,5.5 h 7.625 c 3.0316,0 5.4375,-2.5417 5.4375,-5.5 v -1.5 c 0.40375,-0.15655 0.79124,-0.35424 1.1875,-0.53125 l 1.0938,1.0938 c 2.0671,2.0671 5.5397,2.2103 7.6875,0.0625 l 5.405,-5.407 c 2.1478,-2.1478 2.0043,-5.6205 -0.0625,-7.6875 l -1.093,-1.094 c 0.177,-0.397 0.374,-0.784 0.531,-1.188 h 1.5 c 2.9583,0 5.5,-2.4059 5.5,-5.4375 v -7.625 c 0,-3.031 -2.542,-5.437 -5.5,-5.437 h -1.5 c -0.157,-0.406 -0.355,-0.793 -0.532,-1.189 l 1.0938,-1.0938 c 2.067,-2.067 2.2105,-5.5397 0.0625,-7.6875 l -5.407,-5.405 c -2.1478,-2.1478 -5.6204,-2.0046 -7.6875,0.0625 l -1.094,1.093 c -0.397,-0.177 -0.784,-0.374 -1.188,-0.531 v -1.5 c 0,-2.9583 -2.4059,-5.5 -5.4375,-5.5 h -7.625 z M 48,43.188 c 2.7171,0 4.8125,2.0954 4.8125,4.8125 0,2.7171 -2.0954,4.8125 -4.8125,4.8125 -2.7171,0 -4.8125,-2.0954 -4.8125,-4.8125 0,-2.7171 2.0954,-4.8125 4.8125,-4.8125 z"
       display="block"
       id="path36" />
    <path
       opacity="0.08"
       d="m 44.188,18.031 c -2.4655,0 -4.4062,2.0565 -4.4062,4.4688 v 2.1875 c -0.84674,0.30617 -1.673,0.6425 -2.4688,1.0312 l -1.563,-1.563 c -0.729,-0.729 -1.806,-1.333 -3.094,-1.344 -1.14,-0.009 -2.288,0.414 -3.156,1.282 l -5.406,5.406 c -1.7411,1.7412 -1.6182,4.5691 0.0625,6.25 l 1.5625,1.5625 c -0.38875,0.79572 -0.72508,1.622 -1.0312,2.4688 h -2.1875 c -2.4122,0 -4.4688,1.9408 -4.4688,4.4062 v 7.625 c 0,2.4655 2.0565,4.4062 4.4688,4.4062 h 2.1875 c 0.30618,0.84674 0.6425,1.673 1.0312,2.4688 l -1.5625,1.5625 c -1.6808,1.6808 -1.8038,4.5089 -0.0625,6.25 l 5.406,5.406 c 1.7411,1.7411 4.5691,1.6184 6.25,-0.0625 l 1.5625,-1.5625 c 0.79572,0.38875 1.622,0.72508 2.4688,1.0312 v 2.1875 c 0,2.4122 1.9408,4.4688 4.4062,4.4688 h 7.625 c 2.4655,0 4.4062,-2.0565 4.4062,-4.4688 v -2.1875 c 0.84674,-0.30617 1.673,-0.6425 2.4688,-1.0312 l 1.563,1.562 c 1.6809,1.6809 4.5089,1.8036 6.25,0.0625 l 5.406,-5.406 c 1.7411,-1.7412 1.6182,-4.5691 -0.0625,-6.25 l -1.563,-1.563 c 0.38875,-0.79571 0.72508,-1.622 1.0312,-2.4688 h 2.1875 c 2.4122,0 4.4688,-1.9408 4.4688,-4.4062 v -7.625 c 0,-2.4655 -2.0565,-4.4062 -4.4688,-4.4062 h -2.1875 c -0.306,-0.847 -0.642,-1.674 -1.031,-2.47 l 1.5625,-1.5625 c 1.6808,-1.6808 1.8038,-4.5089 0.0625,-6.25 l -5.406,-5.406 c -1.7411,-1.7411 -4.5691,-1.6184 -6.25,0.0625 l -1.5625,1.5625 c -0.796,-0.388 -1.623,-0.724 -2.469,-1.03 v -2.1875 c 0,-2.4122 -1.9408,-4.4688 -4.4062,-4.4688 h -7.625 z M 48,42.156 c 3.2563,0 5.8438,2.5874 5.8438,5.8438 0,3.2563 -2.5874,5.8438 -5.8438,5.8438 -3.2563,0 -5.8438,-2.5874 -5.8438,-5.8438 0,-3.2563 2.5874,-5.8438 5.8438,-5.8438 z"
       display="block"
       id="path37" />
    <path
       opacity="0.2"
       d="m 44.188,19.031 c -1.8975,0 -3.4062,1.6003 -3.4062,3.4688 v 2.875 c -1.2828,0.41908 -2.5201,0.94925 -3.6875,1.5625 l -2.0625,-2.0625 c -0.58342,-0.58342 -1.4117,-1.0543 -2.375,-1.0625 -0.87648,-0.0075 -1.766,0.32854 -2.4375,1 l -5.4062,5.4062 c -1.3357,1.3357 -1.2376,3.5123 0.0625,4.8125 l 2.0625,2.0625 c -0.61325,1.1674 -1.1434,2.4047 -1.5625,3.6875 h -2.875 c -1.8685,0 -3.4688,1.5087 -3.4688,3.4062 v 7.625 c 0,1.8975 1.6003,3.4062 3.4688,3.4062 h 2.875 c 0.41908,1.2828 0.94925,2.5201 1.5625,3.6875 l -2.0625,2.0625 c -1.3002,1.3002 -1.3983,3.4768 -0.0625,4.8125 l 5.4062,5.4062 c 1.3356,1.3357 3.5123,1.2377 4.8125,-0.0625 l 2.0625,-2.0625 c 1.1674,0.61325 2.4047,1.1434 3.6875,1.5625 v 2.875 c 0,1.8684 1.5087,3.4688 3.4062,3.4688 h 7.625 c 1.8975,0 3.4062,-1.6003 3.4062,-3.4688 v -2.875 c 1.2828,-0.41908 2.5201,-0.94925 3.6875,-1.5625 l 2.0625,2.0625 c 1.3002,1.3002 3.4769,1.3981 4.8125,0.0625 l 5.4062,-5.4062 c 1.3357,-1.3357 1.2376,-3.5123 -0.0625,-4.8125 l -2.0625,-2.0625 c 0.61325,-1.1674 1.1434,-2.4047 1.5625,-3.6875 h 2.875 c 1.8684,0 3.4688,-1.5087 3.4688,-3.4062 v -7.625 c 0,-1.8975 -1.6003,-3.4062 -3.4688,-3.4062 h -2.875 c -0.41908,-1.2828 -0.94925,-2.5201 -1.5625,-3.6875 l 2.0625,-2.0625 c 1.3002,-1.3002 1.3983,-3.4768 0.0625,-4.8125 l -5.405,-5.408 c -1.3356,-1.3356 -3.5123,-1.2377 -4.8125,0.0625 l -2.0625,2.0625 c -1.166,-0.614 -2.403,-1.144 -3.686,-1.563 v -2.875 c 0,-1.8685 -1.5088,-3.4688 -3.4062,-3.4688 h -7.625 z M 48,41.156 c 3.7968,0 6.8438,3.047 6.8438,6.8438 0,3.7968 -3.047,6.8438 -6.8438,6.8438 -3.7968,0 -6.8438,-3.047 -6.8438,-6.8438 0,-3.7968 3.047,-6.8438 6.8438,-6.8438 z"
       display="block"
       id="path38" />
    <path
       opacity="0.3"
       d="m 44.188,20 c -1.363,0 -2.438,1.138 -2.438,2.5 V 26 c -1.7179,0.49094 -3.3491,1.2076 -4.875,2.0625 l -2.5312,-2.5 c -0.45629,-0.45628 -1.0316,-0.77569 -1.6875,-0.78125 -0.62972,-0.0054 -1.2629,0.23163 -1.75,0.71875 l -5.406,5.406 c -0.96063,0.96064 -0.8927,2.4822 0.0625,3.4375 l 2.5,2.5312 c -0.854,1.526 -1.571,3.157 -2.062,4.875 h -3.5 c -1.3624,0 -2.5,1.0755 -2.5,2.4375 v 7.625 c 0,1.362 1.1376,2.4375 2.5,2.4375 h 3.5 c 0.49095,1.7179 1.2076,3.3491 2.0625,4.875 l -2.5,2.5312 c -0.95529,0.95529 -1.0232,2.4769 -0.0625,3.4375 l 5.406,5.406 c 0.96062,0.96063 2.4822,0.8928 3.4375,-0.0625 l 2.5312,-2.5 c 1.5259,0.85495 3.1571,1.5716 4.875,2.0625 v 3.5 c 0,1.3624 1.0755,2.5 2.4375,2.5 h 7.625 c 1.362,0 2.4375,-1.1376 2.4375,-2.5 v -3.5 c 1.7179,-0.49094 3.3491,-1.2076 4.875,-2.0625 l 2.5312,2.5 c 0.9553,0.95531 2.4769,1.0231 3.4375,0.0625 l 5.406,-5.406 c 0.96063,-0.96064 0.8927,-2.4822 -0.0625,-3.4375 l -2.5,-2.5312 c 0.854,-1.526 1.571,-3.157 2.062,-4.875 h 3.5 c 1.3624,0 2.5,-1.0755 2.5,-2.4375 v -7.625 c 0,-1.362 -1.138,-2.437 -2.5,-2.437 h -3.5 c -0.49094,-1.7179 -1.2076,-3.3491 -2.0625,-4.875 l 2.5,-2.5312 c 0.95529,-0.95529 1.0232,-2.4769 0.0625,-3.4375 l -5.406,-5.406 c -0.96063,-0.96062 -2.4822,-0.8928 -3.4375,0.0625 l -2.5312,2.5 C 57.599,27.21 55.968,26.493 54.25,26.002 v -3.5 c 0,-1.3624 -1.0755,-2.5 -2.4375,-2.5 h -7.625 z M 48,40.188 c 4.3161,0 7.8125,3.4964 7.8125,7.8125 0,4.3161 -3.4964,7.8125 -7.8125,7.8125 -4.3161,0 -7.8125,-3.4964 -7.8125,-7.8125 0,-4.3161 3.4964,-7.8125 7.8125,-7.8125 z"
       display="block"
       id="path39" />
    <path
       stroke-linejoin="round"
       d="m 44.203,19.5 c -1.0823,0 -1.9586,0.89778 -1.9586,1.9985 v 3.8772 c -1.9351,0.5156 -3.7842,1.2944 -5.476,2.2783 l -2.758,-2.758 c -0.38918,-0.38918 -0.85537,-0.5953 -1.359,-0.59956 -0.50363,-0.0043 -1.0163,0.17696 -1.399,0.55959 l -5.3961,5.3961 c -0.76526,0.76527 -0.73838,1.9796 0.03989,2.758 l 2.758,2.758 c -0.98393,1.6918 -1.7627,3.5408 -2.2783,5.476 h -3.8772 c -1.1008,0 -1.9985,0.87631 -1.9985,1.9586 v 7.5944 c 0,1.0823 0.89779,1.9586 1.9985,1.9586 h 3.8772 c 0.51561,1.9352 1.2944,3.7842 2.2783,5.476 l -2.758,2.758 c -0.77835,0.77835 -0.80523,1.9927 -0.03989,2.758 l 5.3961,5.3961 c 0.76526,0.76527 1.9796,0.73838 2.758,-0.03997 l 2.758,-2.758 c 1.6918,0.98394 3.5408,1.7627 5.476,2.2783 v 3.8772 c 0,1.1008 0.87632,1.9985 1.9586,1.9985 h 7.5944 c 1.0823,0 1.9586,-0.89779 1.9586,-1.9985 v -3.8772 c 1.9351,-0.5156 3.7842,-1.2944 5.476,-2.2783 l 2.758,2.758 c 0.77835,0.77835 1.9927,0.80524 2.758,0.03997 l 5.3961,-5.3961 c 0.76526,-0.76527 0.73838,-1.9796 -0.03989,-2.758 l -2.758,-2.758 c 0.98393,-1.6918 1.7627,-3.5408 2.2783,-5.476 h 3.8772 c 1.1007,0 1.9985,-0.87631 1.9985,-1.9586 v -7.5944 c 0,-1.0823 -0.89779,-1.9586 -1.9985,-1.9586 h -3.8772 c -0.514,-1.934 -1.293,-3.783 -2.277,-5.475 l 2.758,-2.758 c 0.77835,-0.77835 0.80524,-1.9927 0.03989,-2.758 l -5.3961,-5.3961 c -0.76527,-0.76527 -1.9796,-0.73838 -2.758,0.03997 l -2.758,2.758 c -1.6918,-0.98394 -3.5408,-1.7627 -5.476,-2.2783 v -3.8772 c 0,-1.1008 -0.87631,-1.9985 -1.9586,-1.9985 h -7.5944 z m 3.7972,19.186 c 4.5893,0 8.3139,3.7246 8.3139,8.3139 0,4.5893 -3.7246,8.3139 -8.3139,8.3139 -4.5893,0 -8.3139,-3.7246 -8.3139,-8.3139 0,-4.5893 3.7246,-8.3139 8.3139,-8.3139 z"
       display="block"
       stroke="url(#o)"
       fill="url(#p)"
       id="path40"
       style="fill:url(#p);stroke:url(#o)" />
    <path
       d="m 48,29.733 c -9.5212,0 -17.267,7.7461 -17.267,17.267 0,9.5212 7.7461,17.267 17.267,17.267 9.5212,0 17.267,-7.7461 17.267,-17.267 0,-9.5212 -7.7462,-17.267 -17.267,-17.267 z"
       stroke="url(#q)"
       stroke-width="2"
       fill="none"
       id="path41"
       style="stroke:url(#q)" />
    <path
       opacity="0.05"
       d="m 48,30.372 c -9.1688,0 -16.628,7.4591 -16.628,16.628 0,9.1687 7.4591,16.628 16.628,16.628 9.1688,-2e-6 16.628,-7.4591 16.628,-16.628 0,-9.1687 -7.4591,-16.628 -16.628,-16.628 z m 0,7.6744 c 4.9423,0 8.9535,4.0111 8.9535,8.9535 0,4.9423 -4.0112,8.9535 -8.9535,8.9535 -4.9423,0 -8.9535,-4.0111 -8.9535,-8.9535 0,-4.9423 4.0112,-8.9535 8.9535,-8.9535 z"
       id="path42" />
  </g>
</svg>
