<?xml version="1.0" encoding="UTF-8" standalone="no"?>
<svg
   height="48"
   width="48"
   version="1.1"
   id="svg49"
   sodipodi:docname="login_window.svg"
   inkscape:version="1.4 (e7c3feb, 2024-10-09)"
   xmlns:inkscape="http://www.inkscape.org/namespaces/inkscape"
   xmlns:sodipodi="http://sodipodi.sourceforge.net/DTD/sodipodi-0.dtd"
   xmlns:xlink="http://www.w3.org/1999/xlink"
   xmlns="http://www.w3.org/2000/svg"
   xmlns:svg="http://www.w3.org/2000/svg">
  <sodipodi:namedview
     id="namedview49"
     pagecolor="#ffffff"
     bordercolor="#111111"
     borderopacity="1"
     inkscape:showpageshadow="0"
     inkscape:pageopacity="0"
     inkscape:pagecheckerboard="1"
     inkscape:deskcolor="#d1d1d1"
     inkscape:zoom="6.7064659"
     inkscape:cx="48.087921"
     inkscape:cy="48.087921"
     inkscape:window-width="3840"
     inkscape:window-height="2072"
     inkscape:window-x="0"
     inkscape:window-y="0"
     inkscape:window-maximized="1"
     inkscape:current-layer="svg49" />
  <defs
     id="defs18">
    <linearGradient
       id="d"
       stop-color="#ffffff">
      <stop
         offset="0"
         id="stop1" />
      <stop
         stop-opacity="0"
         offset="1"
         id="stop2" />
    </linearGradient>
    <linearGradient
       id="c"
       y2="7.0165"
       gradientUnits="userSpaceOnUse"
       x2="45.448002"
       gradientTransform="matrix(1.0059,0,0,0.99417,100,0)"
       y1="92.540001"
       x1="45.448002">
      <stop
         offset="0"
         id="stop3" />
      <stop
         stop-opacity=".58824"
         offset="1"
         id="stop4" />
    </linearGradient>
    <radialGradient
       id="g"
       gradientUnits="userSpaceOnUse"
       cy="-15.871"
       cx="56.066002"
       gradientTransform="matrix(-0.0022617,-1.2346,1.3856,0,70.085,140.27)"
       r="35.938">
      <stop
         stop-color="#80a2c8"
         offset="0"
         id="stop5" />
      <stop
         stop-color="#2e4c6d"
         offset="1"
         id="stop6" />
    </radialGradient>
    <radialGradient
       id="f"
       gradientUnits="userSpaceOnUse"
       cy="80.843002"
       cx="47.098"
       gradientTransform="matrix(1.3113,-5.2817e-8,4.5812e-8,1.1374,-14.662,-10.848)"
       r="38.957001">
      <stop
         stop-color="#2fc044"
         offset="0"
         id="stop7" />
      <stop
         stop-color="#246d2f"
         offset="1"
         id="stop8" />
    </radialGradient>
    <linearGradient
       id="p"
       y2="69.688004"
       xlink:href="#d"
       gradientUnits="userSpaceOnUse"
       x2="65.155998"
       y1="16.125"
       x1="65.155998" />
    <linearGradient
       id="o"
       y2="69.688004"
       gradientUnits="userSpaceOnUse"
       x2="65.155998"
       y1="16.125"
       x1="65.155998">
      <stop
         stop-color="#9cb7d2"
         offset="0"
         id="stop9" />
      <stop
         stop-color="#e7edf3"
         stop-opacity="0"
         offset="1"
         id="stop10" />
    </linearGradient>
    <linearGradient
       id="n"
       stop-color="#ffffff"
       y2="72.765999"
       gradientUnits="userSpaceOnUse"
       x2="76.450996"
       y1="8.0625"
       x1="76.450996">
      <stop
         offset="0"
         id="stop11" />
      <stop
         stop-opacity="0"
         offset="1"
         id="stop12" />
    </linearGradient>
    <radialGradient
       id="e"
       stop-color="#ffffff"
       gradientUnits="userSpaceOnUse"
       cy="90.171997"
       cx="48"
       gradientTransform="matrix(1.1573,0,0,0.99591,-7.551,0.19713)"
       r="42">
      <stop
         offset="0"
         id="stop13" />
      <stop
         stop-opacity="0"
         offset="1"
         id="stop14" />
    </radialGradient>
    <linearGradient
       id="m"
       y2="83.294998"
       gradientUnits="userSpaceOnUse"
       x2="43.179001"
       gradientTransform="matrix(1.0294,0,0,1.0294,-1.4118,-1.4118)"
       y1="13"
       x1="43.179001">
      <stop
         stop-color="#919191"
         offset="0"
         id="stop15" />
      <stop
         stop-color="#fdfdfd"
         offset="1"
         id="stop16" />
    </linearGradient>
    <linearGradient
       id="l"
       y2="63.893002"
       xlink:href="#d"
       gradientUnits="userSpaceOnUse"
       x2="36.356998"
       y1="6"
       x1="36.356998" />
    <linearGradient
       id="k"
       y2="5.9877"
       gradientUnits="userSpaceOnUse"
       x2="48"
       y1="90"
       x1="48">
      <stop
         stop-color="#b4b4b4"
         offset="0"
         id="stop17" />
      <stop
         stop-color="#e6e6e6"
         offset="1"
         id="stop18" />
    </linearGradient>
    <linearGradient
       id="j"
       y2="6"
       xlink:href="#c"
       gradientUnits="userSpaceOnUse"
       x2="32.250999"
       gradientTransform="translate(0,1)"
       y1="90"
       x1="32.250999" />
    <linearGradient
       id="i"
       y2="5.9995999"
       xlink:href="#c"
       gradientUnits="userSpaceOnUse"
       x2="32.250999"
       gradientTransform="matrix(1.0238,0,0,1.0119,-1.1429,0.929)"
       y1="90"
       x1="32.250999" />
    <linearGradient
       id="h"
       y2="90.238998"
       xlink:href="#c"
       gradientUnits="userSpaceOnUse"
       x2="32.250999"
       gradientTransform="matrix(1.0238,0,0,-1.0119,-1.1429,98.071)"
       y1="6.1317"
       x1="32.250999" />
  </defs>
  <g
     id="g51"
     transform="matrix(0.49075183,0,0,0.49075183,0.70448998,0.08277812)">
    <g
       fill="url(#h)"
       id="g20"
       style="fill:url(#h)" />
    <g
       id="g50">
      <path
         opacity="0.08"
         d="M 12,95.031 C 6.4889,95.031 1.969,90.511 1.969,85 V 14 C 1.969,8.4889 6.4892,3.969 12,3.969 h 72 c 5.5111,0 10.031,4.5202 10.031,10.031 v 71 c 0,5.5111 -4.5202,10.031 -10.031,10.031 z"
         id="path18" />
      <path
         opacity="0.1"
         d="m 12,94.031 c -4.9716,0 -9.0312,-4.0596 -9.0312,-9.0312 v -71 C 2.9688,9.028 7.0284,4.9684 12,4.9684 h 72 c 4.9716,0 9.0312,4.0596 9.0312,9.0312 v 71 c 0,4.9716 -4.0596,9.0312 -9.0312,9.0312 H 12 Z"
         id="path19" />
      <path
         opacity="0.2"
         d="M 12,93 C 7.5909,93 4,89.409 4,85 V 14 C 4,9.5909 7.5909,6 12,6 h 72 c 4.4091,0 8,3.5909 8,8 v 71 c 0,4.4091 -3.5909,8 -8,8 z"
         id="path20" />
      <rect
         opacity="0.3"
         rx="7"
         ry="7"
         height="85"
         width="86"
         y="7"
         x="5"
         fill="url(#i)"
         id="rect20"
         style="fill:url(#i)" />
      <rect
         opacity="0.45"
         rx="6"
         ry="6"
         height="84"
         width="84"
         y="7"
         x="6"
         fill="url(#j)"
         id="rect21"
         style="fill:url(#j)" />
      <rect
         rx="5.8527999"
         ry="6.1732998"
         height="78.515999"
         width="77.915001"
         y="8.2544003"
         x="8.1408997"
         fill="url(#f)"
         id="rect22"
         style="fill:url(#f)" />
      <path
         d="M 83.937,83.875 V 12.006 h -71.94 v 71.869 z"
         fill="url(#g)"
         id="path22"
         style="fill:url(#g)" />
      <g
         fill="#ffffff"
         id="g25">
        <rect
           opacity="0.2"
           height="10"
           width="72"
           y="72"
           x="12"
           id="rect23" />
        <rect
           opacity="0.3"
           rx="3.5197999"
           ry="4.0226998"
           height="32"
           width="44"
           y="30"
           x="26"
           id="rect24" />
        <rect
           rx="2"
           ry="2"
           height="12"
           width="34"
           y="43"
           x="31"
           id="rect25" />
      </g>
      <path
         d="m 33,42.031 c -1.6208,0 -2.9688,1.348 -2.9688,2.9688 v 8 c 0,1.6208 1.348,2.9688 2.9688,2.9688 h 30 c 1.6208,0 2.9688,-1.348 2.9688,-2.9688 v -8 c 0,-1.621 -1.348,-2.969 -2.969,-2.969 h -30 z m 0,2.0312 h 30 c 0.50058,0 0.9375,0.43692 0.9375,0.9375 v 8 c 0,0.50058 -0.43692,0.9375 -0.9375,0.9375 H 33 c -0.50058,0 -0.9375,-0.43692 -0.9375,-0.9375 v -8 c 0,-0.50058 0.43692,-0.9375 0.9375,-0.9375 z"
         fill="#2e4c6d"
         id="path25" />
      <path
         opacity="0.3"
         d="m 33,44.062 c -0.50058,0 -0.9375,0.43692 -0.9375,0.9375 v 8 c 0,0.30992 0.19112,0.57746 0.4375,0.75 v -7.75 c 0,-0.50058 0.42139,-0.9375 0.90625,-0.9375 h 29.188 c 0.485,0 0.906,0.437 0.906,0.938 v 7.75 c 0.24638,-0.17254 0.4375,-0.44008 0.4375,-0.75 v -8 c 0,-0.50058 -0.43692,-0.9375 -0.9375,-0.9375 h -30 z"
         id="path26" />
      <path
         d="m 40,49 a 2.5,2.5 0 1 1 -5,0 2.5,2.5 0 1 1 5,0 z"
         id="path27" />
      <path
         d="m 47,49 a 2.5,2.5 0 1 1 -5,0 2.5,2.5 0 1 1 5,0 z"
         id="path28" />
      <path
         d="m 54,49 a 2.5,2.5 0 1 1 -5,0 2.5,2.5 0 1 1 5,0 z"
         id="path29" />
      <path
         d="m 61,49 a 2.5,2.5 0 1 1 -5,0 2.5,2.5 0 1 1 5,0 z"
         id="path30" />
      <g
         fill="#ffffff"
         id="g39">
        <path
           d="m 32.549,35.65 c -3e-6,0.14341 -0.02416,0.27747 -0.07249,0.40218 -0.04677,0.12315 -0.11769,0.23071 -0.21278,0.32268 -0.09353,0.09041 -0.21122,0.16212 -0.35307,0.21512 -0.14186,0.053 -0.30709,0.0795 -0.4957,0.0795 h -0.96803 v 1.2837 h -0.4466 v -3.2946 h 1.3866 c 0.19485,3e-6 0.36476,0.02416 0.50973,0.07248 0.14497,0.04677 0.26578,0.1138 0.36242,0.20109 0.09664,0.08574 0.16913,0.19018 0.21746,0.31332 0.04832,0.12159 0.07248,0.25643 0.07249,0.40451 m -0.44894,0.0047 c -2e-6,-0.20888 -0.06391,-0.3671 -0.19173,-0.47466 -0.12782,-0.10912 -0.31956,-0.16367 -0.5752,-0.16368 h -0.88619 v 1.3001 h 0.9049 c 0.2572,2e-6 0.44582,-0.05689 0.56585,-0.17069 0.12158,-0.11379 0.18238,-0.27747 0.18238,-0.49103"
           id="path31" />
        <path
           d="m 33.774,38 c -0.25409,0 -0.44504,-0.06703 -0.57287,-0.20109 -0.12782,-0.13406 -0.19174,-0.318 -0.19174,-0.55182 0,-0.16679 0.03118,-0.30319 0.09353,-0.40919 0.06391,-0.10756 0.14653,-0.19173 0.24785,-0.25253 0.10288,-0.06079 0.21979,-0.10288 0.35074,-0.12626 0.13094,-0.02338 0.26422,-0.03663 0.39984,-0.03975 l 0.56819,-0.0094 v -0.138 c -2e-6,-0.10444 -0.01091,-0.19329 -0.03274,-0.26656 -0.02183,-0.07326 -0.05534,-0.1325 -0.10054,-0.1777 -0.04521,-0.0452 -0.1021,-0.07794 -0.17069,-0.09821 -0.06703,-0.02182 -0.14653,-0.03273 -0.2385,-0.03274 -0.08106,2e-6 -0.15432,0.0062 -0.21979,0.01871 -0.06547,0.01091 -0.12237,0.03196 -0.17069,0.06313 -0.04832,0.02962 -0.0873,0.07093 -0.11691,0.12393 -0.02962,0.05144 -0.0491,0.11691 -0.05846,0.19641 l -0.43959,-0.03975 c 0.01559,-0.09976 0.04521,-0.19095 0.08885,-0.27357 0.04365,-0.08417 0.10522,-0.15666 0.18472,-0.21746 0.08106,-0.06079 0.1816,-0.10756 0.30163,-0.14029 0.12159,-0.03429 0.26812,-0.05144 0.43959,-0.05144 0.318,2e-6 0.55728,0.07327 0.71784,0.21979 0.16056,0.14497 0.24084,0.35541 0.24084,0.63132 v 1.0896 c -2e-6,0.12471 0.01637,0.21901 0.0491,0.28292 0.03273,0.06235 0.09509,0.09353 0.18706,0.09353 0.02338,0 0.04676,-0.0016 0.07015,-0.0047 0.02338,-0.0031 0.04598,-0.007 0.06781,-0.01169 v 0.26188 c -0.053,0.01247 -0.106,0.02182 -0.159,0.02806 -0.05144,0.0062 -0.10678,0.0094 -0.16601,0.0094 -0.0795,0 -0.14809,-0.01013 -0.20576,-0.0304 -0.05612,-0.02182 -0.1021,-0.05378 -0.13796,-0.09587 -0.03585,-0.04365 -0.06313,-0.09665 -0.08184,-0.159 -0.01871,-0.06391 -0.0304,-0.13796 -0.03507,-0.22213 h -0.01403 c -0.04521,0.08106 -0.09509,0.15432 -0.14965,0.21979 -0.053,0.06547 -0.11535,0.12159 -0.18706,0.16835 -0.07171,0.04521 -0.15354,0.08028 -0.24551,0.10522 -0.09041,0.02494 -0.19485,0.03741 -0.31332,0.03741 m 0.09587,-0.31566 c 0.13406,0 0.25097,-0.02416 0.35073,-0.07249 0.10132,-0.04988 0.18472,-0.11301 0.25019,-0.1894 0.06703,-0.07638 0.11691,-0.15978 0.14965,-0.25019 0.03273,-0.09041 0.0491,-0.17692 0.0491,-0.25954 v -0.2081 l -0.46063,0.0094 c -0.10288,0.0016 -0.20109,0.0094 -0.29462,0.02338 -0.09197,0.01247 -0.17303,0.03819 -0.24318,0.07716 -0.07015,0.03897 -0.12626,0.09353 -0.16835,0.16368 -0.04053,0.07015 -0.06079,0.16212 -0.06079,0.27591 0,0.13718 0.03663,0.24318 0.1099,0.318 0.07482,0.07482 0.18082,0.11224 0.318,0.11224"
           id="path32" />
        <path
           d="m 37.693,37.254 c -3e-6,0.11847 -0.02338,0.22447 -0.07015,0.318 -0.04521,0.09197 -0.11146,0.16991 -0.19875,0.23382 -0.0873,0.06235 -0.19485,0.11068 -0.32268,0.14497 -0.12627,0.03274 -0.27124,0.0491 -0.43491,0.0491 -0.14653,0 -0.27903,-0.01169 -0.3975,-0.03507 -0.117,-0.022 -0.22,-0.058 -0.309,-0.108 -0.088,-0.05 -0.163,-0.115 -0.224,-0.196 -0.059,-0.083 -0.103,-0.183 -0.131,-0.302 l 0.37178,-0.07249 c 0.03585,0.13562 0.1099,0.23538 0.22213,0.29929 0.11223,0.06235 0.26812,0.09353 0.46765,0.09353 0.09041,0 0.17303,-0.0062 0.24785,-0.01871 0.07638,-0.01247 0.14185,-0.03351 0.19641,-0.06313 0.05456,-0.03118 0.09664,-0.07171 0.12626,-0.12159 0.03117,-0.05144 0.04676,-0.11457 0.04677,-0.1894 -2e-6,-0.07638 -0.01793,-0.13873 -0.05378,-0.18706 -0.03585,-0.04988 -0.08574,-0.09119 -0.14965,-0.12393 -0.06391,-0.03274 -0.14185,-0.06079 -0.23382,-0.08418 -0.09041,-0.02494 -0.19018,-0.05222 -0.29929,-0.08184 -0.10132,-0.0265 -0.20187,-0.05612 -0.30163,-0.08885 -0.09977,-0.03273 -0.19018,-0.0756 -0.27124,-0.1286 -0.0795,-0.05456 -0.14419,-0.12159 -0.19407,-0.20109 -0.04988,-0.0795 -0.07482,-0.17926 -0.07482,-0.29929 0,-0.2307 0.08184,-0.40607 0.24551,-0.5261 0.16523,-0.12158 0.40529,-0.18238 0.72017,-0.18238 0.27903,3e-6 0.50038,0.04911 0.66406,0.14731 0.16523,0.09821 0.26967,0.25565 0.31332,0.47232 l -0.37879,0.04676 c -0.01403,-0.06547 -0.03975,-0.12003 -0.07716,-0.16368 -0.03741,-0.0452 -0.08262,-0.08106 -0.13562,-0.10756 -0.053,-0.02806 -0.11302,-0.04754 -0.18004,-0.05846 -0.06547,-0.01247 -0.13406,-0.0187 -0.20576,-0.01871 -0.19018,3e-6 -0.33047,0.02884 -0.42088,0.08651 -0.09041,0.05768 -0.13562,0.14497 -0.13562,0.26188 -10e-7,0.06859 0.01637,0.12549 0.0491,0.17069 0.03429,0.04365 0.08106,0.08106 0.14029,0.11224 0.06079,0.02962 0.13328,0.05612 0.21746,0.0795 0.08418,0.02182 0.17692,0.04521 0.27825,0.07015 0.06703,0.01715 0.13562,0.03585 0.20576,0.05612 0.07014,0.01871 0.13795,0.04209 0.20342,0.07015 0.06703,0.0265 0.12938,0.05846 0.18706,0.09587 0.05923,0.03585 0.11067,0.0795 0.15432,0.13094 0.04364,0.05144 0.07794,0.11146 0.10288,0.18004 0.0265,0.06859 0.03975,0.14809 0.03975,0.2385"
           id="path33" />
        <path
           d="m 40.087,37.254 c -2e-6,0.11847 -0.02338,0.22447 -0.07015,0.318 -0.04521,0.09197 -0.11146,0.16991 -0.19875,0.23382 -0.0873,0.06235 -0.19485,0.11068 -0.32268,0.14497 -0.12627,0.03274 -0.27124,0.0491 -0.43491,0.0491 -0.14653,0 -0.27903,-0.01169 -0.3975,-0.03507 -0.117,-0.022 -0.22,-0.058 -0.309,-0.108 -0.088,-0.05 -0.163,-0.115 -0.224,-0.196 -0.059,-0.083 -0.103,-0.183 -0.131,-0.302 l 0.37178,-0.07249 c 0.03585,0.13562 0.1099,0.23538 0.22213,0.29929 0.11223,0.06235 0.26812,0.09353 0.46764,0.09353 0.09041,0 0.17303,-0.0062 0.24785,-0.01871 0.07638,-0.01247 0.14185,-0.03351 0.19641,-0.06313 0.05456,-0.03118 0.09664,-0.07171 0.12626,-0.12159 0.03117,-0.05144 0.04676,-0.11457 0.04676,-0.1894 -1e-6,-0.07638 -0.01793,-0.13873 -0.05378,-0.18706 -0.03585,-0.04988 -0.08574,-0.09119 -0.14965,-0.12393 -0.06391,-0.03274 -0.14185,-0.06079 -0.23382,-0.08418 -0.09041,-0.02494 -0.19018,-0.05222 -0.29929,-0.08184 -0.10132,-0.0265 -0.20187,-0.05612 -0.30163,-0.08885 -0.09977,-0.03273 -0.19018,-0.0756 -0.27123,-0.1286 -0.0795,-0.05456 -0.14419,-0.12159 -0.19407,-0.20109 -0.04988,-0.0795 -0.07482,-0.17926 -0.07482,-0.29929 -10e-7,-0.2307 0.08184,-0.40607 0.24551,-0.5261 0.16523,-0.12158 0.40529,-0.18238 0.72017,-0.18238 0.27903,3e-6 0.50038,0.04911 0.66406,0.14731 0.16523,0.09821 0.26967,0.25565 0.31332,0.47232 l -0.37879,0.04676 c -0.01403,-0.06547 -0.03975,-0.12003 -0.07716,-0.16368 -0.03741,-0.0452 -0.08262,-0.08106 -0.13562,-0.10756 -0.053,-0.02806 -0.11302,-0.04754 -0.18004,-0.05846 -0.06547,-0.01247 -0.13406,-0.0187 -0.20576,-0.01871 -0.19018,3e-6 -0.33047,0.02884 -0.42088,0.08651 -0.09041,0.05768 -0.13562,0.14497 -0.13562,0.26188 -1e-6,0.06859 0.01637,0.12549 0.0491,0.17069 0.03429,0.04365 0.08106,0.08106 0.14029,0.11224 0.06079,0.02962 0.13328,0.05612 0.21746,0.0795 0.08418,0.02182 0.17692,0.04521 0.27825,0.07015 0.06703,0.01715 0.13562,0.03585 0.20576,0.05612 0.07015,0.01871 0.13795,0.04209 0.20343,0.07015 0.06703,0.0265 0.12938,0.05846 0.18706,0.09587 0.05923,0.03585 0.11067,0.0795 0.15432,0.13094 0.04364,0.05144 0.07794,0.11146 0.10288,0.18004 0.0265,0.06859 0.03975,0.14809 0.03975,0.2385"
           id="path34" />
        <path
           d="m 43.005,37.953 h -0.489 l -0.404,-1.632 c -0.01247,-0.04209 -0.02572,-0.09431 -0.03975,-0.15666 -0.01247,-0.06235 -0.02494,-0.12314 -0.03741,-0.18238 -0.01559,-0.06859 -0.0304,-0.13951 -0.04443,-0.21278 -0.01403,0.07015 -0.02884,0.13952 -0.04443,0.2081 -0.01247,0.05924 -0.0265,0.12081 -0.04209,0.18472 -0.01403,0.06391 -0.02728,0.12003 -0.03975,0.16835 l -0.4162,1.6227 h -0.48635 l -0.70848,-2.53 h 0.4162 l 0.4279,1.7186 c 0.01091,0.03585 0.02182,0.08028 0.03274,0.13328 0.01091,0.05144 0.02182,0.1021 0.03273,0.15198 0.01091,0.05768 0.0226,0.11691 0.03507,0.1777 0.01247,-0.05924 0.02572,-0.11691 0.03975,-0.17303 0.01247,-0.04832 0.02494,-0.09743 0.03741,-0.14731 0.01247,-0.04988 0.02338,-0.09119 0.03274,-0.12393 l 0.45829,-1.7373 h 0.45128 l 0.44192,1.7373 c 0.01091,0.04053 0.0226,0.08651 0.03507,0.13796 0.01247,0.05144 0.02416,0.09977 0.03507,0.14497 0.01247,0.053 0.02494,0.10678 0.03741,0.16134 0.01247,-0.05924 0.02494,-0.11691 0.03741,-0.17303 0.01091,-0.04832 0.02182,-0.09821 0.03274,-0.14965 0.01247,-0.053 0.02416,-0.09976 0.03507,-0.14029 l 0.4466,-1.7186 h 0.41153 l -0.72485,2.53"
           id="path35" />
        <path
           d="m 46.183,36.686 c -2e-6,0.44271 -0.09743,0.7724 -0.29228,0.98907 -0.19486,0.21668 -0.47778,0.32501 -0.84878,0.32501 -0.17615,0 -0.33359,-0.0265 -0.47232,-0.0795 -0.13874,-0.053 -0.25643,-0.13406 -0.35307,-0.24318 -0.09509,-0.10912 -0.16835,-0.24551 -0.21979,-0.40919 -0.04988,-0.16523 -0.07482,-0.35931 -0.07482,-0.58222 0,-0.87294 0.37801,-1.3094 1.134,-1.3094 0.19641,2e-6 0.36554,0.02728 0.5074,0.08184 0.14341,0.05456 0.26032,0.1364 0.35073,0.24551 0.09197,0.10912 0.15978,0.24552 0.20343,0.40919 0.04364,0.16368 0.06547,0.35463 0.06547,0.57286 m -0.44192,0 c -2e-6,-0.19641 -0.01559,-0.35853 -0.04677,-0.48635 -0.02962,-0.12782 -0.07404,-0.22992 -0.13328,-0.30631 -0.05768,-0.07638 -0.1286,-0.12938 -0.21278,-0.159 -0.08418,-0.03117 -0.17927,-0.04676 -0.28526,-0.04677 -0.10756,2e-6 -0.20499,0.01637 -0.29228,0.0491 -0.08574,0.03118 -0.159,0.08574 -0.21979,0.16368 -0.0608,0.07638 -0.10756,0.17849 -0.14029,0.30631 -0.03118,0.12782 -0.04677,0.2876 -0.04676,0.47934 -1e-6,0.19641 0.01715,0.35931 0.05144,0.48869 0.03429,0.12782 0.08106,0.22993 0.14029,0.30631 0.06079,0.07638 0.13172,0.13016 0.21278,0.16134 0.08262,0.03118 0.17225,0.04676 0.2689,0.04676 0.10756,0 0.20498,-0.01481 0.29228,-0.04443 0.08729,-0.03118 0.16134,-0.08495 0.22213,-0.16134 0.06079,-0.07638 0.10756,-0.17926 0.14029,-0.30865 0.03273,-0.12938 0.0491,-0.29228 0.0491,-0.48869"
           id="path36" />
        <path
           d="m 46.718,37.953 v -1.9407 c 0,-0.053 -7.79e-4,-0.10678 -0.0023,-0.16134 0,-0.05611 -7.8e-4,-0.10989 -0.0023,-0.16134 -0.0016,-0.05144 -0.0031,-0.09976 -0.0047,-0.14497 -0.0016,-0.0452 -0.0031,-0.08573 -0.0047,-0.12159 h 0.3975 c 0.0016,0.03586 0.0031,0.07716 0.0047,0.12393 0.0031,0.04521 0.0055,0.09197 0.007,0.14029 0.0031,0.04833 0.0047,0.09509 0.0047,0.14029 0.0016,0.04365 0.0023,0.08106 0.0023,0.11224 h 0.0094 c 0.02962,-0.09665 0.06079,-0.18004 0.09353,-0.25019 0.03429,-0.0717 0.07404,-0.13016 0.11925,-0.17537 0.0452,-0.04676 0.09898,-0.08106 0.16134,-0.10288 0.06235,-0.02338 0.13795,-0.03507 0.22681,-0.03507 0.03429,2e-6 0.06703,0.0031 0.09821,0.0094 0.03117,0.0047 0.05534,0.0094 0.07249,0.01403 v 0.38581 c -0.02806,-0.0078 -0.0608,-0.01325 -0.09821,-0.01637 -0.03741,-0.0047 -0.0795,-0.007 -0.12626,-0.007 -0.09665,3e-6 -0.17927,0.02183 -0.24785,0.06547 -0.06703,0.04365 -0.12237,0.10444 -0.16602,0.18238 -0.04209,0.07638 -0.07326,0.16836 -0.09353,0.27591 -0.02027,0.106 -0.0304,0.22213 -0.0304,0.3484 v 1.3188 h -0.42088"
           id="path37" />
        <path
           d="m 49.905,37.546 c -0.07794,0.16212 -0.1816,0.27825 -0.31098,0.3484 -0.12782,0.07015 -0.28682,0.10522 -0.477,0.10522 -0.31956,0 -0.55494,-0.10756 -0.70614,-0.32268 -0.14965,-0.21512 -0.22447,-0.54091 -0.22447,-0.97738 -1e-6,-0.88229 0.3102,-1.3234 0.93061,-1.3234 0.19173,2e-6 0.35151,0.03508 0.47934,0.10522 0.12782,0.07015 0.2307,0.1816 0.30865,0.33437 h 0.0047 c -2e-6,-0.01559 -7.82e-4,-0.03975 -0.0023,-0.07249 -2e-6,-0.03429 -7.81e-4,-0.06937 -0.0023,-0.10522 -2e-6,-0.03741 -2e-6,-0.07248 0,-0.10522 -2e-6,-0.03273 -2e-6,-0.05611 0,-0.07015 v -0.97972 h 0.42088 v 2.9485 c -2e-6,0.06079 -2e-6,0.11925 0,0.17537 0.0016,0.05612 0.0031,0.10756 0.0047,0.15432 0.0016,0.04677 0.0031,0.08729 0.0047,0.12159 0.0016,0.03273 0.0031,0.05612 0.0047,0.07015 h -0.40218 c -0.0031,-0.01559 -0.0062,-0.03741 -0.0094,-0.06547 -0.0016,-0.02962 -0.0039,-0.06313 -0.007,-0.10054 -0.0016,-0.03741 -0.0031,-0.07638 -0.0047,-0.11691 -0.0016,-0.04209 -0.0023,-0.0834 -0.0023,-0.12393 h -0.0094 m -1.277,-0.86 c -10e-7,0.17459 0.01091,0.32424 0.03274,0.44894 0.02182,0.12471 0.0569,0.22759 0.10522,0.30865 0.04832,0.0795 0.1099,0.13796 0.18472,0.17537 0.07482,0.03741 0.16601,0.05612 0.27357,0.05612 0.11068,0 0.2081,-0.01793 0.29228,-0.05378 0.08573,-0.03585 0.15666,-0.09353 0.21278,-0.17303 0.05767,-0.08106 0.10132,-0.18628 0.13094,-0.31566 0.02961,-0.12938 0.04442,-0.2876 0.04443,-0.47466 -2e-6,-0.17926 -0.01481,-0.33047 -0.04443,-0.45362 -0.02962,-0.1247 -0.07327,-0.22525 -0.13094,-0.30163 -0.05768,-0.07638 -0.1286,-0.13094 -0.21278,-0.16368 -0.08262,-0.03429 -0.17849,-0.05144 -0.2876,-0.05144 -0.10288,2e-6 -0.19174,0.01793 -0.26656,0.05378 -0.07482,0.03586 -0.13718,0.09353 -0.18706,0.17303 -0.04988,0.0795 -0.0873,0.18316 -0.11224,0.31098 -0.02338,0.12627 -0.03507,0.27981 -0.03507,0.46063"
           id="path38" />
        <path
           d="m 52.417,35.907 v -0.48401 h 0.45595 v 0.484 h -0.456 m 0,2.046 v -0.48401 h 0.45595 v 0.484 h -0.456"
           id="path39" />
      </g>
      <path
         opacity="0.08"
         d="m 19,13 c -3.2894,0 -6,2.7106 -6,6 v 58 c 0,3.2894 2.7106,6 6,6 h 58 c 3.2894,0 6,-2.7106 6,-6 V 19 c 0,-3.2894 -2.7106,-6 -6,-6 z m 0,4 h 58 c 1.1426,0 2,0.85741 2,2 v 58 c 0,1.1426 -0.85741,2 -2,2 H 19 c -1.1426,0 -2,-0.85741 -2,-2 V 19 c 0,-1.1426 0.85741,-2 2,-2 z"
         id="path40" />
      <path
         opacity="0.3"
         d="M 29.531,30 C 27.581,30 26,31.803 26,34.031 V 57.969 C 26,60.197 27.581,62 29.531,62 H 66.469 C 68.419,62 70,60.197 70,57.969 V 34.031 C 70,31.803 68.419,30 66.469,30 Z m 0,1 H 66.469 C 67.796,31 69,32.281 69,34.031 V 57.969 C 69,59.719 67.796,61 66.469,61 H 29.531 C 28.204,61 27,59.719 27,57.969 V 34.031 C 27,32.281 28.204,31 29.531,31 Z"
         fill="#ffffff"
         id="path41" />
      <path
         opacity="0.1"
         style="color:#000000;enable-background:accumulate"
         d="m 17,14 c -1.662,0 -3,1.338 -3,3 v 62 c 0,1.662 1.338,3 3,3 h 62 c 1.662,0 3,-1.338 3,-3 V 17 c 0,-1.662 -1.338,-3 -3,-3 z m 0,1.9375 h 62 c 0.61816,0 1.0625,0.44434 1.0625,1.0625 v 62 c 0,0.61816 -0.44434,1.0625 -1.0625,1.0625 H 17 c -0.61816,0 -1.0625,-0.44434 -1.0625,-1.0625 V 17 c 0,-0.61816 0.44434,-1.0625 1.0625,-1.0625 z"
         id="path42" />
      <path
         opacity="0.25"
         style="color:#000000;enable-background:accumulate"
         d="m 17,14 c -1.662,0 -3,1.338 -3,3 v 62 c 0,1.662 1.338,3 3,3 h 62 c 1.662,0 3,-1.338 3,-3 V 17 c 0,-1.662 -1.338,-3 -3,-3 z m 0,0.96875 h 62 c 1.1401,0 2.0312,0.89117 2.0312,2.0312 v 62 c 0,1.1401 -0.89117,2.0312 -2.0312,2.0312 H 17 c -1.1401,0 -2.0312,-0.89117 -2.0312,-2.0312 v -62 c 0,-1.1401 0.89117,-2.0312 2.0312,-2.0312 z"
         id="path43" />
      <path
         d="M 12,6 C 8.676,6 6,8.676 6,12 v 72 c 0,3.324 2.676,6 6,6 h 72 c 3.324,0 6,-2.676 6,-6 V 12 C 90,8.676 87.324,6 84,6 Z m 5,8 h 62 c 1.6838,0 3,1.3162 3,3 v 62 c 10e-7,1.6838 -1.3162,3 -3,3 H 17 c -1.6838,10e-7 -3,-1.3162 -3,-3 V 17 c 0,-1.6838 1.3162,-3 3,-3 z"
         fill="url(#k)"
         id="path44"
         style="fill:url(#k)" />
      <path
         opacity="0.7"
         d="M 12,6 C 8.676,6 6,8.676 6,12 v 72 c 0,0.33472 0.04135,0.6507 0.09375,0.96875 0.0487,0.2956 0.09704,0.59692 0.1875,0.875 0.00988,0.03038 0.020892,0.0636 0.03125,0.09375 0.098865,0.28777 0.23488,0.54745 0.375,0.8125 0.14459,0.27351 0.31562,0.53562 0.5,0.78125 0.18438,0.24564 0.37378,0.47347 0.59375,0.6875 0.43995,0.42806 0.94291,0.81453 1.5,1.0938 0.27854,0.13961 0.57347,0.24695 0.875,0.34375 -0.2562,-0.10022 -0.48671,-0.23627 -0.71875,-0.375 -0.00741,-0.0044 -0.023866,0.0045 -0.03125,0 -0.0319,-0.019 -0.0622,-0.042 -0.0937,-0.062 -0.1204,-0.077 -0.231,-0.164 -0.3437,-0.25 -0.1062,-0.081 -0.2133,-0.161 -0.3126,-0.25 -0.1778,-0.162 -0.3473,-0.346 -0.4999,-0.531 -0.1075,-0.131 -0.2183,-0.266 -0.3124,-0.407 -0.0251,-0.038 -0.0385,-0.086 -0.0626,-0.125 -0.0647,-0.103 -0.1302,-0.204 -0.1874,-0.312 -0.1011,-0.195 -0.2057,-0.416 -0.2813,-0.625 -0.008,-0.022 -0.0236,-0.041 -0.0313,-0.063 -0.0318,-0.092 -0.0358,-0.187 -0.0624,-0.281 -0.0304,-0.107 -0.0704,-0.203 -0.0938,-0.313 -0.0729,-0.341 -0.125,-0.698 -0.125,-1.062 v -72 c 0,-2.782 2.2182,-5 5,-5 h 72 c 2.7818,0 5,2.2182 5,5 v 72 c 0,0.3643 -0.05212,0.72099 -0.125,1.0625 -0.04415,0.20689 -0.08838,0.39766 -0.15625,0.59375 -0.0077,0.02195 -0.0233,0.04069 -0.03125,0.0625 -0.06274,0.17374 -0.13838,0.36745 -0.21875,0.53125 -0.04158,0.0828 -0.07904,0.16995 -0.125,0.25 -0.0546,0.09721 -0.12677,0.18835 -0.1875,0.28125 -0.09411,0.14096 -0.20492,0.276 -0.3125,0.40625 -0.14317,0.17445 -0.30314,0.347 -0.46875,0.5 -0.01117,0.0102 -0.01998,0.02115 -0.03125,0.03125 -0.13839,0.12556 -0.28509,0.23444 -0.4375,0.34375 -0.10257,0.07315 -0.20432,0.15336 -0.3125,0.21875 -0.0074,0.0045 -0.02384,-0.0044 -0.03125,0 -0.23204,0.13873 -0.46255,0.27478 -0.71875,0.375 0.30153,-0.0968 0.59646,-0.20414 0.875,-0.34375 0.55709,-0.27922 1.0601,-0.66569 1.5,-1.0938 0.21997,-0.21403 0.40937,-0.44186 0.59375,-0.6875 0.18438,-0.24564 0.35541,-0.50774 0.5,-0.78125 0.14012,-0.26505 0.27614,-0.52473 0.375,-0.8125 0.01041,-0.03078 0.02133,-0.06274 0.03125,-0.09375 0.09046,-0.27808 0.1388,-0.5794 0.1875,-0.875 0.053,-0.318 0.094,-0.634 0.094,-0.969 V 12 c 0,-3.324 -2.676,-6 -6,-6 h -72 z"
         fill="url(#l)"
         id="path45"
         style="fill:url(#l)" />
      <rect
         stroke-linejoin="round"
         stroke-opacity="0.7"
         rx="4"
         ry="4"
         height="70"
         width="70"
         stroke="url(#m)"
         stroke-linecap="square"
         y="13"
         x="13"
         stroke-width="2"
         fill="none"
         id="rect45"
         style="stroke:url(#m)" />
      <path
         opacity="0.4"
         d="M 12,90 C 8.676,90 6,87.324 6,84 V 12 c 0,-0.33472 0.04135,-0.6507 0.09375,-0.96875 0.0487,-0.2956 0.09704,-0.59692 0.1875,-0.875 0.0099,-0.03 0.0209,-0.063 0.0313,-0.094 0.0989,-0.2873 0.2349,-0.547 0.375,-0.812 0.1446,-0.2735 0.3156,-0.5356 0.5,-0.7812 0.1844,-0.2457 0.3738,-0.4735 0.5937,-0.6876 0.44,-0.428 0.943,-0.8145 1.5,-1.0937 0.2786,-0.1396 0.5735,-0.2469 0.8748,-0.3437 -0.256,0.1002 -0.4865,0.2362 -0.7185,0.375 -0.00741,0.0044 -0.023866,-0.0045 -0.03125,0 -0.031933,0.0193 -0.062293,0.04251 -0.09375,0.0625 -0.1204,0.0767 -0.23102,0.16351 -0.34375,0.25 -0.10617,0.0808 -0.21328,0.16111 -0.3125,0.25 -0.1779,0.1614 -0.3474,0.3453 -0.5,0.5312 -0.1075,0.1303 -0.2183,0.2653 -0.3124,0.4063 -0.0251,0.0383 -0.0385,0.0858 -0.0626,0.125 -0.0647,0.103 -0.1302,0.2045 -0.1874,0.3124 -0.1011,0.1948 -0.2057,0.4158 -0.2813,0.625 -0.008,0.0219 -0.0236,0.0406 -0.0313,0.0626 -0.0318,0.0919 -0.0358,0.1868 -0.0624,0.2812 -0.0304,0.1066 -0.0704,0.203 -0.0938,0.3125 -0.0729,0.3415 -0.125,0.6985 -0.125,1.0625 v 72 c 0,2.7818 2.2182,5 5,5 h 72 c 2.7818,0 5,-2.2182 5,-5 v -72 c 0,-0.364 -0.052,-0.721 -0.125,-1.0625 -0.044,-0.2069 -0.088,-0.3977 -0.156,-0.5937 -0.008,-0.022 -0.024,-0.0407 -0.031,-0.0626 -0.063,-0.1737 -0.139,-0.3674 -0.219,-0.5312 -0.042,-0.0828 -0.079,-0.17 -0.125,-0.25 -0.055,-0.0972 -0.127,-0.1884 -0.188,-0.2812 -0.094,-0.141 -0.205,-0.276 -0.312,-0.4063 -0.143,-0.1745 -0.303,-0.347 -0.469,-0.5 -0.011,-0.0102 -0.02,-0.0211 -0.031,-0.0313 -0.139,-0.1255 -0.285,-0.2344 -0.438,-0.3437 -0.102,-0.0731 -0.204,-0.1534 -0.312,-0.2187 -0.0074,-0.0045 -0.02384,0.0044 -0.03125,0 -0.23204,-0.13873 -0.46255,-0.27478 -0.71875,-0.375 0.30153,0.0968 0.59646,0.20414 0.875,0.34375 0.55709,0.27922 1.0601,0.66569 1.5,1.0938 0.21997,0.21403 0.40937,0.44186 0.59375,0.6875 0.18438,0.24564 0.35541,0.50774 0.5,0.78125 0.14012,0.26505 0.27614,0.52473 0.375,0.8125 0.01041,0.03078 0.02133,0.06274 0.03125,0.09375 0.09046,0.27808 0.1388,0.5794 0.1875,0.875 0.053,0.318 0.094,0.634 0.094,0.969 v 72 c 0,3.324 -2.676,6 -6,6 h -72 z"
         fill="url(#e)"
         id="path46"
         style="fill:url(#e)" />
      <g
         fill-rule="evenodd"
         id="g49">
        <path
           opacity="0.33"
           d="m 44.844,8.0625 1.3438,3.875 h 32.812 c 2.754,0 5.0625,2.3085 5.0625,5.0625 v 62 c 2e-6,2.754 -2.3085,5.0625 -5.0625,5.0625 h -7.875 l 1.3438,3.875 h 11.531 c 2.2218,0 3.9375,-1.7157 3.9375,-3.9375 V 12 c 0,-2.2218 -1.716,-3.9375 -3.938,-3.9375 h -39.156 z"
           fill="url(#n)"
           id="path47"
           style="fill:url(#n)" />
        <path
           opacity="0.57"
           d="m 47.656,16.125 22.031,63.75 h 9.3125 c 0.5388,0 0.875,-0.3362 0.875,-0.875 V 17 c 0,-0.5388 -0.33619,-0.875 -0.875,-0.875 h -31.344 z"
           fill="url(#o)"
           id="path48"
           style="fill:url(#o)" />
        <path
           opacity="0.41"
           d="m 47.656,16.125 22.031,63.75 h 1 L 48.656,16.125 Z"
           fill="url(#p)"
           id="path49"
           style="fill:url(#p)" />
      </g>
    </g>
  </g>
</svg>
