<?xml version="1.0" encoding="UTF-8" standalone="no"?>
<svg
   height="48"
   width="48"
   version="1.1"
   id="svg32"
   sodipodi:docname="preferred_applications.svg"
   inkscape:version="1.4 (e7c3feb, 2024-10-09)"
   xmlns:inkscape="http://www.inkscape.org/namespaces/inkscape"
   xmlns:sodipodi="http://sodipodi.sourceforge.net/DTD/sodipodi-0.dtd"
   xmlns:xlink="http://www.w3.org/1999/xlink"
   xmlns="http://www.w3.org/2000/svg"
   xmlns:svg="http://www.w3.org/2000/svg">
  <sodipodi:namedview
     id="namedview32"
     pagecolor="#ffffff"
     bordercolor="#111111"
     borderopacity="1"
     inkscape:showpageshadow="0"
     inkscape:pageopacity="0"
     inkscape:pagecheckerboard="1"
     inkscape:deskcolor="#d1d1d1"
     inkscape:zoom="3.3532329"
     inkscape:cx="48.013366"
     inkscape:cy="48.162476"
     inkscape:window-width="3840"
     inkscape:window-height="2072"
     inkscape:window-x="0"
     inkscape:window-y="0"
     inkscape:window-maximized="1"
     inkscape:current-layer="svg32" />
  <defs
     id="defs14">
    <linearGradient
       id="e"
       stop-color="#ffffff">
      <stop
         offset="0"
         id="stop1" />
      <stop
         stop-opacity="0"
         offset="1"
         id="stop2" />
    </linearGradient>
    <filter
       id="l"
       height="1.3915758"
       width="1.3915758"
       color-interpolation-filters="sRGB"
       y="-0.19578789"
       x="-0.19578789">
      <feGaussianBlur
         stdDeviation="5.28"
         id="feGaussianBlur2" />
    </filter>
    <linearGradient
       id="x"
       y2="138.66"
       xlink:href="#e"
       gradientUnits="userSpaceOnUse"
       x2="48"
       y1="20.221001"
       x1="48" />
    <clipPath
       id="f">
      <rect
         rx="6"
         ry="6"
         height="84"
         width="84"
         y="6"
         x="6"
         fill="#ffffff"
         id="rect2" />
    </clipPath>
    <linearGradient
       id="y"
       y2="5.9877"
       gradientUnits="userSpaceOnUse"
       x2="48"
       y1="90"
       x1="48">
      <stop
         stop-color="#afafaf"
         offset="0"
         id="stop3" />
      <stop
         stop-color="#d8d8d8"
         offset="1"
         id="stop4" />
    </linearGradient>
    <clipPath
       id="h">
      <path
         d="m 112,6 c -3.324,0 -6,2.676 -6,6 v 23.719 c 4.1648,5.5909 10.839,9.2188 18.344,9.2188 12.613,0 22.844,-10.231 22.844,-22.844 0,-6.2749 -2.527,-11.964 -6.625,-16.094 h -7.3438 c 5.7812,3.1123 9.7188,9.2251 9.7188,16.25 0,10.182 -8.256,18.438 -18.438,18.438 -10.182,0 -18.438,-8.256 -18.438,-18.438 0,-7.0249 3.9376,-13.138 9.7188,-16.25 h -3.78 z m 34.375,0 0.46875,0.59375 0.5625,-0.40625 0.5,-0.1875 h -1.5312 z m 5.9688,0 0.40625,0.75 -1.6562,2.1562 -1.4375,1.1875 -0.625,0.28125 1.0625,2.5625 0.65625,-0.25 1.8438,-0.15625 2.7188,0.34375 0.4375,1.7188 -2.1562,1.6875 -1.6875,0.75 -0.6875,0.125 0.375,2.75 0.6875,-0.0625 1.8125,0.3125 2.5312,1.0625 v 1.7812 l -2.5312,1.0312 -1.8125,0.3125 -0.6875,-0.0625 -0.375,2.75 0.6875,0.125 1.6875,0.75 2.1562,1.6875 -0.4375,1.7188 -2.7188,0.375 -1.85,-0.186 -0.65625,-0.21875 -1.0625,2.5625 0.625,0.25 1.4375,1.1875 1.6562,2.1875 -0.87,1.531 -2.72,-0.344 -1.75,-0.656 -0.5625,-0.375 -1.6875,2.1875 0.53125,0.4375 1.0625,1.5 1.0625,2.5312 -1.25,1.2812 -2.57,-1.062 -1.5,-1.0625 -0.4375,-0.53125 -2.1875,1.6875 0.375,0.5625 0.65625,1.75 0.34375,2.7188 -1.5312,0.875 -2.1875,-1.6562 -1.1562,-1.4375 -0.3125,-0.625 -2.5312,1.0625 0.21875,0.65625 0.1875,1.8438 -0.375,2.7188 -1.7188,0.46875 -1.6562,-2.1875 -0.78125,-1.6875 -0.125,-0.6875 -2.7188,0.375 0.0625,0.65625 -0.3125,1.8438 -1.0625,2.5312 h -1.7812 l -1.0625,-2.5312 -0.29,-1.844 0.0625,-0.65625 -2.75,-0.375 -0.125,0.6875 -0.75,1.6875 -1.6875,2.1875 -1.7188,-0.46875 -0.375,-2.7188 0.15625,-1.8438 0.25,-0.65625 -2.5312,-1.0625 -0.3125,0.625 -1.1875,1.4375 -2.15,1.656 -1.5625,-0.875 0.375,-2.7188 0.625,-1.75 0.40625,-0.5625 -2.1875,-1.6875 -0.4375,0.53125 -0.22,0.157 v 40.406 c 0,3.324 2.676,6 6,6 h 25.875 l -0.25,-0.40625 1.8438,-2.4375 1.5938,-1.2812 0.65625,-0.34375 -1.1562,-2.8125 -0.71875,0.25 -2.0312,0.21875 -3,-0.40625 -0.53125,-1.9062 2.4062,-1.875 1.875,-0.8125 0.75,-0.15625 -0.4,-3.032 -0.75,0.0625 -2.0312,-0.34375 -2.8125,-1.1562 v -1.9688 l 2.8125,-1.1875 2.0312,-0.3125 0.75,0.0625 0.40625,-3.0312 -0.75,-0.15625 -1.875,-0.84375 -2.4062,-1.8438 0.53125,-1.9062 3,-0.40625 2.0312,0.1875 0.71875,0.25 1.1562,-2.8125 -0.65625,-0.3125 -1.5938,-1.3125 -1.8438,-2.4062 1,-1.7188 3,0.40625 1.9062,0.71875 0.625,0.4375 1.875,-2.4375 -0.59375,-0.5 -1.19,-1.658 -1.16,-2.812 1.41,-1.375 2.8125,1.125 1.6562,1.2188 0.5,0.5625 2.4062,-1.8438 -0.4375,-0.65625 -0.6875,-1.875 -0.40625,-3.0312 1.6875,-1 2.4375,1.8438 1.3125,1.5938 0.3125,0.6875 2.8125,-1.1875 -0.25,-0.6875 -0.1875,-2.0625 0.40625,-3 1.875,-0.5 1.875,2.4062 0.84375,1.875 0.125,0.71875 3.0312,-0.375 -0.0625,-0.78125 0.34375,-2 1.1875,-2.8125 h 1.9688 l 1.1562,2.8125 0.34375,2 -0.0625,0.78125 3.0312,0.375 0.125,-0.71875 0.84375,-1.875 1.875,-2.4062 1.875,0.5 0.4375,3 -0.21875,2.0625 -0.25,0.6875 2.8125,1.1875 0.34375,-0.6875 1.2812,-1.5938 2.4062,-1.8438 1.7188,1 -0.375,3.0312 -0.75,1.875 -0.40625,0.65625 2.4062,1.8438 0.5,-0.5625 0.84,-0.625 v -36.344 c 0,-3.324 -2.676,-6 -6,-6 h -31.66 z m -27.85,2.625 c -7.5315,0 -13.656,6.0935 -13.656,13.625 0,7.5315 6.1247,13.656 13.656,13.656 7.5315,0 13.625,-6.1247 13.625,-13.656 0,-7.5315 -6.0935,-13.625 -13.625,-13.625 z m 44.562,38.531 c -5.7458,0 -11.052,1.9079 -15.312,5.125 l 8.1562,8.7812 c 2.0761,-1.2932 4.5319,-2.0312 7.1562,-2.0312 1.3235,0 2.603,0.17696 3.8125,0.53125 l 5.5,-10.625 c -2.8824,-1.1353 -6.0278,-1.7812 -9.3125,-1.7812 z m 13.906,4.1562 -5.5,10.656 c 3.0873,2.4513 5.1058,6.2039 5.1562,10.438 l 7.37,1.344 v -15.562 c -1.8742,-2.718 -4.2632,-5.0613 -7.0312,-6.875 z m -62.656,2.1562 h 1.2188 l 0.9375,2.0938 0.0625,0.71875 -0.1875,1.2812 2.2188,0.59375 0.46875,-1.1875 0.4375,-0.59375 1.875,-1.3125 1.0625,0.625 -0.25,2.25 -0.28125,0.6875 -0.8125,0.96875 1.625,1.6562 1,-0.78125 0.6875,-0.3125 2.25,-0.21875 0.625,1.0625 -1.3438,1.8438 -0.59375,0.4375 -1.1875,0.46875 0.59375,2.2188 1.25,-0.1875 0.75,0.09375 2.0625,0.9375 v 1.25 l -2.0938,0.9375 -0.71875,0.0625 -1.25,-0.1875 -0.625,2.2188 1.1875,0.46875 0.59375,0.4375 1.3438,1.8438 -0.625,1.0625 -2.2812,-0.21875 -0.65625,-0.3125 -1,-0.78125 -1.625,1.625 0.78125,1 0.28125,0.65625 0.21875,2.2812 -1.0625,0.59375 -1.8438,-1.3125 -0.4375,-0.625 -0.46875,-1.1562 -2.2188,0.5625 0.1875,1.2812 -0.0625,0.71875 -0.96875,2.0938 h -1.2188 l -0.9375,-2.0938 -0.0625,-0.75 0.1875,-1.25 -2.2188,-0.59375 -0.5,1.1875 -0.40625,0.59375 -1.875,1.3125 -1.0625,-0.625 0.21875,-2.25 0.3125,-0.6875 0.8125,-1 -1.625,-1.625 -1,0.78125 -0.6875,0.3125 -2.2812,0.21875 -0.59375,-1.0625 1.3438,-1.875 0.59375,-0.40625 1.1875,-0.46875 -0.59375,-2.2188 -1.25,0.15625 -0.75,-0.0625 -2.0625,-0.9375 v -1.25 l 2.0625,-0.9375 0.75,-0.0625 1.25,0.1875 0.59375,-2.2188 -1.1562,-0.46875 -0.59375,-0.4375 -1.3438,-1.8438 0.625,-1.0625 2.2812,0.21875 0.65625,0.3125 1,0.78125 1.625,-1.625 -0.78125,-1 -0.32,-0.656 -0.21,-2.281 1.09,-0.625 1.8438,1.3438 0.4375,0.59375 0.4375,1.1875 2.25,-0.59375 -0.1875,-1.25 0.0625,-0.71875 0.96875,-2.0938 z m 29.625,2.3438 c -3.9326,4.4748 -6.3125,10.329 -6.3125,16.75 0,2.8687 0.49734,5.614 1.375,8.1875 l 10.906,-4.9688 c -0.25,-1.025 -0.41,-2.117 -0.41,-3.219 0,-2.9834 0.9581,-5.7295 2.5938,-7.9688 l -8.15,-8.781 z m -29.094,8.375 c -1.8132,0 -3.2812,1.4681 -3.2812,3.2812 0,1.8131 1.4681,3.2812 3.2812,3.2812 1.8132,0 3.2812,-1.4681 3.2812,-3.2812 0,-1.8131 -1.4681,-3.2812 -3.2812,-3.2812 z m 48.219,3.2812 c -2.7895,0 -5.0312,2.2418 -5.0312,5.0312 0,2.7895 2.2418,5.0625 5.0312,5.0625 2.7895,0 5.0625,-2.273 5.0625,-5.0625 0,-2.7895 -2.273,-5.0312 -5.0625,-5.0312 z m 12.62,10.032 c -1.4499,3.7088 -4.4932,6.6216 -8.2812,7.9062 l 0.62,4.594 h 9.97 c 3.324,0 6,-2.676 6,-6 v -4.969 l -8.31,-1.531 z m -23.625,2.9688 -10.906,5 c 0.96641,1.6366 2.111,3.156 3.4062,4.5312 h 18.25 l -0.53125,-3.9062 c -4.2039,-0.24279 -7.9024,-2.4075 -10.219,-5.625 z m -13.9,9.281 -0.35,0.25 h 0.53125 l -0.1875,-0.25 z"
         fill="#ffffff"
         id="path4" />
    </clipPath>
    <linearGradient
       id="z"
       y2="5.5970001"
       gradientUnits="userSpaceOnUse"
       x2="57.518002"
       gradientTransform="matrix(1.0172,0,0,1.0172,-1.1034,-1.1034)"
       y1="90"
       x1="57.518002">
      <stop
         stop-color="#969696"
         offset="0"
         id="stop5" />
      <stop
         stop-color="#d2d2d2"
         offset="1"
         id="stop6" />
    </linearGradient>
    <clipPath
       id="i">
      <path
         d="m 115.78,6 c -5.7812,3.1123 -9.7188,9.2251 -9.7188,16.25 0,10.182 8.256,18.438 18.438,18.438 10.182,0 18.438,-8.256 18.438,-18.438 0,-7.0249 -3.9376,-13.138 -9.7188,-16.25 h -17.438 z m 24.781,0 c 4.098,4.1293 6.625,9.8189 6.625,16.094 0,12.613 -10.231,22.844 -22.844,22.844 -7.5048,10e-7 -14.179,-3.6278 -18.344,-9.2188 v 7.875 l 0.21875,-0.15625 0.4375,-0.53125 2.1875,1.6875 -0.40625,0.5625 -0.625,1.75 -0.375,2.7188 1.5625,0.875 2.1562,-1.6562 1.1875,-1.4375 0.3125,-0.625 2.5312,1.0625 -0.25,0.65625 -0.15625,1.8438 0.375,2.7188 1.7188,0.46875 1.6875,-2.1875 0.75,-1.6875 0.125,-0.6875 2.75,0.375 -0.07,0.656 0.28125,1.8438 1.0625,2.5312 h 1.7812 l 1.0625,-2.5312 0.31,-1.844 -0.0625,-0.65625 2.7188,-0.375 0.125,0.6875 0.78125,1.6875 1.6562,2.1875 1.7188,-0.46875 0.375,-2.7188 -0.18,-1.844 -0.21875,-0.65625 2.5312,-1.0625 0.3125,0.625 1.1562,1.4375 2.1875,1.6562 1.5312,-0.875 -0.34375,-2.7188 -0.65625,-1.75 -0.375,-0.5625 2.1875,-1.6875 0.4375,0.53125 1.5,1.0625 2.5625,1.0625 1.25,-1.2812 -1.0625,-2.5312 -1.0625,-1.5 -0.53125,-0.4375 1.6875,-2.1875 0.5625,0.375 1.75,0.65625 2.72,0.344 0.875,-1.5312 -1.6562,-2.1875 -1.4375,-1.1875 -0.625,-0.25 1.0625,-2.5625 0.65625,0.21875 1.8438,0.1875 2.7188,-0.375 0.4375,-1.7188 -2.1562,-1.6875 -1.6875,-0.75 -0.6875,-0.125 0.375,-2.75 0.6875,0.0625 1.8125,-0.3125 2.52,-1.032 v -1.7812 l -2.5312,-1.0625 -1.8125,-0.3125 -0.6875,0.0625 -0.375,-2.75 0.6875,-0.125 1.6875,-0.75 2.1562,-1.6875 -0.4375,-1.7188 -2.7188,-0.34375 -1.8438,0.15625 -0.65625,0.25 -1.0625,-2.5625 0.625,-0.28125 1.4375,-1.1875 1.66,-2.156 -0.41,-0.75 h -4.4375 l -0.5,0.1875 -0.5625,0.40625 -0.46,-0.5938 h -5.82 z m -16.06,2.625 c 7.5315,0 13.625,6.0935 13.625,13.625 0,7.5315 -6.0935,13.656 -13.625,13.656 -7.5315,0 -13.656,-6.1247 -13.656,-13.656 0,-7.5315 6.1247,-13.625 13.656,-13.625 z m 43.594,28.219 -1.1875,2.8125 -0.34375,2 0.0625,0.78125 -3.0312,0.375 -0.125,-0.71875 -0.84375,-1.875 -1.875,-2.4062 -1.875,0.5 -0.40625,3 0.1875,2.0625 0.25,0.6875 -2.8125,1.1875 -0.3125,-0.6875 -1.3125,-1.5938 -2.4375,-1.8438 -1.6875,1 0.40625,3.0312 0.6875,1.875 0.4375,0.65625 -2.4062,1.8438 -0.5,-0.5625 -1.65,-1.218 -2.81,-1.125 -1.41,1.375 1.1562,2.8125 1.1875,1.6562 0.59375,0.5 -1.875,2.4375 -0.625,-0.4375 -1.9062,-0.71875 -3,-0.40625 -1,1.7188 1.8438,2.4062 1.5938,1.3125 0.65625,0.3125 -1.1562,2.8125 -0.71875,-0.25 -2.0312,-0.1875 -3,0.40625 -0.53125,1.9062 2.4062,1.8438 1.875,0.84375 0.75,0.15625 -0.40625,3.0312 -0.75,-0.0625 -2.0312,0.3125 -2.8125,1.1875 v 1.9688 l 2.8125,1.1562 2.0312,0.34375 0.75,-0.0625 0.40625,3.0312 -0.75,0.15625 -1.875,0.8125 -2.4062,1.875 0.53125,1.9062 3,0.40625 2.0312,-0.21875 0.71875,-0.25 1.1562,2.8125 -0.65625,0.34375 -1.5938,1.2812 -1.8438,2.4375 0.25,0.40625 h 5.9375 l 0.34375,-0.25 0.1875,0.25 h 6.2188 c -1.2952,-1.3752 -2.4398,-2.8946 -3.4062,-4.5312 l 10.906,-5 c 2.3164,3.2175 6.0148,5.3822 10.219,5.625 l 0.53,3.91 h 5.2188 l -0.625,-4.5938 c 3.788,-1.2847 6.8314,-4.1975 8.2812,-7.9062 l 8.32,1.531 v -5.281 l -7.38,-1.344 c -0.0504,-4.2336 -2.069,-7.9862 -5.1562,-10.438 l 5.5,-10.656 c 2.768,1.8137 5.157,4.157 7.0312,6.875 v -9.8438 l -0.84375,0.625 -0.5,0.5625 -2.4062,-1.8438 0.40625,-0.65625 0.75,-1.875 0.375,-3.0312 -1.7188,-1 -2.4062,1.8438 -1.2812,1.5938 -0.34375,0.6875 -2.8125,-1.1875 0.25,-0.6875 0.21875,-2.0625 -0.4375,-3 -1.875,-0.5 -1.875,2.4062 -0.84375,1.875 -0.125,0.71875 -3.0312,-0.375 0.0625,-0.78125 -0.34375,-2 -1.1562,-2.8125 h -1.9688 z m 0.96875,10.312 c 3.2847,0 6.4301,0.64595 9.3125,1.7812 l -5.5,10.625 c -1.2094,-0.35429 -2.489,-0.53125 -3.8125,-0.53125 -2.6243,0 -5.0802,0.73807 -7.1562,2.0312 l -8.15,-8.781 c 4.2606,-3.2171 9.5667,-5.125 15.312,-5.125 z m -48.75,6.3125 -0.96875,2.0938 -0.0625,0.71875 0.1875,1.25 -2.25,0.59375 -0.4375,-1.1875 -0.4375,-0.59375 -1.84,-1.344 -1.0938,0.625 0.21875,2.2812 0.3125,0.65625 0.78125,1 -1.625,1.625 -1,-0.78125 -0.65625,-0.3125 -2.2812,-0.21875 -0.625,1.0625 1.3438,1.8438 0.59375,0.4375 1.1562,0.46875 -0.59375,2.2188 -1.25,-0.1875 -0.75,0.0625 -2.0625,0.9375 v 1.25 l 2.0625,0.9375 0.75,0.0625 1.25,-0.15625 0.59375,2.2188 -1.1875,0.46875 -0.59375,0.40625 -1.3438,1.875 0.59375,1.0625 2.2812,-0.21875 0.6875,-0.3125 1,-0.78125 1.625,1.625 -0.8125,1 -0.3125,0.6875 -0.21875,2.25 1.0625,0.625 1.875,-1.3125 0.40625,-0.59375 0.5,-1.1875 2.2188,0.59375 -0.1875,1.25 0.0625,0.75 0.9375,2.0938 h 1.2188 l 0.96875,-2.0938 0.0625,-0.71875 -0.1875,-1.2812 2.2188,-0.5625 0.46875,1.1562 0.4375,0.625 1.8438,1.3125 1.0625,-0.59375 -0.21875,-2.2812 -0.28125,-0.65625 -0.78125,-1 1.625,-1.625 1,0.78125 0.65625,0.3125 2.2812,0.21875 0.625,-1.0625 -1.34,-1.844 -0.59375,-0.4375 -1.1875,-0.46875 0.625,-2.2188 1.25,0.1875 0.71875,-0.0625 2.0938,-0.9375 v -1.25 l -2.0625,-0.9375 -0.75,-0.09375 -1.25,0.1875 -0.59375,-2.2188 1.1875,-0.46875 0.59375,-0.4375 1.34,-1.844 -0.625,-1.0625 -2.25,0.21875 -0.6875,0.3125 -1,0.78125 -1.625,-1.6562 0.8125,-0.96875 0.28125,-0.6875 0.25,-2.25 -1.0625,-0.625 -1.875,1.3125 -0.4375,0.59375 -0.46875,1.1875 -2.2188,-0.59375 0.1875,-1.2812 -0.0625,-0.71875 -0.9375,-2.0938 h -1.2188 z m 29.625,2.3438 8.1562,8.7812 c -1.64,2.24 -2.6,4.986 -2.6,7.969 0,1.1014 0.15791,2.1934 0.40625,3.2188 l -10.91,4.969 c -0.87766,-2.5735 -1.375,-5.3188 -1.375,-8.1875 0,-6.4208 2.3799,-12.275 6.3125,-16.75 z m -29.094,8.375 c 1.8132,0 3.2812,1.4681 3.2812,3.2812 0,1.8131 -1.4681,3.2812 -3.2812,3.2812 -1.8132,0 -3.2812,-1.4681 -3.2812,-3.2812 0,-1.8131 1.4681,-3.2812 3.2812,-3.2812 z m 48.219,3.2812 c 2.7895,0 5.0625,2.2418 5.0625,5.0312 0,2.7895 -2.273,5.0625 -5.0625,5.0625 -2.7895,0 -5.0312,-2.273 -5.0312,-5.0625 0,-2.7895 2.2418,-5.0312 5.0312,-5.0312 z"
         fill="#ffffff"
         id="path6" />
    </clipPath>
    <filter
       id="o"
       color-interpolation-filters="sRGB"
       x="-0.020924038"
       y="-0.020928148"
       width="1.0418481"
       height="1.0423473">
      <feGaussianBlur
         stdDeviation="0.42"
         id="feGaussianBlur6" />
    </filter>
    <filter
       id="p"
       height="1.2399848"
       width="1.2399581"
       color-interpolation-filters="sRGB"
       y="-0.11999242"
       x="-0.11997907">
      <feGaussianBlur
         stdDeviation="4.2"
         id="feGaussianBlur7" />
    </filter>
    <linearGradient
       id="c"
       y2="7.0165"
       gradientUnits="userSpaceOnUse"
       x2="45.448002"
       gradientTransform="matrix(1.0059,0,0,0.99417,100,0)"
       y1="92.540001"
       x1="45.448002">
      <stop
         offset="0"
         id="stop7" />
      <stop
         stop-opacity=".58824"
         offset="1"
         id="stop8" />
    </linearGradient>
    <linearGradient
       id="w"
       stop-color="#ffffff"
       y2="74.184998"
       gradientUnits="userSpaceOnUse"
       x2="52.820999"
       y1="32.810001"
       x1="52.820999">
      <stop
         offset="0"
         id="stop9" />
      <stop
         stop-opacity="0"
         offset="1"
         id="stop10" />
    </linearGradient>
    <linearGradient
       id="v"
       y2="18.702"
       gradientUnits="userSpaceOnUse"
       x2="48.714001"
       y1="76.203003"
       x1="48.714001">
      <stop
         stop-color="#dcdcdc"
         offset="0"
         id="stop11" />
      <stop
         stop-color="#f0f0f0"
         offset="1"
         id="stop12" />
    </linearGradient>
    <linearGradient
       id="u"
       y2="4.9937"
       gradientUnits="userSpaceOnUse"
       x2="10.541"
       gradientTransform="matrix(5.5945,0.29482,-0.29472,5.5956,-8.9771,-12.186)"
       y1="15.373"
       x1="11.087">
      <stop
         stop-color="#ff9604"
         offset="0"
         id="stop13" />
      <stop
         stop-color="#fff580"
         offset="1"
         id="stop14" />
    </linearGradient>
    <radialGradient
       id="g"
       xlink:href="#e"
       gradientUnits="userSpaceOnUse"
       cy="90.171997"
       cx="48"
       gradientTransform="matrix(1.1573,0,0,0.99591,-7.551,0.19713)"
       r="42" />
    <linearGradient
       id="t"
       y2="63.893002"
       xlink:href="#e"
       gradientUnits="userSpaceOnUse"
       x2="36.356998"
       y1="6"
       x1="36.356998" />
    <linearGradient
       id="s"
       y2="6"
       xlink:href="#c"
       gradientUnits="userSpaceOnUse"
       x2="32.250999"
       gradientTransform="translate(6.3362e-7,1)"
       y1="90"
       x1="32.250999" />
    <linearGradient
       id="r"
       y2="5.9995999"
       xlink:href="#c"
       gradientUnits="userSpaceOnUse"
       x2="32.250999"
       gradientTransform="matrix(1.0238,0,0,1.0119,-1.1429,0.929)"
       y1="90"
       x1="32.250999" />
    <linearGradient
       id="q"
       y2="90.238998"
       xlink:href="#c"
       gradientUnits="userSpaceOnUse"
       x2="32.250999"
       gradientTransform="matrix(1.0238,0,0,-1.0119,-1.1429,98.071)"
       y1="6.1317"
       x1="32.250999" />
    <linearGradient
       inkscape:collect="always"
       xlink:href="#c"
       id="linearGradient32"
       gradientUnits="userSpaceOnUse"
       gradientTransform="matrix(1.0238,0,0,-1.0119,-1.1429,98.071)"
       x1="32.250999"
       y1="6.1317"
       x2="32.250999"
       y2="90.238998" />
    <linearGradient
       inkscape:collect="always"
       xlink:href="#c"
       id="linearGradient33"
       gradientUnits="userSpaceOnUse"
       gradientTransform="matrix(1.0238,0,0,-1.0119,-1.1429,98.071)"
       x1="32.250999"
       y1="6.1317"
       x2="32.250999"
       y2="90.238998" />
    <linearGradient
       inkscape:collect="always"
       xlink:href="#c"
       id="linearGradient34"
       gradientUnits="userSpaceOnUse"
       gradientTransform="matrix(1.0238,0,0,-1.0119,-1.1429,98.071)"
       x1="32.250999"
       y1="6.1317"
       x2="32.250999"
       y2="90.238998" />
  </defs>
  <g
     id="g32"
     transform="matrix(0.47273982,0,0,0.47273982,1.336395,0.89981702)">
    <g
       fill="url(#q)"
       id="g16"
       style="fill:url(#q)">
      <path
         opacity="0.08"
         d="M 12,95.031 C 6.4889,95.031 1.969,90.511 1.969,85 V 14 C 1.969,8.4889 6.4892,3.969 12,3.969 h 72 c 5.5111,0 10.031,4.5202 10.031,10.031 v 71 c 0,5.5111 -4.5202,10.031 -10.031,10.031 z"
         id="path14"
         style="fill:url(#linearGradient32)" />
      <path
         opacity="0.1"
         d="m 12,94.031 c -4.9716,0 -9.0312,-4.0596 -9.0312,-9.0312 v -71 C 2.9688,9.028 7.0284,4.9684 12,4.9684 h 72 c 4.9716,0 9.0312,4.0596 9.0312,9.0312 v 71 c 0,4.9716 -4.0596,9.0312 -9.0312,9.0312 H 12 Z"
         id="path15"
         style="fill:url(#linearGradient33)" />
      <path
         opacity="0.2"
         d="M 12,93 C 7.5909,93 4,89.409 4,85 V 14 C 4,9.5909 7.5909,6 12,6 h 72 c 4.4091,0 8,3.5909 8,8 v 71 c 0,4.4091 -3.5909,8 -8,8 z"
         id="path16"
         style="fill:url(#linearGradient34)" />
    </g>
    <rect
       opacity="0.3"
       rx="7"
       ry="7"
       height="85"
       width="86"
       y="7"
       x="5"
       fill="url(#r)"
       id="rect16"
       style="fill:url(#r)" />
    <rect
       opacity="0.45"
       rx="6"
       ry="6"
       height="84"
       width="84"
       y="7"
       x="6"
       fill="url(#s)"
       id="rect17"
       style="fill:url(#s)" />
    <rect
       rx="6"
       ry="6"
       height="84"
       width="84"
       y="6"
       x="6"
       fill="url(#y)"
       id="rect18"
       style="fill:url(#y)" />
    <path
       opacity="0.5"
       d="m 115.78,6 c -5.7812,3.1123 -9.7188,9.2251 -9.7188,16.25 0,10.182 8.256,18.438 18.438,18.438 10.182,0 18.438,-8.256 18.438,-18.438 0,-7.0249 -3.9376,-13.138 -9.7188,-16.25 h -17.438 z m 24.781,0 c 4.098,4.1293 5.936,9.8568 6.625,16.094 1.4921,13.506 7.8478,20.596 -22.844,22.844 -7.4848,0.54821 -14.179,-3.6278 -18.344,-9.2188 v 7.875 l 0.21875,-0.15625 0.4375,-0.53125 2.1875,1.6875 -0.40625,0.5625 -0.625,1.75 -0.375,2.7188 1.5625,0.875 2.1562,-1.6562 1.1875,-1.4375 0.3125,-0.625 2.5312,1.0625 -0.25,0.65625 -0.15625,1.8438 0.375,2.7188 1.7188,0.46875 1.6875,-2.1875 0.75,-1.6875 0.125,-0.6875 2.75,0.375 -0.07,0.656 0.28125,1.8438 1.0625,2.5312 h 1.7812 l 1.0625,-2.5312 0.31,-1.844 c 36.684,17.947 2.3415,-12.427 28.696,-18.688 l 0.4375,-1.7188 -2.1562,-1.6875 -1.6875,-0.75 c -1.2924,-0.25326 -0.46704,-1.7417 -0.3125,-2.875 l 0.6875,0.0625 1.8125,-0.3125 2.52,-1.032 v -1.7812 l -2.5312,-1.0625 -1.8125,-0.3125 -0.6875,0.0625 -0.375,-2.75 0.6875,-0.125 1.6875,-0.75 2.1562,-1.6875 -0.4375,-1.7188 -2.7188,-0.34375 -1.8438,0.15625 -0.65625,0.25 -1.0625,-2.5625 0.625,-0.28125 1.4375,-1.1875 1.66,-2.156 -0.41,-0.75 h -4.4375 l -0.5,0.1875 -0.5625,0.40625 -0.46,-0.5938 h -5.82 z m -16.06,2.625 c 7.5315,0 13.625,6.0935 13.625,13.625 0,7.5315 -6.0935,13.656 -13.625,13.656 -7.5315,0 -13.656,-6.1247 -13.656,-13.656 0,-7.5315 6.1247,-13.625 13.656,-13.625 z m 43.594,28.219 -1.1875,2.8125 c -21.422,25.248 -38.364,32.005 -30.776,35.063 l 2.0312,0.34375 0.75,-0.0625 0.40625,3.0312 -0.75,0.15625 -1.875,0.8125 -2.4062,1.875 0.53125,1.9062 3,0.40625 2.0312,-0.21875 0.71875,-0.25 1.1562,2.8125 -0.65625,0.34375 -1.5938,1.2812 -1.8438,2.4375 0.25,0.40625 h 5.9375 l 0.34375,-0.25 0.1875,0.25 h 6.2188 c -1.2952,-1.3752 -2.4398,-2.8946 -3.4062,-4.5312 l 10.906,-5 c 2.3164,3.2175 6.0148,5.3822 10.219,5.625 l 0.53,3.91 h 5.2188 l -0.625,-4.5938 c 3.788,-1.2847 6.8314,-4.1975 8.2812,-7.9062 l 8.32,1.531 v -5.281 l -7.38,-1.344 c -0.0504,-4.2336 -2.069,-7.9862 -5.1562,-10.438 l 5.5,-10.656 c 2.768,1.8137 5.157,4.157 7.0312,6.875 v -9.8438 l -0.84375,0.625 -0.5,0.5625 -2.4062,-1.8438 0.40625,-0.65625 0.75,-1.875 0.375,-3.0312 -1.7188,-1 -2.4062,1.8438 -1.2812,1.5938 -0.34375,0.6875 -2.8125,-1.1875 0.25,-0.6875 0.21875,-2.0625 -0.4375,-3 -1.875,-0.5 -1.875,2.4062 c -0.99771,3.4494 -3.2024,2.5611 -4.2812,-0.5625 l -1.1562,-2.8125 h -1.9688 z m 0.96875,10.312 c 3.2847,0 6.4301,0.64595 9.3125,1.7812 l -5.5,10.625 c -1.2094,-0.35429 -2.489,-0.53125 -3.8125,-0.53125 -2.6243,0 -5.0802,0.73807 -7.1562,2.0312 l -8.15,-8.781 c 4.2606,-3.2171 9.5667,-5.125 15.312,-5.125 z m -48.75,6.3125 -0.96875,2.0938 -0.0625,0.71875 0.1875,1.25 -2.25,0.59375 -0.4375,-1.1875 -0.4375,-0.59375 -1.84,-1.344 -1.0938,0.625 0.21875,2.2812 0.3125,0.65625 0.78125,1 -1.625,1.625 -1,-0.78125 -0.65625,-0.3125 -2.2812,-0.21875 -0.625,1.0625 1.3438,1.8438 0.59375,0.4375 1.1562,0.46875 -0.59375,2.2188 -1.25,-0.1875 -0.75,0.0625 -2.0625,0.9375 v 1.25 l 2.0625,0.9375 0.75,0.0625 1.25,-0.15625 0.59375,2.2188 -1.1875,0.46875 -0.59375,0.40625 -1.3438,1.875 0.59375,1.0625 2.2812,-0.21875 0.6875,-0.3125 1,-0.78125 1.625,1.625 -0.8125,1 -0.3125,0.6875 -0.21875,2.25 1.0625,0.625 1.875,-1.3125 0.40625,-0.59375 0.5,-1.1875 2.2188,0.59375 -0.1875,1.25 0.0625,0.75 0.9375,2.0938 h 1.2188 l 0.96875,-2.0938 0.0625,-0.71875 -0.1875,-1.2812 2.2188,-0.5625 0.46875,1.1562 0.4375,0.625 1.8438,1.3125 1.0625,-0.59375 -0.21875,-2.2812 -0.28125,-0.65625 -0.78125,-1 1.625,-1.625 c 0.50066,0.46873 1.0462,0.80325 1.6562,1.0938 l 2.2812,0.21875 0.625,-1.0625 c -0.76158,-1.4215 -1.799,-2.2264 -3.1212,-2.7502 0.28756,-1.6091 10.15,-6.2747 0.62505,-5.125 l -0.59375,-2.2188 1.1875,-0.46875 c 1.4191,-1.0323 1.7929,-2.4936 1.3088,-3.344 l -2.25,0.21875 -0.6875,0.3125 -1,0.78125 -1.625,-1.6562 0.8125,-0.96875 0.28125,-0.6875 0.25,-2.25 -1.0625,-0.625 -1.875,1.3125 -0.4375,0.59375 -0.46875,1.1875 -2.2188,-0.59375 0.1875,-1.2812 -0.0625,-0.71875 -0.9375,-2.0938 h -1.2188 z m 29.625,2.3438 8.1562,8.7812 c -1.64,2.24 -2.6,4.986 -2.6,7.969 0,1.1014 0.15791,2.1934 0.40625,3.2188 l -10.91,4.969 c -0.87766,-2.5735 -1.375,-5.3188 -1.375,-8.1875 0,-6.4208 2.3799,-12.275 6.3125,-16.75 z m -29.094,8.375 c 1.8132,0 3.2812,1.4681 3.2812,3.2812 0,1.8131 -1.4681,3.2812 -3.2812,3.2812 -1.8132,0 -3.2812,-1.4681 -3.2812,-3.2812 0,-1.8131 1.4681,-3.2812 3.2812,-3.2812 z m 48.219,3.2812 c 2.7895,0 5.0625,2.2418 5.0625,5.0312 0,2.7895 -2.273,5.0625 -5.0625,5.0625 -2.7895,0 -5.0312,-2.273 -5.0312,-5.0625 0,-2.7895 2.2418,-5.0312 5.0312,-5.0312 z"
       clip-path="url(#h)"
       transform="translate(-100)"
       filter="url(#p)"
       fill="#ffffff"
       id="path18" />
    <path
       d="M 15.781,6 C 10,9.1123 6.0625,15.225 6.0625,22.25 c 0,10.182 8.256,18.438 18.438,18.438 10.182,0 18.438,-8.256 18.438,-18.438 0,-7.0249 -3.9376,-13.138 -9.7188,-16.25 h -17.439 z m 24.781,0 c 4.098,4.1293 6.625,9.8189 6.625,16.094 0,12.613 -10.231,22.844 -22.844,22.844 C 16.839,44.938 10.165,41.31 6,35.719 v 7.875 l 0.21875,-0.15625 0.4375,-0.53125 2.1875,1.6875 -0.40625,0.5625 -0.625,1.75 -0.3751,2.718 1.5625,0.875 2.1562,-1.6562 1.1875,-1.4375 0.3125,-0.625 2.5312,1.0625 -0.25,0.65625 -0.15625,1.8438 0.375,2.7188 1.7188,0.46875 1.6875,-2.1875 0.75,-1.6875 0.125,-0.6875 2.75,0.375 -0.062,0.656 0.28125,1.8438 1.0625,2.5312 h 1.7812 l 1.0625,-2.5312 0.313,-1.844 -0.0625,-0.65625 c 14.919,9.582 18.488,-15.977 26.033,-17.657 l 2.7188,-0.375 0.4375,-1.7188 -2.1562,-1.6875 -1.6875,-0.75 c -1.2924,-0.25326 -0.46704,-1.7417 -0.3125,-2.875 l 0.6875,0.0625 1.8125,-0.3125 2.531,-1.031 v -1.7812 l -2.5312,-1.0625 -1.8125,-0.3125 -0.6875,0.0625 -0.375,-2.75 0.6875,-0.125 1.6875,-0.75 2.156,-1.687 -0.438,-1.719 -2.718,-0.344 -1.844,0.157 -0.65625,0.25 -1.0625,-2.5625 0.625,-0.28125 1.4375,-1.1875 1.656,-2.1567 -0.406,-0.75 h -4.4375 l -0.5,0.1875 -0.564,0.4068 -0.468,-0.5938 h -5.814 z M 24.5,8.625 c 7.5315,0 13.625,6.0935 13.625,13.625 0,7.5315 -6.0935,13.656 -13.625,13.656 -7.5315,0 -13.656,-6.1247 -13.656,-13.656 0,-7.5315 6.1247,-13.625 13.656,-13.625 z m 43.594,28.219 -1.1875,2.8125 c -11.819,-2.483 -20.41,5.798 -25.599,14.941 -5.188,9.144 -12.799,17.929 -5.182,20.123 l 2.0312,0.34375 0.75,-0.0625 0.40625,3.0312 -0.75,0.15625 -1.875,0.8125 -2.4062,1.875 0.53125,1.9062 3,0.40625 2.0312,-0.21875 0.71875,-0.25 1.1562,2.8125 -0.65625,0.34375 -1.5938,1.2812 -1.8438,2.4375 0.25,0.40625 h 5.9375 l 0.34375,-0.25 0.1875,0.25 h 6.2188 c -1.2952,-1.3752 -2.4398,-2.8946 -3.4062,-4.5312 l 10.906,-5 c 2.3164,3.2175 6.0148,5.3822 10.219,5.625 l 0.531,3.908 h 5.2188 l -0.625,-4.5938 c 3.788,-1.284 6.832,-4.197 8.282,-7.906 l 8.312,1.531 v -5.281 l -7.375,-1.344 c -0.05044,-4.2336 -2.0689,-7.9862 -5.1562,-10.438 l 5.5,-10.656 c 2.768,1.8137 5.157,4.157 7.0312,6.875 v -9.8438 l -0.84375,0.625 -0.5,0.5625 -2.4062,-1.8438 0.40625,-0.65625 0.75,-1.875 0.375,-3.0312 -1.7188,-1 -2.4062,1.8438 -1.2812,1.5938 -0.34375,0.6875 -2.8125,-1.1875 0.25,-0.6875 0.21875,-2.0625 -0.4375,-3 -1.875,-0.5 -1.875,2.4062 c -0.64322,3.1596 -3.7981,2.1279 -4.2812,-0.5625 l -1.1562,-2.8125 h -1.9688 z m 0.96875,10.312 c 3.2847,0 6.4301,0.64595 9.3125,1.7812 l -5.5,10.625 c -1.2094,-0.35429 -2.489,-0.53125 -3.8125,-0.53125 -2.6243,0 -5.0801,0.73807 -7.1562,2.0312 l -8.157,-8.781 c 4.2606,-3.2171 9.5667,-5.125 15.312,-5.125 z m -48.75,6.3125 -0.96875,2.0938 -0.0625,0.71875 0.1875,1.25 -2.25,0.59375 -0.4375,-1.1875 -0.4375,-0.59375 -1.844,-1.344 -1.0938,0.625 0.21875,2.2812 0.3125,0.65625 0.78125,1 -1.625,1.625 -1,-0.78125 -0.65625,-0.3125 -2.2812,-0.21875 -0.625,1.0625 1.3438,1.8438 0.59375,0.4375 1.1562,0.46875 -0.59375,2.2188 -1.25,-0.1875 -0.75,0.0625 -2.0625,0.9375 v 1.25 l 2.0625,0.9375 0.75,0.0625 1.25,-0.15625 0.594,2.219 -1.187,0.469 -0.5942,0.406 -1.3438,1.875 0.5938,1.063 2.2812,-0.219 0.6875,-0.3125 1,-0.78125 1.625,1.625 -0.8125,1 -0.3125,0.6875 -0.21875,2.25 1.0625,0.625 1.875,-1.3125 0.40625,-0.59375 0.5,-1.1875 2.2188,0.59375 -0.1875,1.25 0.0625,0.75 0.9375,2.0938 h 1.2188 l 0.96875,-2.0938 0.0625,-0.71875 -0.1875,-1.2812 2.2188,-0.5625 0.46875,1.1562 0.4375,0.625 1.843,1.313 1.062,-0.594 -0.218,-2.281 -0.282,-0.656 -0.78125,-1 1.625,-1.625 1,0.78125 0.65625,0.3125 2.2812,0.21875 0.625,-1.0625 c -3.7108,-4.5681 7.2142,-9.1935 -2.499,-7.8748 l -0.594,-2.219 1.187,-0.469 c 1.9639,-2.2951 2.0859,-3.4186 -0.937,-3.1248 l -0.6875,0.3125 -1,0.78125 -1.625,-1.6562 0.8125,-0.96875 0.28125,-0.6875 0.25,-2.25 -1.0625,-0.625 -1.875,1.3125 -0.4375,0.59375 -0.46875,1.1875 -2.2188,-0.59375 0.1875,-1.2812 -0.0625,-0.71875 -0.9375,-2.0938 h -1.2188 z m 29.625,2.3438 8.1562,8.7812 c -1.636,2.24 -2.594,4.986 -2.594,7.969 0,1.1014 0.15791,2.1934 0.40625,3.2188 l -10.906,4.969 c -0.87766,-2.5735 -1.375,-5.3188 -1.375,-8.1875 0,-6.4208 2.3799,-12.275 6.3125,-16.75 z m -29.094,8.375 c 1.8131,0 3.2812,1.4681 3.2812,3.2812 0,1.8131 -1.4681,3.2812 -3.2812,3.2812 -1.8131,0 -3.2812,-1.4681 -3.2812,-3.2812 0,-1.8131 1.4681,-3.2812 3.2812,-3.2812 z m 48.219,3.2812 c 2.7895,0 5.0625,2.2418 5.0625,5.0312 0,2.7895 -2.273,5.0625 -5.0625,5.0625 -2.7895,0 -5.0312,-2.273 -5.0312,-5.0625 0,-2.7895 2.2418,-5.0312 5.0312,-5.0312 z"
       fill="url(#z)"
       id="path19"
       style="fill:url(#z)" />
    <path
       opacity="0.2"
       d="m 115.78,6.5 c -5.7812,3.1123 -9.7188,9.2251 -9.7188,16.25 0,10.182 8.256,18.438 18.438,18.438 10.182,0 18.438,-8.256 18.438,-18.438 0,-7.0249 -3.9376,-13.138 -9.7188,-16.25 h -17.438 z m 24.781,0 c 4.098,4.1293 6.625,9.8189 6.625,16.094 0,12.613 -10.231,22.844 -22.844,22.844 -7.5048,10e-7 -14.179,-3.6278 -18.344,-9.2188 v 7.875 l 0.21875,-0.15625 0.4375,-0.53125 2.1875,1.6875 -0.40625,0.5625 -0.625,1.75 -0.375,2.7188 1.56,0.874 2.1562,-1.6562 1.1875,-1.4375 0.3125,-0.625 2.5312,1.0625 -0.25,0.65625 -0.15625,1.8438 0.375,2.7188 1.7188,0.46875 1.6875,-2.1875 0.75,-1.6875 0.125,-0.6875 2.75,0.375 -0.0625,0.65625 0.28125,1.8438 1.0625,2.5312 h 1.7812 l 1.0625,-2.5312 0.3125,-1.8438 -0.0625,-0.65625 2.7188,-0.375 c 17.683,12.911 -2.255,-10.836 26.035,-17.657 l 0.4375,-1.7188 -2.1562,-1.6875 -1.6875,-0.75 -0.6875,-0.125 0.375,-2.75 0.6875,0.0625 1.8125,-0.3125 2.5312,-1.0312 v -1.7812 l -2.5312,-1.0625 -1.8125,-0.3125 -0.6875,0.0625 -0.375,-2.75 0.6875,-0.125 1.6875,-0.75 2.1562,-1.6875 -0.4375,-1.7188 -2.7188,-0.34375 -1.8438,0.15625 -0.65625,0.25 -1.0625,-2.5625 0.625,-0.28125 1.4375,-1.1875 1.66,-2.156 -0.41,-0.75 h -4.4375 l -0.5,0.1875 -0.5625,0.40625 -0.46,-0.5938 h -5.8125 z m -16.06,2.625 c 7.5315,0 13.625,6.0935 13.625,13.625 0,7.5315 -6.0935,13.656 -13.625,13.656 -7.5315,0 -13.656,-6.1247 -13.656,-13.656 0,-7.5315 6.1247,-13.625 13.656,-13.625 z m 43.594,28.219 -1.1875,2.8125 c -10.543,5.6642 -27.609,22.825 -33.585,33.907 l 2.8125,1.1562 2.0312,0.34375 0.75,-0.0625 0.40625,3.0312 -0.75,0.15625 -1.875,0.8125 -2.4062,1.875 0.53125,1.9062 3,0.40625 2.0312,-0.21875 0.71875,-0.25 1.1562,2.8125 -0.65625,0.34375 -1.5938,1.2812 -1.8438,2.4375 0.25,0.40625 h 5.9375 l 0.34375,-0.25 0.1875,0.25 h 6.2188 c -1.2952,-1.3752 -2.4398,-2.8946 -3.4062,-4.5312 l 10.906,-5 c 2.3164,3.2175 6.0148,5.3822 10.219,5.625 l 0.53125,3.9062 h 5.2188 l -0.625,-4.5938 c 3.79,-1.279 6.84,-4.192 8.29,-7.901 l 8.31,1.531 v -5.281 l -7.38,-1.344 c -0.0504,-4.2336 -2.069,-7.9862 -5.1562,-10.438 l 5.5,-10.656 c 2.768,1.8137 5.157,4.157 7.0312,6.875 v -9.8438 l -0.84375,0.625 -0.5,0.5625 -2.4062,-1.8438 0.40625,-0.65625 0.75,-1.875 0.375,-3.0312 -1.7188,-1 -2.4062,1.8438 -1.2812,1.5938 -0.34375,0.6875 -2.8125,-1.1875 0.25,-0.6875 0.21875,-2.0625 -0.4375,-3 -1.875,-0.5 -1.875,2.4062 c -0.99771,3.4494 -3.2024,2.5611 -4.2812,-0.5625 l -1.1562,-2.8125 h -1.9688 z m 0.96875,10.312 c 3.2847,0 6.4301,0.64595 9.3125,1.7812 l -5.5,10.625 c -1.2094,-0.35429 -2.489,-0.53125 -3.8125,-0.53125 -2.6243,0 -5.0802,0.73807 -7.1562,2.0312 l -8.15,-8.781 c 4.2606,-3.2171 9.5667,-5.125 15.312,-5.125 z m -48.75,6.3125 -0.96875,2.0938 -0.0625,0.71875 0.1875,1.25 -2.25,0.59375 -0.4375,-1.1875 -0.4375,-0.59375 -1.84,-1.344 -1.0938,0.625 0.21875,2.2812 0.3125,0.65625 0.78125,1 -1.625,1.625 -1,-0.78125 -0.65625,-0.3125 -2.2812,-0.21875 -0.625,1.0625 1.3438,1.8438 0.59375,0.4375 1.1562,0.46875 -0.59375,2.2188 -1.25,-0.1875 -0.75,0.0625 -2.0625,0.9375 v 1.25 l 2.0625,0.9375 0.75,0.0625 1.25,-0.15625 0.59375,2.2188 -1.1875,0.46875 -0.59375,0.40625 -1.3438,1.875 0.59375,1.0625 2.2812,-0.21875 0.6875,-0.3125 1,-0.78125 1.625,1.625 -0.8125,1 -0.3125,0.6875 -0.21875,2.25 1.0625,0.625 1.875,-1.3125 0.40625,-0.59375 0.5,-1.1875 2.2188,0.59375 -0.1875,1.25 0.0625,0.75 0.9375,2.0938 h 1.2188 l 0.96875,-2.0938 0.0625,-0.71875 -0.1875,-1.2812 2.2188,-0.5625 0.46875,1.1562 0.4375,0.625 1.8438,1.3125 1.0625,-0.59375 -0.21875,-2.2812 -0.28125,-0.65625 -0.78125,-1 1.625,-1.625 1,0.78125 c 0.88514,0.51061 1.9438,0.43597 2.9374,0.53125 l 0.625,-1.0625 c -0.76158,-1.4215 -1.799,-2.2264 -3.1212,-2.7502 1.2489,-1.8692 9.6477,-6.2141 0.62505,-5.125 l -0.59375,-2.2188 1.1875,-0.46875 c 1.4191,-1.0323 1.7929,-2.4936 1.3088,-3.344 l -2.25,0.21875 -0.6875,0.3125 -1,0.78125 -1.625,-1.6562 0.8125,-0.96875 0.28125,-0.6875 0.25,-2.25 -1.0625,-0.625 -1.875,1.3125 -0.4375,0.59375 -0.46875,1.1875 -2.2188,-0.59375 0.1875,-1.2812 -0.0625,-0.71875 -0.9375,-2.0938 h -1.2188 z m 29.625,2.3438 8.1562,8.7812 c -1.64,2.24 -2.6,4.986 -2.6,7.969 0,1.1014 0.15791,2.1934 0.40625,3.2188 l -10.91,4.969 c -0.87766,-2.5735 -1.375,-5.3188 -1.375,-8.1875 0,-6.4208 2.3799,-12.275 6.3125,-16.75 z m -29.094,8.375 c 1.8132,0 3.2812,1.4681 3.2812,3.2812 0,1.8131 -1.4681,3.2812 -3.2812,3.2812 -1.8132,0 -3.2812,-1.4681 -3.2812,-3.2812 0,-1.8131 1.4681,-3.2812 3.2812,-3.2812 z m 48.219,3.2812 c 2.7895,0 5.0625,2.2418 5.0625,5.0312 0,2.7895 -2.273,5.0625 -5.0625,5.0625 -2.7895,0 -5.0312,-2.273 -5.0312,-5.0625 0,-2.7895 2.2418,-5.0312 5.0312,-5.0312 z"
       clip-path="url(#i)"
       transform="translate(-100)"
       filter="url(#o)"
       stroke="#000000"
       stroke-width="1.5"
       fill="none"
       id="path20" />
    <rect
       opacity="0.1"
       clip-path="url(#f)"
       rx="12"
       ry="12"
       height="66"
       filter="url(#l)"
       width="66"
       stroke="#ffffff"
       stroke-linecap="round"
       y="15"
       x="15"
       stroke-width="0.5"
       fill="url(#x)"
       id="rect20"
       style="fill:url(#x)" />
    <path
       opacity="0.5"
       d="M 12,6 C 8.676,6 6,8.676 6,12 v 72 c 0,0.33472 0.04135,0.6507 0.09375,0.96875 0.0487,0.2956 0.09704,0.59692 0.1875,0.875 0.00988,0.03038 0.020892,0.0636 0.03125,0.09375 0.098865,0.28777 0.23488,0.54745 0.375,0.8125 0.14459,0.27351 0.31562,0.53562 0.5,0.78125 0.18438,0.24564 0.37378,0.47347 0.59375,0.6875 0.43995,0.42806 0.94291,0.81453 1.5,1.0938 0.27854,0.13961 0.57347,0.24695 0.875,0.34375 -0.2562,-0.10022 -0.48671,-0.23627 -0.71875,-0.375 -0.00741,-0.0044 -0.023866,0.0045 -0.03125,0 -0.0319,-0.019 -0.0622,-0.042 -0.0937,-0.062 -0.1204,-0.077 -0.231,-0.164 -0.3437,-0.25 -0.1062,-0.081 -0.2133,-0.161 -0.3126,-0.25 -0.1778,-0.162 -0.3473,-0.346 -0.4999,-0.531 -0.1075,-0.131 -0.2183,-0.266 -0.3124,-0.407 -0.0251,-0.038 -0.0385,-0.086 -0.0626,-0.125 -0.0647,-0.103 -0.1302,-0.204 -0.1874,-0.312 -0.1011,-0.195 -0.2057,-0.416 -0.2813,-0.625 -0.008,-0.022 -0.0236,-0.041 -0.0313,-0.063 -0.0318,-0.092 -0.0358,-0.187 -0.0624,-0.281 -0.0304,-0.107 -0.0704,-0.203 -0.0938,-0.313 -0.0729,-0.341 -0.125,-0.698 -0.125,-1.062 v -72 c 0,-2.782 2.2182,-5 5,-5 h 72 c 2.7818,0 5,2.2182 5,5 v 72 c 0,0.3643 -0.05212,0.72099 -0.125,1.0625 -0.04415,0.20689 -0.08838,0.39766 -0.15625,0.59375 -0.0077,0.02195 -0.0233,0.04069 -0.03125,0.0625 -0.06274,0.17374 -0.13838,0.36745 -0.21875,0.53125 -0.04158,0.0828 -0.07904,0.16995 -0.125,0.25 -0.0546,0.09721 -0.12677,0.18835 -0.1875,0.28125 -0.09411,0.14096 -0.20492,0.276 -0.3125,0.40625 -0.14317,0.17445 -0.30314,0.347 -0.46875,0.5 -0.01117,0.0102 -0.01998,0.02115 -0.03125,0.03125 -0.13839,0.12556 -0.28509,0.23444 -0.4375,0.34375 -0.10257,0.07315 -0.20432,0.15336 -0.3125,0.21875 -0.0074,0.0045 -0.02384,-0.0044 -0.03125,0 -0.23204,0.13873 -0.46255,0.27478 -0.71875,0.375 0.30153,-0.0968 0.59646,-0.20414 0.875,-0.34375 0.55709,-0.27922 1.0601,-0.66569 1.5,-1.0938 0.21997,-0.21403 0.40937,-0.44186 0.59375,-0.6875 0.18438,-0.24564 0.35541,-0.50774 0.5,-0.78125 0.14012,-0.26505 0.27614,-0.52473 0.375,-0.8125 0.01041,-0.03078 0.02133,-0.06274 0.03125,-0.09375 0.09046,-0.27808 0.1388,-0.5794 0.1875,-0.875 0.053,-0.318 0.094,-0.634 0.094,-0.969 V 12 c 0,-3.324 -2.676,-6 -6,-6 h -72 z"
       fill="url(#t)"
       id="path21"
       style="fill:url(#t)" />
    <path
       opacity="0.2"
       d="M 12,90 C 8.676,90 6,87.324 6,84 V 12 c 0,-0.33472 0.04135,-0.6507 0.09375,-0.96875 0.0487,-0.2956 0.09704,-0.59692 0.1875,-0.875 0.0099,-0.03 0.0209,-0.063 0.0313,-0.094 0.0989,-0.2873 0.2349,-0.547 0.375,-0.812 0.1446,-0.2735 0.3156,-0.5356 0.5,-0.7812 0.1844,-0.2457 0.3738,-0.4735 0.5937,-0.6876 0.44,-0.428 0.943,-0.8145 1.5,-1.0937 0.2786,-0.1396 0.5735,-0.2469 0.8748,-0.3437 -0.256,0.1002 -0.4865,0.2362 -0.7185,0.375 -0.00741,0.0044 -0.023866,-0.0045 -0.03125,0 -0.031933,0.0193 -0.062293,0.04251 -0.09375,0.0625 -0.1204,0.0767 -0.23102,0.16351 -0.34375,0.25 -0.10617,0.0808 -0.21328,0.16111 -0.3125,0.25 -0.1779,0.1614 -0.3474,0.3453 -0.5,0.5312 -0.1075,0.1303 -0.2183,0.2653 -0.3124,0.4063 -0.0251,0.0383 -0.0385,0.0858 -0.0626,0.125 -0.0647,0.103 -0.1302,0.2045 -0.1874,0.3124 -0.1011,0.1948 -0.2057,0.4158 -0.2813,0.625 -0.008,0.0219 -0.0236,0.0406 -0.0313,0.0626 -0.0318,0.0919 -0.0358,0.1868 -0.0624,0.2812 -0.0304,0.1066 -0.0704,0.203 -0.0938,0.3125 -0.0729,0.3415 -0.125,0.6985 -0.125,1.0625 v 72 c 0,2.7818 2.2182,5 5,5 h 72 c 2.7818,0 5,-2.2182 5,-5 v -72 c 0,-0.364 -0.052,-0.721 -0.125,-1.0625 -0.044,-0.2069 -0.088,-0.3977 -0.156,-0.5937 -0.008,-0.022 -0.024,-0.0407 -0.031,-0.0626 -0.063,-0.1737 -0.139,-0.3674 -0.219,-0.5312 -0.042,-0.0828 -0.079,-0.17 -0.125,-0.25 -0.055,-0.0972 -0.127,-0.1884 -0.188,-0.2812 -0.094,-0.141 -0.205,-0.276 -0.312,-0.4063 -0.143,-0.1745 -0.303,-0.347 -0.469,-0.5 -0.011,-0.0102 -0.02,-0.0211 -0.031,-0.0313 -0.139,-0.1255 -0.285,-0.2344 -0.438,-0.3437 -0.102,-0.0731 -0.204,-0.1534 -0.312,-0.2187 -0.0074,-0.0045 -0.02384,0.0044 -0.03125,0 -0.23204,-0.13873 -0.46255,-0.27478 -0.71875,-0.375 0.30153,0.0968 0.59646,0.20414 0.875,0.34375 0.55709,0.27922 1.0601,0.66569 1.5,1.0938 0.21997,0.21403 0.40937,0.44186 0.59375,0.6875 0.18438,0.24564 0.35541,0.50774 0.5,0.78125 0.14012,0.26505 0.27614,0.52473 0.375,0.8125 0.01041,0.03078 0.02133,0.06274 0.03125,0.09375 0.09046,0.27808 0.1388,0.5794 0.1875,0.875 0.053,0.318 0.094,0.634 0.094,0.969 v 72 c 0,3.324 -2.676,6 -6,6 h -72 z"
       fill="url(#g)"
       id="path22"
       style="fill:url(#g)" />
    <path
       opacity="0.05"
       d="m 47.281,16.719 c 0.0045,-3.13e-4 -0.08594,0.02723 -0.125,0.03125 -0.0093,9.56e-4 -0.03231,1.49e-4 -0.03125,0 -0.0433,0.0088 -0.22616,0.03313 -0.21875,0.03125 0.0084,-0.0021 -0.25816,0.06555 -0.25,0.0625 0.0082,-0.0031 -0.22653,0.12893 -0.21875,0.125 0.0078,-0.0039 -0.22605,0.12976 -0.21875,0.125 0.0073,-0.0048 -0.19423,0.13053 -0.1875,0.125 0.0067,-0.0055 -0.19359,0.19374 -0.1875,0.1875 0.0061,-0.0062 -0.16162,0.19437 -0.15625,0.1875 0.0054,-0.0069 -0.16083,0.19492 -0.15625,0.1875 a 1.2463,1.2463 0 0 0 0,0.03125 c -2.0785,3.4725 -3.7456,7.097 -5.5625,10.469 -0.01296,0.02405 -0.04953,0.03848 -0.0625,0.0625 a 1.2463,1.2463 0 0 0 -0.031,0.03 1.2463,1.2463 0 0 0 -0.063,0.156 1.2463,1.2463 0 0 0 -0.031,0.031 l -3.5625,6.8125 c -6.3802,1.1346 -12.779,2.2528 -19.156,3.4062 0.0055,-10e-4 -0.16164,0.03264 -0.15625,0.03125 0.0054,-0.0014 -0.16153,0.03302 -0.15625,0.03125 0.0053,-0.0018 -0.16139,0.06464 -0.15625,0.0625 0.0051,-0.0021 -0.12998,0.06499 -0.125,0.0625 0.005,-0.0025 -0.16104,0.09658 -0.15625,0.09375 0.0048,-0.0028 -0.12958,0.06566 -0.125,0.0625 0.0046,-0.0032 -0.12935,0.09723 -0.125,0.09375 0.0038,-0.003 -0.1032,0.0752 -0.125,0.09375 v 0.03125 c -1.1005,1.0121 -1.236,2.4307 -0.875,3.5312 0.20431,0.6228 0.63979,0.96156 1.0312,1.3438 a 1.2463,1.2463 0 0 0 0,0.03125 1.2463,1.2463 0 0 0 0.28125,0.5 l 12.656,13.094 c -0.8849,6.361 -1.8214,12.717 -2.6562,19.125 0.001,-0.008 -2.01e-4,0.22682 0,0.21875 2.01e-4,-0.0081 6.19e-4,0.25804 0,0.25 -6.19e-4,-0.008 0.03268,0.22669 0.03125,0.21875 -0.0014,-0.0079 0.06473,0.2265 0.0625,0.21875 a 1.2463,1.2463 0 0 0 0,0.03125 c 0.25,0.822 0.759,1.442 1.532,1.845 0.65533,0.34168 1.3221,0.40637 1.8125,0.375 0.64513,-0.04126 1.0709,-0.33083 1.5312,-0.5625 0.0083,-0.0042 0.02303,0.0042 0.03125,0 a 1.2463,1.2463 0 0 0 0.625,-0.187 l 0.03125,-0.03125 0.125,-0.0625 15.969,-7.781 c 5.6382,2.7626 11.303,5.5561 17,8.2812 0.03364,0.0161 0.0601,0.04641 0.09375,0.0625 0.01578,0.0086 0.03263,0.03194 0.03125,0.03125 -0.0049,-0.0025 0.16133,0.06461 0.15625,0.0625 a 1.2463,1.2463 0 0 0 0.094,0.031 c 1.4346,0.45099 2.8295,-0.10192 3.5938,-1.2188 0.4879,-0.71297 0.54738,-1.5446 0.4375,-2.3125 a 1.2463,1.2463 0 0 0 0,-0.46875 l -2.593,-18.281 c 4.4512,-4.5644 9.0139,-9.1023 13.438,-13.781 0.02546,-0.02693 0.03705,-0.06681 0.0625,-0.09375 0.03194,-0.03136 0.06461,-0.06476 0.0625,-0.0625 -0.0048,0.0052 0.12932,-0.16181 0.125,-0.15625 -0.0043,0.0056 0.12882,-0.16217 0.125,-0.15625 -0.0038,0.0059 0.09702,-0.16249 0.09375,-0.15625 a 1.2463,1.2463 0 0 0 0.0625,-0.09375 c 0.55887,-1.27 0.2446,-2.6501 -0.625,-3.5625 -0.562,-0.591 -1.253,-0.783 -1.906,-0.876 a 1.2463,1.2463 0 0 0 -0.437,-0.156 l -18.094,-3.188 c -3.043,-5.708 -6.023,-11.498 -9.156,-17.218 4.07e-4,7.89e-4 0.0039,-0.02422 0,-0.03125 -0.01559,-0.02814 -0.0643,-0.09681 -0.0625,-0.09375 0.0023,0.0038 -0.06496,-0.09745 -0.0625,-0.09375 0.0025,0.0037 -0.06517,-0.12855 -0.0625,-0.125 0.0027,0.0036 -0.06536,-0.09715 -0.0625,-0.09375 a 1.2463,1.2463 0 0 0 -0.032,-0.031 c -0.692,-0.772 -1.576,-0.928 -2.094,-0.969 -0.19538,-0.01561 -0.3515,-0.02741 -0.46875,-0.03125 -0.11725,-0.0038 -0.33179,-0.03277 -0.09375,0 v 0.03125 c -0.03906,-0.004 -0.12947,-0.03156 -0.125,-0.03125 0.0055,3.88e-4 -0.19305,0 -0.1875,0 0.0055,0 -0.16179,3.88e-4 -0.15625,0 z"
       id="path23" />
    <path
       opacity="0.1"
       d="m 47.312,17.969 a 1.0082,1.0082 0 0 0 -0.71875,0.46875 c -2.0835,3.4808 -3.7912,7.1959 -5.6875,10.688 a 1.0082,1.0082 0 0 0 -0.03125,0 l -3.844,7.374 c -6.5801,1.1722 -13.182,2.3121 -19.75,3.5 a 1.0082,1.0082 0 0 0 -0.5,0.25 c -0.66259,0.59871 -0.75247,1.5756 -0.53125,2.25 0.19364,0.59029 0.59132,0.99525 1.0625,1.3438 l -0.031,0.031 13.094,13.531 c -0.909,6.568 -1.891,13.127 -2.75,19.719 a 1.0082,1.0082 0 0 0 0.031,0.406 c 0.1428,0.46948 0.50554,0.91608 0.90625,1.125 0.40071,0.20892 0.801,0.24147 1.1562,0.21875 0.64755,-0.04142 1.1707,-0.29986 1.625,-0.59375 v 0.03125 l 0.15625,-0.09375 16.656,-8.125 c 5.8599,2.8663 11.697,5.8058 17.594,8.625 a 1.0082,1.0082 0 0 0 0.125,0.0625 c 0.83324,0.26194 1.7691,-0.13858 2.1875,-0.75 0.37096,-0.54208 0.39695,-1.2188 0.1875,-1.875 h 0.0625 l -2.6875,-18.938 c 4.6131,-4.7406 9.3463,-9.4231 13.906,-14.25 a 1.0082,1.0082 0 0 0 0.22,-0.281 c 0.336,-0.765 0.125,-1.663 -0.375,-2.188 -0.429,-0.45 -1.061,-0.591 -1.687,-0.594 l 0.031,-0.094 -18.688,-3.281 c -3.153,-5.9 -6.214,-11.897 -9.437,-17.781 a 1.0082,1.0082 0 0 0 -0.125,-0.1875 c -0.3759,-0.4187 -0.91236,-0.53552 -1.25,-0.5625 -0.33764,-0.02698 -0.57121,-0.02385 -0.625,-0.03125 a 1.0082,1.0082 0 0 0 -0.28125,0 z"
       id="path24" />
    <path
       opacity="0.15"
       d="m 47.464,18.967 c -2.0481,3.4217 -3.7552,7.1139 -5.6706,10.641 -1.3552,2.5946 -2.7103,5.1891 -4.0655,7.7837 -6.749,1.204 -13.529,2.385 -20.259,3.6021 -0.72372,0.65394 -0.16644,1.7538 0.54358,2.1942 4.4736,4.6205 8.9471,9.2411 13.421,13.862 -0.92848,6.7315 -1.9391,13.456 -2.8166,20.192 0.29705,0.97658 1.6839,0.57968 2.2912,0.14957 5.7511,-2.8043 11.502,-5.6087 17.253,-8.413 6.0152,2.9375 12.006,5.962 18.036,8.8452 0.89511,0.28139 1.4696,-0.7186 1.1142,-1.5007 -0.911,-6.485 -1.823,-12.97 -2.734,-19.455 4.729,-4.87 9.577,-9.647 14.232,-14.574 0.378,-0.859 -0.408,-1.59 -1.267,-1.484 -6.376,-1.127 -12.753,-2.254 -19.129,-3.38 -3.241,-6.053 -6.394,-12.167 -9.69,-18.183 -0.327,-0.364 -0.831,-0.221 -1.259,-0.28 z"
       id="path25" />
    <path
       opacity="0.3"
       d="m 18,41.712 20.359,-3.5176 9.6446,-18.274 9.6401,18.28 20.358,3.5288 -14.407,14.814 2.9338,20.456 -18.538,-9.124 -18.542,9.112 2.947,-20.449 -14.396,-14.826 z"
       id="path26" />
    <path
       d="m 18,40.712 20.359,-3.5176 9.6446,-18.274 9.6401,18.28 20.358,3.5288 -14.407,14.814 2.9338,20.456 -18.538,-9.124 -18.542,9.112 2.947,-20.449 -14.396,-14.826 z"
       fill="url(#u)"
       id="path27"
       style="fill:url(#u)" />
    <g
       fill="#aa4400"
       id="g30">
      <path
         opacity="0.1"
         d="M 48,23.728 40.001,38.921 23.067,41.856 35.04,54.167 32.573,71.179 48,63.595 63.401,71.179 60.96,54.167 72.933,41.856 56.025,38.921 Z m 0.02598,4.0516 6.3631,12.129 a 1.8459,1.8456 1.5484 0 0 1.2467,0.96096 l 13.583,2.3115 -9.5577,9.6876 a 1.8459,1.8456 1.5484 0 0 -0.49347,1.4285 l 1.896,13.66 -12.207,-6.025 a 1.8459,1.8456 1.5484 0 0 -1.6103,0.05194 l -12.259,5.921 1.87,-13.453 a 1.8459,1.8456 1.5484 0 0 -0.49347,-1.4804 l -9.5317,-9.8434 13.531,-2.4933 a 1.8459,1.8456 1.5484 0 0 1.3505,-0.93499 l 6.3112,-11.921 z"
         id="path28" />
      <path
         opacity="0.2"
         d="M 48,22.299 39.519,38.408 21.566,41.519 34.26,54.571 31.644,72.607 48,64.567 64.329,72.607 61.74,54.571 74.434,41.519 56.509,38.408 Z m 0.02754,4.2956 6.7463,12.859 a 1.9571,1.9567 1.5484 0 0 1.3217,1.0188 l 14.401,2.4507 -10.133,10.271 a 1.9571,1.9567 1.5484 0 0 -0.52318,1.5145 l 2.0101,14.484 -12.942,-6.3883 a 1.9571,1.9567 1.5484 0 0 -1.7072,0.05507 l -12.997,6.2782 1.9826,-14.264 a 1.9571,1.9567 1.5484 0 0 -0.524,-1.571 l -10.106,-10.436 14.346,-2.643 a 1.9571,1.9567 1.5484 0 0 1.4319,-0.99129 l 6.6912,-12.639 z"
         id="path29" />
      <path
         opacity="0.4"
         d="M 48,20.513 38.917,37.765 19.689,41.098 33.284,55.076 30.483,74.393 48,65.782 65.488,74.393 62.716,55.076 76.311,41.098 57.113,37.765 Z m 0.02949,4.6005 7.2252,13.772 a 2.096,2.0956 1.5484 0 0 1.4156,1.0912 l 15.424,2.6247 -10.853,11 a 2.096,2.0956 1.5484 0 0 -0.56032,1.622 l 2.1528,15.512 -13.861,-6.8418 a 2.096,2.0956 1.5484 0 0 -1.8284,0.05898 l -13.92,6.724 2.123,-15.276 a 2.096,2.0956 1.5484 0 0 -0.56,-1.681 l -10.823,-11.177 15.365,-2.831 a 2.096,2.0956 1.5484 0 0 1.5335,-1.0617 l 7.1662,-13.536 z"
         id="path30" />
    </g>
    <path
       d="M 48,18.906 38.375,37.188 18,40.719 32.406,55.531 29.438,76 48,66.875 66.531,76 63.594,55.531 78,40.719 57.656,37.188 Z m 0.03125,4.875 7.6562,14.594 a 2.2211,2.2206 1.5484 0 0 1.5,1.1562 l 16.344,2.7812 -11.5,11.656 a 2.2211,2.2206 1.5484 0 0 -0.593,1.72 l 2.2812,16.438 -14.688,-7.25 a 2.2211,2.2206 1.5484 0 0 -1.9375,0.0625 l -14.75,7.125 2.25,-16.188 a 2.2211,2.2206 1.5484 0 0 -0.594,-1.781 l -11.469,-11.844 16.281,-3 a 2.2211,2.2206 1.5484 0 0 1.625,-1.125 l 7.5938,-14.344 z"
       fill="url(#v)"
       id="path31"
       style="fill:url(#v)" />
    <path
       d="M 48,18.906 38.375,37.188 18,40.719 32.406,55.531 29.438,76 48,66.875 66.531,76 63.594,55.531 78,40.719 57.656,37.188 Z m 0.03125,1.7188 8.9062,16.969 a 0.72745,0.72731 1.5484 0 0 0.1875,0.15625 0.72745,0.72731 1.5484 0 0 0.15625,0.1875 0.72745,0.72731 1.5484 0 0 0.1875,0.03125 0.72745,0.72731 1.5484 0 0 0.15625,0 l 18.938,3.2812 -13.5,13.656 a 0.72745,0.72731 1.5484 0 0 -0.1875,0.15625 0.72745,0.72731 1.5484 0 0 -0.03125,0.1875 0.72745,0.72731 1.5484 0 0 0,0.1875 0.72745,0.72731 1.5484 0 0 0,0.15625 l 2.657,19.094 -17.062,-8.438 a 0.72745,0.72731 1.5484 0 0 -0.1875,-0.03125 0.72745,0.72731 1.5484 0 0 -0.1875,0 0.72745,0.72731 1.5484 0 0 -0.15625,0 0.72745,0.72731 1.5484 0 0 -0.1875,-0.03125 l -17.25,8.4062 2.5625,-19 a 0.72745,0.72731 1.5484 0 0 0,-0.15625 0.72745,0.72731 1.5484 0 0 0.031,-0.188 0.72745,0.72731 1.5484 0 0 -0.187,-0.188 l -13.281,-13.844 18.938,-3.375 a 0.72745,0.72731 1.5484 0 0 0.15625,0 0.72745,0.72731 1.5484 0 0 0.187,-0.155 0.72745,0.72731 1.5484 0 0 0.187,-0.188 l 8.9688,-16.875 z"
       fill="url(#w)"
       id="path32"
       style="fill:url(#w)" />
  </g>
</svg>
