<?xml version="1.0" encoding="UTF-8" standalone="no"?>
<svg
   height="48"
   width="48"
   version="1.1"
   id="svg99"
   sodipodi:docname="software_sources.svg"
   inkscape:version="1.4 (e7c3feb, 2024-10-09)"
   xmlns:inkscape="http://www.inkscape.org/namespaces/inkscape"
   xmlns:sodipodi="http://sodipodi.sourceforge.net/DTD/sodipodi-0.dtd"
   xmlns:xlink="http://www.w3.org/1999/xlink"
   xmlns="http://www.w3.org/2000/svg"
   xmlns:svg="http://www.w3.org/2000/svg">
  <sodipodi:namedview
     id="namedview99"
     pagecolor="#ffffff"
     bordercolor="#111111"
     borderopacity="1"
     inkscape:showpageshadow="0"
     inkscape:pageopacity="0"
     inkscape:pagecheckerboard="1"
     inkscape:deskcolor="#d1d1d1"
     inkscape:zoom="4.7421875"
     inkscape:cx="47.973641"
     inkscape:cy="47.973641"
     inkscape:window-width="3840"
     inkscape:window-height="2072"
     inkscape:window-x="0"
     inkscape:window-y="0"
     inkscape:window-maximized="1"
     inkscape:current-layer="svg99" />
  <defs
     id="defs62">
    <linearGradient
       id="o"
       stop-color="#dac3a2">
      <stop
         offset="0"
         id="stop1" />
      <stop
         stop-opacity="0"
         offset="1"
         id="stop2" />
    </linearGradient>
    <linearGradient
       id="n"
       stop-color="#8a5b30">
      <stop
         offset="0"
         id="stop3" />
      <stop
         stop-opacity="0"
         offset="1"
         id="stop4" />
    </linearGradient>
    <linearGradient
       id="m">
      <stop
         stop-color="#b88f56"
         offset="0"
         id="stop5" />
      <stop
         stop-color="#d9bd98"
         offset="1"
         id="stop6" />
    </linearGradient>
    <linearGradient
       id="g"
       stop-color="#ffffff">
      <stop
         offset="0"
         id="stop7" />
      <stop
         stop-opacity="0"
         offset="1"
         id="stop8" />
    </linearGradient>
    <filter
       id="as"
       height="1.8525517"
       width="1.6231132"
       color-interpolation-filters="sRGB"
       y="-0.42627587"
       x="-0.31155658">
      <feGaussianBlur
         stdDeviation="6.2124381"
         id="feGaussianBlur8" />
    </filter>
    <clipPath
       id="k">
      <rect
         fill-rule="evenodd"
         height="59"
         width="118"
         y="160"
         x="5"
         fill="#ffffff"
         id="rect8" />
    </clipPath>
    <linearGradient
       id="at">
      <stop
         stop-color="#fff"
         stop-opacity="0"
         offset="0"
         id="stop9" />
      <stop
         stop-color="#fffc2b"
         stop-opacity=".23438"
         offset="0.35"
         id="stop10" />
      <stop
         stop-color="#46d15d"
         stop-opacity=".21875"
         offset=".5"
         id="stop11" />
      <stop
         stop-color="#46d1aa"
         stop-opacity="0"
         offset="0.65"
         id="stop12" />
      <stop
         stop-color="#fff"
         stop-opacity="0"
         offset="1"
         id="stop13" />
    </linearGradient>
    <linearGradient
       id="av">
      <stop
         stop-color="#fff"
         stop-opacity="0"
         offset="0"
         id="stop14" />
      <stop
         stop-color="#afcff3"
         stop-opacity="0"
         offset=".2"
         id="stop15" />
      <stop
         stop-color="#60a0e7"
         stop-opacity=".14844"
         offset="0.35"
         id="stop16" />
      <stop
         stop-color="#db8ef1"
         stop-opacity=".21094"
         offset=".5"
         id="stop17" />
      <stop
         stop-color="#fff"
         stop-opacity="0"
         offset="0.65"
         id="stop18" />
      <stop
         stop-color="#fff"
         stop-opacity="0"
         offset="1"
         id="stop19" />
    </linearGradient>
    <linearGradient
       id="au">
      <stop
         stop-color="#fff"
         stop-opacity="0"
         offset="0"
         id="stop20" />
      <stop
         stop-color="#d5d5d5"
         stop-opacity="0"
         offset="0.3"
         id="stop21" />
      <stop
         stop-color="#eb8888"
         stop-opacity=".25781"
         offset=".5"
         id="stop22" />
      <stop
         stop-color="#e28f25"
         stop-opacity="0"
         offset="0.7"
         id="stop23" />
      <stop
         stop-color="#fff"
         stop-opacity="0"
         offset="1"
         id="stop24" />
    </linearGradient>
    <linearGradient
       id="f"
       y2="7.0165"
       gradientUnits="userSpaceOnUse"
       x2="45.448002"
       gradientTransform="matrix(1.0059,0,0,0.99417,100,0)"
       y1="92.540001"
       x1="45.448002">
      <stop
         offset="0"
         id="stop25" />
      <stop
         stop-opacity=".58824"
         offset="1"
         id="stop26" />
    </linearGradient>
    <linearGradient
       id="l"
       stop-color="#3a240f">
      <stop
         offset="0"
         id="stop27" />
      <stop
         stop-opacity="0"
         offset="1"
         id="stop28" />
    </linearGradient>
    <clipPath
       id="ar">
      <path
         d="m 0,96 v 60 H 96 V 96 Z m 68,20 c 9.9411,0 18,8.0589 18,18 0,9.9411 -8.0589,18 -18,18 -9.9411,0 -18,-8.0589 -18,-18 0,-9.9411 8.0589,-18 18,-18 z"
         fill="#ffffff"
         id="path28" />
    </clipPath>
    <linearGradient
       id="aq"
       stop-color="#ffffff"
       y2="84.889999"
       gradientUnits="userSpaceOnUse"
       x2="64.320999"
       gradientTransform="translate(-2)"
       y1="55.310001"
       x1="64.320999">
      <stop
         offset="0"
         id="stop29" />
      <stop
         stop-opacity="0"
         offset="1"
         id="stop30" />
    </linearGradient>
    <linearGradient
       id="ao"
       stop-color="#ffffff"
       y2="64"
       gradientUnits="userSpaceOnUse"
       x2="123"
       gradientTransform="matrix(0.2642,0.15254,-0.15254,0.2642,60.854,47.329)"
       y1="64"
       x1="5">
      <stop
         stop-opacity="0"
         offset="0"
         id="stop31" />
      <stop
         stop-opacity="0"
         offset="0.15"
         id="stop32" />
      <stop
         offset=".5"
         id="stop33" />
      <stop
         stop-opacity="0"
         offset="0.85"
         id="stop34" />
      <stop
         stop-opacity="0"
         offset="1"
         id="stop35" />
    </linearGradient>
    <linearGradient
       id="am"
       y2="34.606998"
       gradientUnits="userSpaceOnUse"
       x2="73.015999"
       gradientTransform="matrix(0.55068,0,0,0.66151,35.018,32.929)"
       y1="89.130997"
       x1="73.015999">
      <stop
         stop-color="#b8abbd"
         offset="0"
         id="stop36" />
      <stop
         stop-color="#dddbde"
         offset="1"
         id="stop37" />
    </linearGradient>
    <linearGradient
       id="ak"
       y2="61.922001"
       gradientUnits="userSpaceOnUse"
       x2="94.568001"
       gradientTransform="matrix(0,0.070001,-0.084093,0,73.208,69.7)"
       y1="61.922001"
       x1="25.219999">
      <stop
         stop-color="#4d4d4d"
         offset="0"
         id="stop38" />
      <stop
         stop-color="#fff"
         offset="1"
         id="stop39" />
    </linearGradient>
    <radialGradient
       id="r"
       gradientUnits="userSpaceOnUse"
       cy="61.922001"
       cx="59.894001"
       gradientTransform="matrix(0,0.154,-0.15495,0,77.595,64.669)"
       r="33.714001">
      <stop
         stop-opacity="0"
         offset="0"
         id="stop40" />
      <stop
         stop-opacity="0"
         offset="0.85"
         id="stop41" />
      <stop
         offset="1"
         id="stop42" />
    </radialGradient>
    <linearGradient
       id="aj"
       stop-color="#ffffff"
       y2="61.922001"
       gradientUnits="userSpaceOnUse"
       x2="93.608002"
       gradientTransform="matrix(0,0.154,-0.185,0,79.456,64.669)"
       y1="61.922001"
       x1="26.18">
      <stop
         stop-opacity=".20312"
         offset="0"
         id="stop43" />
      <stop
         stop-opacity=".67969"
         offset="1"
         id="stop44" />
    </linearGradient>
    <linearGradient
       id="j"
       y2="64"
       xlink:href="#at"
       gradientUnits="userSpaceOnUse"
       x2="123"
       gradientTransform="matrix(-0.98504,0.17149,-0.17149,-0.98504,138.02,271.07)"
       y1="64"
       x1="5" />
    <linearGradient
       id="i"
       y2="64"
       xlink:href="#av"
       gradientUnits="userSpaceOnUse"
       x2="123"
       gradientTransform="matrix(-0.853,0.52164,-0.52164,-0.853,151.98,240.21)"
       y1="64"
       x1="5" />
    <linearGradient
       id="h"
       y2="64"
       xlink:href="#au"
       gradientUnits="userSpaceOnUse"
       x2="123"
       gradientTransform="matrix(-0.88145,-0.47197,0.47197,-0.88145,90.207,305.62)"
       y1="64"
       x1="5" />
    <linearGradient
       id="ai"
       y2="47.294998"
       gradientUnits="userSpaceOnUse"
       x2="50.499001"
       gradientTransform="matrix(1.0201,0,0,1.0201,-5.2982,5.7562)"
       y1="19.882"
       x1="50.499001">
      <stop
         stop-color="#d8cab2"
         offset="0"
         id="stop45" />
      <stop
         stop-color="#d2b98c"
         offset=".45711"
         id="stop46" />
      <stop
         stop-color="#f9f7ef"
         offset=".48590"
         id="stop47" />
      <stop
         stop-color="#fff"
         offset=".49110"
         id="stop48" />
      <stop
         stop-color="#fbf9f4"
         offset=".49180"
         id="stop49" />
      <stop
         stop-color="#efe7d0"
         offset=".4946"
         id="stop50" />
      <stop
         stop-color="#e4d6b0"
         offset=".49770"
         id="stop51" />
      <stop
         stop-color="#dac894"
         offset=".5011"
         id="stop52" />
      <stop
         stop-color="#c7a572"
         offset=".50490"
         id="stop53" />
      <stop
         stop-color="#d7c198"
         offset="1"
         id="stop54" />
    </linearGradient>
    <linearGradient
       id="ah"
       y2="6.0179"
       xlink:href="#l"
       gradientUnits="userSpaceOnUse"
       x2="46.796001"
       y1="60.306999"
       x1="46.796001" />
    <linearGradient
       id="ag"
       y2="4.6666002"
       xlink:href="#l"
       gradientUnits="userSpaceOnUse"
       x2="48.401001"
       y1="61.991001"
       x1="48.401001" />
    <radialGradient
       id="q"
       stop-color="#ffffff"
       gradientUnits="userSpaceOnUse"
       cy="90.171997"
       cx="48"
       gradientTransform="matrix(1.1573,0,0,0.99591,-7.551,0.19713)"
       r="42">
      <stop
         offset="0"
         id="stop55" />
      <stop
         stop-opacity="0"
         offset="1"
         id="stop56" />
    </radialGradient>
    <linearGradient
       id="af"
       y2="52.263"
       xlink:href="#o"
       gradientUnits="userSpaceOnUse"
       x2="8.9651003"
       gradientTransform="matrix(-1,0,0,1,96.087,0)"
       y1="44.040001"
       x1="8.9651003" />
    <linearGradient
       id="ae"
       y2="52.263"
       xlink:href="#o"
       gradientUnits="userSpaceOnUse"
       x2="8.9651003"
       y1="44.040001"
       x1="8.9651003" />
    <linearGradient
       id="ad"
       y2="6"
       xlink:href="#g"
       gradientUnits="userSpaceOnUse"
       x2="66.963997"
       y1="42"
       x1="23.143" />
    <linearGradient
       id="ac"
       y2="18.082001"
       xlink:href="#m"
       gradientUnits="userSpaceOnUse"
       x2="6.3304"
       gradientTransform="matrix(-1,0,0,1,96,0)"
       y1="29.040001"
       x1="47.227001" />
    <linearGradient
       id="ab"
       y2="18.202"
       xlink:href="#m"
       gradientUnits="userSpaceOnUse"
       x2="6.7813001"
       y1="42"
       x1="48" />
    <linearGradient
       id="aa"
       y2="9.4098997"
       gradientUnits="userSpaceOnUse"
       x2="6.5963001"
       y1="32.783001"
       x1="47.078999">
      <stop
         stop-color="#be9f6a"
         offset="0"
         id="stop57" />
      <stop
         stop-color="#e5d2b2"
         offset="1"
         id="stop58" />
    </linearGradient>
    <linearGradient
       id="z"
       y2="89.666"
       xlink:href="#g"
       gradientUnits="userSpaceOnUse"
       x2="10"
       y1="40.263"
       x1="10" />
    <linearGradient
       id="y"
       y2="89.666"
       xlink:href="#g"
       gradientUnits="userSpaceOnUse"
       x2="10"
       gradientTransform="matrix(-1,0,0,1,96,0)"
       y1="40.263"
       x1="10" />
    <linearGradient
       id="x"
       y2="87.029999"
       xlink:href="#n"
       gradientUnits="userSpaceOnUse"
       x2="8"
       gradientTransform="matrix(-1,0,0,1,96,0)"
       y1="38.126999"
       x1="8" />
    <radialGradient
       id="p"
       stop-color="#71461e"
       gradientUnits="userSpaceOnUse"
       cy="73.146004"
       cx="48"
       gradientTransform="matrix(0.86776,0,0,0.095238,6.3473,36.19)"
       r="42">
      <stop
         offset="0"
         id="stop59" />
      <stop
         stop-opacity="0"
         offset="1"
         id="stop60" />
    </radialGradient>
    <linearGradient
       id="w"
       y2="39.853001"
       gradientUnits="userSpaceOnUse"
       x2="54.187"
       y1="90"
       x1="54.187">
      <stop
         stop-color="#996c3b"
         offset="0"
         id="stop61" />
      <stop
         stop-color="#c19e6d"
         offset="1"
         id="stop62" />
    </linearGradient>
    <linearGradient
       id="v"
       y2="71.876999"
       xlink:href="#n"
       gradientUnits="userSpaceOnUse"
       x2="8"
       y1="38.126999"
       x1="8" />
    <linearGradient
       id="u"
       y2="6"
       xlink:href="#f"
       gradientUnits="userSpaceOnUse"
       x2="32.250999"
       gradientTransform="translate(0,1)"
       y1="90"
       x1="32.250999" />
    <linearGradient
       id="t"
       y2="5.9995999"
       xlink:href="#f"
       gradientUnits="userSpaceOnUse"
       x2="32.250999"
       gradientTransform="matrix(1.0238,0,0,1.0119,-1.1429,0.929)"
       y1="90"
       x1="32.250999" />
    <linearGradient
       id="s"
       y2="90.238998"
       xlink:href="#f"
       gradientUnits="userSpaceOnUse"
       x2="32.250999"
       gradientTransform="matrix(1.0238,0,0,-1.0119,-1.1429,98.071)"
       y1="6.1317"
       x1="32.250999" />
    <linearGradient
       inkscape:collect="always"
       xlink:href="#f"
       id="linearGradient99"
       gradientUnits="userSpaceOnUse"
       gradientTransform="matrix(1.0238,0,0,-1.0119,-1.1429,98.071)"
       x1="32.250999"
       y1="6.1317"
       x2="32.250999"
       y2="90.238998" />
    <linearGradient
       inkscape:collect="always"
       xlink:href="#f"
       id="linearGradient100"
       gradientUnits="userSpaceOnUse"
       gradientTransform="matrix(1.0238,0,0,-1.0119,-1.1429,98.071)"
       x1="32.250999"
       y1="6.1317"
       x2="32.250999"
       y2="90.238998" />
    <linearGradient
       inkscape:collect="always"
       xlink:href="#f"
       id="linearGradient101"
       gradientUnits="userSpaceOnUse"
       gradientTransform="matrix(1.0238,0,0,-1.0119,-1.1429,98.071)"
       x1="32.250999"
       y1="6.1317"
       x2="32.250999"
       y2="90.238998" />
    <linearGradient
       inkscape:collect="always"
       xlink:href="#at"
       id="linearGradient102"
       gradientUnits="userSpaceOnUse"
       gradientTransform="matrix(-0.98504,0.17149,-0.17149,-0.98504,138.02,271.07)"
       x1="5"
       y1="64"
       x2="123"
       y2="64" />
    <linearGradient
       inkscape:collect="always"
       xlink:href="#av"
       id="linearGradient103"
       gradientUnits="userSpaceOnUse"
       gradientTransform="matrix(-0.853,0.52164,-0.52164,-0.853,151.98,240.21)"
       x1="5"
       y1="64"
       x2="123"
       y2="64" />
    <linearGradient
       inkscape:collect="always"
       xlink:href="#au"
       id="linearGradient104"
       gradientUnits="userSpaceOnUse"
       gradientTransform="matrix(-0.88145,-0.47197,0.47197,-0.88145,90.207,305.62)"
       x1="5"
       y1="64"
       x2="123"
       y2="64" />
  </defs>
  <g
     id="g99"
     transform="matrix(0.497315,0,0,0.497315,0.35716731,-0.1348383)">
    <g
       fill="url(#s)"
       id="g64"
       style="fill:url(#s)">
      <path
         opacity="0.08"
         d="M 12,95.031 C 6.4889,95.031 1.969,90.511 1.969,85 V 14 C 1.969,8.4889 6.4892,3.969 12,3.969 h 72 c 5.5111,0 10.031,4.5202 10.031,10.031 v 71 c 0,5.5111 -4.5202,10.031 -10.031,10.031 z"
         id="path62"
         style="fill:url(#linearGradient99)" />
      <path
         opacity="0.1"
         d="m 12,94.031 c -4.9716,0 -9.0312,-4.0596 -9.0312,-9.0312 v -71 C 2.9688,9.028 7.0284,4.9684 12,4.9684 h 72 c 4.9716,0 9.0312,4.0596 9.0312,9.0312 v 71 c 0,4.9716 -4.0596,9.0312 -9.0312,9.0312 H 12 Z"
         id="path63"
         style="fill:url(#linearGradient100)" />
      <path
         opacity="0.2"
         d="M 12,93 C 7.5909,93 4,89.409 4,85 V 14 C 4,9.5909 7.5909,6 12,6 h 72 c 4.4091,0 8,3.5909 8,8 v 71 c 0,4.4091 -3.5909,8 -8,8 z"
         id="path64"
         style="fill:url(#linearGradient101)" />
    </g>
    <rect
       opacity="0.3"
       rx="7"
       ry="7"
       height="85"
       width="86"
       y="7"
       x="5"
       fill="url(#t)"
       id="rect64"
       style="fill:url(#t)" />
    <rect
       opacity="0.45"
       rx="6"
       ry="6"
       height="84"
       width="84"
       y="7"
       x="6"
       fill="url(#u)"
       id="rect65"
       style="fill:url(#u)" />
    <path
       d="m 6,36 v 48 c 0,1.7818 0.77457,3.3717 2,4.4688 V 35.9998 H 6 Z"
       fill="url(#v)"
       id="path65"
       style="fill:url(#v)" />
    <rect
       rx="6"
       ry="6"
       height="84"
       width="84"
       y="6"
       x="6"
       fill="url(#w)"
       id="rect66"
       style="fill:url(#w)" />
    <path
       d="m 6,36 v 2 c 0,3.324 2.676,6 6,6 h 72 c 3.324,0 6,-2.676 6,-6 v -2 c 0,3.324 -2.676,6 -6,6 H 12 C 8.676,42 6,39.324 6,36 Z"
       fill="url(#p)"
       id="path66"
       style="fill:url(#p)" />
    <path
       d="m 90,36 v 48 c 0,1.7818 -0.77457,3.3717 -2,4.4688 v -52.469 h 2 z"
       fill="url(#x)"
       id="path67"
       style="fill:url(#x)" />
    <rect
       rx="6"
       ry="6"
       height="24"
       width="84"
       y="18"
       x="6"
       fill="#3c2510"
       id="rect67" />
    <path
       opacity="0.3"
       d="m 88,36 v 52.469 c -0.57686,0.51642 -1.2549,0.92309 -2,1.1875 v -53.656 h 2 z"
       fill="url(#y)"
       id="path68"
       style="fill:url(#y)" />
    <path
       opacity="0.3"
       d="m 8,36 v 52.469 c 0.57686,0.51642 1.2549,0.92309 2,1.1875 V 36.0005 H 8 Z"
       fill="url(#z)"
       id="path69"
       style="fill:url(#z)" />
    <path
       d="M 12,6 C 8.7734,6 6,8.2593 6,13 v 22.656 l 42,0.035 V 6 Z"
       fill="url(#aa)"
       id="path70"
       style="fill:url(#aa)" />
    <rect
       opacity="0.3"
       transform="matrix(1,0,0,0.8556,10,8.5841)"
       rx="6"
       ry="6"
       height="34.977001"
       filter="url(#as)"
       width="47.855999"
       y="41.957001"
       x="12.753"
       fill="#dac7a8"
       id="rect70" />
    <path
       d="M 12,6 C 8.676,6 6,8.676 6,12 v 24 c 0,3.324 2.676,6 6,6 L 48,40 V 4 Z"
       fill="url(#ab)"
       id="path71"
       style="fill:url(#ab)" />
    <path
       d="m 84,6 c 3.324,0 6,2.676 6,6 v 24 c 0,3.324 -2.676,6 -6,6 L 48,40 V 4 Z"
       fill="url(#ac)"
       id="path72"
       style="fill:url(#ac)" />
    <path
       opacity="0.3"
       d="M 12,6 C 8.676,6 6,8.676 6,12 v 24 c 0,3.324 2.676,6 6,6 l 36,-2 36,2 c 3.324,0 6,-2.676 6,-6 V 12 C 90,8.676 87.324,6 84,6 L 48,4 Z m 0,2 36,-2 36,2 c 2.2458,0 4,1.7542 4,4 v 24 c 0,2.2458 -1.7542,4 -4,4 L 48,38 12,40 C 9.7542,40 8,38.246 8,36 V 12 C 8,9.7542 9.7542,8 12,8 Z"
       fill="url(#ad)"
       id="path73"
       style="fill:url(#ad)" />
    <path
       fill="url(#ae)"
       d="m 6.1872,37.285 c 2.3991,5.5558 1.894,16.036 1.894,16.036 L 9.9121,53.069 C 9.6596,44.861 10.354,41.831 14.9,41.704 7.7308,40.509 6.1872,37.285 6.1872,37.285 Z"
       fill-rule="evenodd"
       id="path74"
       style="fill:url(#ae)" />
    <path
       fill="url(#af)"
       d="m 89.9,37.285 c -2.3991,5.5558 -1.894,16.036 -1.894,16.036 L 86.175,53.069 C 86.427,44.861 85.733,41.831 81.187,41.704 88.356,40.509 89.9,37.285 89.9,37.285 Z"
       fill-rule="evenodd"
       id="path75"
       style="fill:url(#af)" />
    <path
       opacity="0.2"
       d="M 12,90 C 8.676,90 6,87.324 6,84 V 12 c 0,-0.33472 0.04135,-0.6507 0.09375,-0.96875 0.0487,-0.2956 0.09704,-0.59692 0.1875,-0.875 0.0099,-0.03 0.0209,-0.063 0.0313,-0.094 0.0989,-0.2873 0.2349,-0.547 0.375,-0.812 0.1446,-0.2735 0.3156,-0.5356 0.5,-0.7812 0.1844,-0.2457 0.3738,-0.4735 0.5937,-0.6876 0.44,-0.428 0.943,-0.8145 1.5,-1.0937 0.2786,-0.1396 0.5735,-0.2469 0.8748,-0.3437 -0.256,0.1002 -0.4865,0.2362 -0.7185,0.375 -0.00741,0.0044 -0.023866,-0.0045 -0.03125,0 -0.031933,0.0193 -0.062293,0.04251 -0.09375,0.0625 -0.1204,0.0767 -0.23102,0.16351 -0.34375,0.25 -0.10617,0.0808 -0.21328,0.16111 -0.3125,0.25 -0.1779,0.1614 -0.3474,0.3453 -0.5,0.5312 -0.1075,0.1303 -0.2183,0.2653 -0.3124,0.4063 -0.0251,0.0383 -0.0385,0.0858 -0.0626,0.125 -0.0647,0.103 -0.1302,0.2045 -0.1874,0.3124 -0.1011,0.1948 -0.2057,0.4158 -0.2813,0.625 -0.008,0.0219 -0.0236,0.0406 -0.0313,0.0626 -0.0318,0.0919 -0.0358,0.1868 -0.0624,0.2812 -0.0304,0.1066 -0.0704,0.203 -0.0938,0.3125 -0.0729,0.3415 -0.125,0.6985 -0.125,1.0625 v 72 c 0,2.7818 2.2182,5 5,5 h 72 c 2.7818,0 5,-2.2182 5,-5 v -72 c 0,-0.364 -0.052,-0.721 -0.125,-1.0625 -0.044,-0.2069 -0.088,-0.3977 -0.156,-0.5937 -0.008,-0.022 -0.024,-0.0407 -0.031,-0.0626 -0.063,-0.1737 -0.139,-0.3674 -0.219,-0.5312 -0.042,-0.0828 -0.079,-0.17 -0.125,-0.25 -0.055,-0.0972 -0.127,-0.1884 -0.188,-0.2812 -0.094,-0.141 -0.205,-0.276 -0.312,-0.4063 -0.143,-0.1745 -0.303,-0.347 -0.469,-0.5 -0.011,-0.0102 -0.02,-0.0211 -0.031,-0.0313 -0.139,-0.1255 -0.285,-0.2344 -0.438,-0.3437 -0.102,-0.0731 -0.204,-0.1534 -0.312,-0.2187 -0.0074,-0.0045 -0.02384,0.0044 -0.03125,0 -0.23204,-0.13873 -0.46255,-0.27478 -0.71875,-0.375 0.30153,0.0968 0.59646,0.20414 0.875,0.34375 0.55709,0.27922 1.0601,0.66569 1.5,1.0938 0.21997,0.21403 0.40937,0.44186 0.59375,0.6875 0.18438,0.24564 0.35541,0.50774 0.5,0.78125 0.14012,0.26505 0.27614,0.52473 0.375,0.8125 0.01041,0.03078 0.02133,0.06274 0.03125,0.09375 0.09046,0.27808 0.1388,0.5794 0.1875,0.875 0.053,0.318 0.094,0.634 0.094,0.969 v 72 c 0,3.324 -2.676,6 -6,6 h -72 z"
       fill="url(#q)"
       id="path76"
       style="fill:url(#q)" />
    <path
       opacity="0.5"
       d="M 54.12,7 H 42 L 42.06,31.062 42.195,60 47.882,59.505 53.926,58.98 53.958,53.429 54.06,31.062 Z"
       fill="#3a240f"
       id="path77" />
    <path
       opacity="0.1"
       d="m 41.688,5.125 c 0.0042,-7.112e-4 -0.19165,0.032337 -0.1875,0.03125 0.0042,-0.00109 -0.16029,0.063954 -0.15625,0.0625 0.004,-0.00145 -0.16014,0.064309 -0.15625,0.0625 0.0039,-0.00181 -0.12871,0.06465 -0.125,0.0625 0.0037,-0.00215 -0.15976,0.096223 -0.15625,0.09375 0.0035,-0.00247 -0.12827,0.12778 -0.125,0.125 0.0033,-0.00278 -0.12801,0.096809 -0.125,0.09375 0.003,-0.00306 -0.12772,0.12832 -0.125,0.125 0.0027,-0.00332 -0.09617,0.1598 -0.09375,0.15625 0.0024,-0.00355 -0.09584,0.12875 -0.09375,0.125 0.0021,-0.00375 -0.06424,0.16017 -0.0625,0.15625 0.0017,-0.00392 -0.06389,0.16031 -0.0625,0.15625 0.0014,-0.00406 -0.03227,0.16042 -0.03125,0.15625 10e-4,-0.00417 -0.06314,0.16049 -0.0625,0.15625 6.42e-4,-0.00424 -2.6e-4,0.19178 0,0.1875 2.08e-4,-0.00343 7.69e-4,0.08233 0,0.125 v 0.03125 l 0.062,24.031 0.124,28.938 a 1.0058,1.0058 0 0 0 0,0.03125 c -4.2e-5,-0.0025 1.68e-4,0.0962 0,0.09375 -1.68e-4,-0.0025 2.94e-4,0.09619 0,0.09375 -2.94e-4,-0.0024 0.03167,0.09617 0.03125,0.09375 -4.19e-4,-0.0024 5.42e-4,0.09615 0,0.09375 -5.42e-4,-0.0024 0.03191,0.09611 0.03125,0.09375 -6.64e-4,-0.0024 0.03204,0.09608 0.03125,0.09375 -7.85e-4,-0.0023 0.03215,0.06479 0.03125,0.0625 -9.03e-4,-0.0023 0.03227,0.09599 0.03125,0.09375 -0.001,-0.0022 0.06363,0.09593 0.0625,0.09375 -0.0011,-0.0022 0.03249,0.09587 0.03125,0.09375 -0.0012,-0.0021 0.06385,0.06455 0.0625,0.0625 -0.0014,-0.0021 0.0327,0.09573 0.03125,0.09375 -0.0015,-0.002 0.06405,0.0644 0.0625,0.0625 -0.0016,-0.0019 0.06415,0.09557 0.0625,0.09375 -0.0016,-0.0018 0.06424,0.06423 0.0625,0.0625 -0.0017,-0.0017 0.09558,0.06414 0.09375,0.0625 -0.0018,-0.0016 0.06441,0.06405 0.0625,0.0625 -0.0019,-0.0015 0.06448,0.06395 0.0625,0.0625 -0.002,-0.0014 0.09581,0.06384 0.09375,0.0625 -0.0021,-0.0013 0.06462,0.03249 0.0625,0.03125 -0.0021,-0.0012 0.09593,0.06363 0.09375,0.0625 -0.0022,-0.0011 0.09599,0.03226 0.09375,0.03125 -0.0022,-10e-4 0.09604,0.03215 0.09375,0.03125 -0.0023,-8.97e-4 0.09608,0.03203 0.09375,0.03125 -0.0023,-7.79e-4 0.09612,0.03191 0.09375,0.03125 -0.0024,-6.58e-4 0.09615,0.03179 0.09375,0.03125 -0.0024,-5.36e-4 0.09617,4.12e-4 0.09375,0 -0.0024,-4.12e-4 0.09619,0.03154 0.09375,0.03125 -0.0024,-2.88e-4 0.0962,1.62e-4 0.09375,0 -0.0025,-1.62e-4 0.09621,3.6e-5 0.09375,0 -0.0025,-3.6e-5 0.0962,-9e-5 0.09375,0 -0.0025,9e-5 0.0962,-2.16e-4 0.09375,0 l 5.6875,-0.5 6.0312,-0.53125 c -8.93e-4,5.1e-5 0.02019,0.0012 0.03125,0 0.04424,-0.0047 0.12854,-5.37e-4 0.125,0 -0.0044,6.71e-4 0.19184,-0.06358 0.1875,-0.0625 -0.0043,0.0011 0.16047,-0.03273 0.15625,-0.03125 -0.0042,0.0015 0.16031,-0.06437 0.15625,-0.0625 -0.0041,0.0019 0.16012,-0.09599 0.15625,-0.09375 -0.0039,0.0022 0.1599,-0.09634 0.15625,-0.09375 -0.0036,0.0026 0.12839,-0.09667 0.125,-0.09375 -0.0034,0.0029 0.1281,-0.12822 0.125,-0.125 -0.0031,0.0032 0.12779,-0.1285 0.125,-0.125 -0.0028,0.0035 0.0962,-0.15999 0.09375,-0.15625 -0.0025,0.0037 0.09584,-0.1602 0.09375,-0.15625 -0.0021,0.004 0.09546,-0.16038 0.09375,-0.15625 -0.0017,0.0041 0.06382,-0.16052 0.0625,-0.15625 -0.0013,0.0043 0.03217,-0.16063 0.03125,-0.15625 -9.16e-4,0.0044 0.03175,-0.19194 0.03125,-0.1875 -5.04e-4,0.0044 8.7e-5,-0.16072 0,-0.15625 a 1.0058,1.0058 0 0 0 0,-0.03125 l 0.031,-5.531 0.094,-22.376 0.06,-24.062 c -7.3e-5,0.00479 -4.06e-4,-0.16103 0,-0.15625 4.06e-4,0.00478 -0.03213,-0.19221 -0.03125,-0.1875 8.81e-4,0.00471 -0.0326,-0.1921 -0.03125,-0.1875 0.0013,0.0046 -0.0643,-0.19194 -0.0625,-0.1875 0.0018,0.00444 -0.09599,-0.16049 -0.09375,-0.15625 0.0022,0.00424 -0.0964,-0.16025 -0.09375,-0.15625 0.0026,0.004 -0.09678,-0.15996 -0.09375,-0.15625 0.003,0.00371 -0.12839,-0.15964 -0.125,-0.15625 0.0034,0.00339 -0.15996,-0.12803 -0.15625,-0.125 0.004,0.0029 -0.16,-0.0965 -0.156,-0.0939 0.004,0.0027 -0.16,-0.096 -0.156,-0.0937 0.004,0.0022 -0.161,-0.0956 -0.156,-0.0938 0.0044,0.0018 -0.1921,-0.063848 -0.1875,-0.0625 0.0046,0.00135 -0.19221,-0.032132 -0.1875,-0.03125 0.0047,8.815e-4 -0.19228,-0.031656 -0.1875,-0.03125 0.0048,4.063e-4 -0.16104,7.3e-5 -0.15625,0 h -12.031 c 0.0026,2.364e-4 -0.04386,0.00229 -0.09375,0 -0.03326,-0.00153 -0.06424,0 -0.0625,0 0.0043,0 -0.19183,3.94e-4 -0.1875,0 a 1.0058,1.0058 0 0 0 -0.0625,0 z"
       fill="url(#ag)"
       id="path78"
       style="fill:url(#ag)" />
    <path
       opacity="0.2"
       d="M 42,6.125 A 0.86198,0.86198 0 0 0 41.125,7 L 41.188,31.062 41.312,60 a 0.86198,0.86198 0 0 0 0.9375,0.84375 l 5.6875,-0.5 6.062,-0.532 a 0.86198,0.86198 0 0 0 0.812,-0.844 l 0.032,-5.53 0.094,-22.376 0.062,-24.062 a 0.86198,0.86198 0 0 0 -0.875,-0.875 H 41.999 Z"
       fill="url(#ah)"
       id="path79"
       style="fill:url(#ah)" />
    <path
       d="M 54.06,4.3687 48,3.9267 l -6.06,0.442 0.06,25.693 0.135,28.938 5.6868,-0.49473 6.0439,-0.52533 0.03264,-5.5512 0.10201,-22.367 0.06018,-25.694 z"
       fill="url(#ai)"
       id="path80"
       style="fill:url(#ai)" />
    <rect
       opacity="0.2"
       height="35.714001"
       width="1"
       y="4.125"
       x="47"
       fill="#8d6137"
       id="rect80" />
    <rect
       opacity="0.2"
       height="35.714001"
       width="1"
       y="4.125"
       x="48"
       fill="#ffffff"
       id="rect81" />
    <rect
       rx="1.8667001"
       ry="2"
       height="19"
       width="14"
       stroke="#825023"
       y="47.5"
       x="15.5"
       fill="none"
       id="rect82" />
    <path
       d="M 18.25,64 V 54.75 H 17 L 19.5,50 22,54.75 H 20.75 V 64 Z"
       fill="#825023"
       id="path82" />
    <path
       d="M 24.25,64 V 54.75 H 23 L 25.5,50 28,54.75 H 26.75 V 64 Z"
       fill="#825023"
       id="path83" />
    <path
       opacity="0.05"
       d="M 68,55 C 56.94,55 48,63.94 48,75 48,86.06 56.94,95 68,95 79.06,95 88,86.06 88,75 88,63.94 79.06,55 68,55 Z"
       id="path84" />
    <path
       opacity="0.15"
       d="M 68,56 C 57.484,56 49,64.484 49,75 49,85.516 57.484,94 68,94 78.516,94 87,85.516 87,75 87,64.484 78.516,56 68,56 Z"
       id="path85" />
    <rect
       opacity="0.31"
       transform="translate(0,-61)"
       clip-path="url(#ar)"
       rx="18"
       ry="18"
       height="36"
       width="36"
       y="118"
       x="50"
       id="rect85" />
    <path
       opacity="0.3"
       d="m 68,65.579 c -4.5883,0 -8.3132,3.7249 -8.3132,8.3132 0,4.5883 3.7249,8.3132 8.3132,8.3132 4.5883,0 8.3132,-3.7249 8.3132,-8.3132 0,-4.5883 -3.7249,-8.3132 -8.3132,-8.3132 z m 0,5.8726 c 1.3472,0 2.4406,1.0934 2.4406,2.4406 0,1.3472 -1.0934,2.4406 -2.4406,2.4406 -1.3472,0 -2.4406,-1.0934 -2.4406,-2.4406 0,-1.3472 1.0934,-2.4406 2.4406,-2.4406 z"
       fill-rule="evenodd"
       fill="#ffffff"
       id="path86" />
    <path
       opacity="0.5"
       d="m 68,78.926 a 5.0336,5.0337 0 1 1 0,-10.067 5.0336,5.0337 0 1 1 0,10.067 z"
       fill-rule="evenodd"
       stroke="url(#aj)"
       stroke-linecap="round"
       fill="url(#r)"
       id="path87"
       style="fill:url(#r);stroke:url(#aj)" />
    <path
       opacity="0.6"
       d="m 68.001,76.181 a 2.288,2.2881 0 1 1 0,-4.5761 2.288,2.2881 0 1 1 0,4.5761 z"
       stroke="url(#ak)"
       stroke-linecap="round"
       fill="none"
       id="path88"
       style="stroke:url(#ak)" />
    <path
       fill="url(#am)"
       d="m 68,55.893 c -9.9355,0 -17.999,8.0636 -17.999,17.999 0,9.9355 8.0636,17.999 17.999,17.999 9.9355,0 17.999,-8.0636 17.999,-17.999 0,-9.9355 -8.0636,-17.999 -17.999,-17.999 z m 0,11.593 c 3.5364,-10e-7 6.4065,2.8701 6.4065,6.4065 0,3.5364 -2.8701,6.4065 -6.4065,6.4065 -3.5364,-1e-6 -6.4065,-2.8701 -6.4065,-6.4065 0,-3.5364 2.8701,-6.4065 6.4065,-6.4065 z"
       fill-rule="evenodd"
       id="path89"
       style="fill:url(#am)" />
    <path
       opacity="0.8"
       d="m 77,58.413 c -8.6045,-4.9678 -19.619,-2.0163 -24.587,6.588 -4.9678,8.6045 -2.0164,19.62 6.588,24.588 8.6045,4.9678 19.619,2.0163 24.587,-6.5883 4.9665,-8.6045 2.0135,-19.62 -6.5895,-24.587 z m -5.7963,10.04 c 3.0626,1.7682 4.1133,5.6886 2.3451,8.7512 -1.7682,3.0626 -5.6889,4.1133 -8.7515,2.3451 -3.0626,-1.7682 -4.1133,-5.6889 -2.3451,-8.7515 1.7682,-3.0626 5.6889,-4.113 8.7515,-2.3448 z"
       fill-rule="evenodd"
       fill="url(#ao)"
       id="path90"
       style="fill:url(#ao)" />
    <path
       opacity="0.15"
       d="m 75.627,73.892 a 7.6268,7.6266 0 1 1 -15.253,0 7.6268,7.6266 0 1 1 15.253,0 z"
       stroke="#000000"
       stroke-linecap="round"
       stroke-width="4.0001"
       fill="none"
       id="path91" />
    <g
       fill-rule="evenodd"
       transform="matrix(0.18739,-0.24074,0.24074,0.18739,3.286,48.262)"
       clip-path="url(#k)"
       id="g94">
      <path
         d="m 74.118,277.12 c 32.082,-5.59 53.582,-36.16 48.002,-68.24 -5.59,-32.08 -36.157,-53.58 -68.238,-48 -32.081,5.59 -53.584,36.16 -47.999,68.24 5.585,32.08 36.154,53.58 68.235,48 z m -6.5167,-37.432 c -11.419,1.9879 -22.299,-5.6659 -24.287,-17.085 -1.9879,-11.419 5.6659,-22.299 17.084,-24.287 11.419,-1.9879 22.299,5.6659 24.287,17.085 1.9879,11.419 -5.6659,22.299 -17.085,24.287 z"
         fill="url(#j)"
         id="path92"
         style="fill:url(#linearGradient102)" />
      <path
         d="M 94.777,269.33 C 122.56,252.34 131.32,216 114.33,188.22 97.338,160.44 61.004,151.68 33.223,168.67 5.443,185.66 -3.316,222 13.673,249.78 c 16.989,27.78 53.323,36.54 81.104,19.55 z M 74.954,236.91 c -9.8879,6.0469 -22.821,2.9295 -28.867,-6.9585 -6.0469,-9.8879 -2.9295,-22.821 6.9585,-28.867 9.8879,-6.0469 22.821,-2.9295 28.867,6.9584 6.0469,9.8879 2.9295,22.821 -6.9585,28.867 z"
         fill="url(#i)"
         id="path93"
         style="fill:url(#linearGradient103)" />
      <path
         d="m 36.154,271.01 c 28.707,15.371 64.481,4.5478 79.852,-24.159 15.371,-28.7068 4.5478,-64.481 -24.159,-79.852 -28.7068,-15.371 -64.481,-4.5478 -79.852,24.159 -15.371,28.7068 -4.5478,64.481 24.159,79.852 z m 17.935,-33.495 c -10.218,-5.4711 -14.07,-18.204 -8.5991,-28.422 5.4711,-10.218 18.204,-14.07 28.422,-8.5991 10.218,5.4711 14.07,18.204 8.5991,28.422 -5.4711,10.218 -18.204,14.07 -28.422,8.5991 z"
         fill="url(#h)"
         id="path94"
         style="fill:url(#linearGradient104)" />
    </g>
    <g
       fill-rule="evenodd"
       transform="matrix(0.18739,-0.24074,-0.24074,-0.18739,108.73,130.34)"
       clip-path="url(#k)"
       id="g97">
      <path
         d="m 74.118,277.12 c 32.082,-5.59 53.582,-36.16 48.002,-68.24 -5.59,-32.08 -36.157,-53.58 -68.238,-48 -32.081,5.59 -53.584,36.16 -47.999,68.24 5.585,32.08 36.154,53.58 68.235,48 z m -6.5167,-37.432 c -11.419,1.9879 -22.299,-5.6659 -24.287,-17.085 -1.9879,-11.419 5.6659,-22.299 17.084,-24.287 11.419,-1.9879 22.299,5.6659 24.287,17.085 1.9879,11.419 -5.6659,22.299 -17.085,24.287 z"
         fill="url(#j)"
         id="path95"
         style="fill:url(#j)" />
      <path
         d="M 94.777,269.33 C 122.56,252.34 131.32,216 114.33,188.22 97.338,160.44 61.004,151.68 33.223,168.67 5.443,185.66 -3.316,222 13.673,249.78 c 16.989,27.78 53.323,36.54 81.104,19.55 z M 74.954,236.91 c -9.8879,6.0469 -22.821,2.9295 -28.867,-6.9585 -6.0469,-9.8879 -2.9295,-22.821 6.9585,-28.867 9.8879,-6.0469 22.821,-2.9295 28.867,6.9584 6.0469,9.8879 2.9295,22.821 -6.9585,28.867 z"
         fill="url(#i)"
         id="path96"
         style="fill:url(#i)" />
      <path
         d="m 36.154,271.01 c 28.707,15.371 64.481,4.5478 79.852,-24.159 15.371,-28.7068 4.5478,-64.481 -24.159,-79.852 -28.7068,-15.371 -64.481,-4.5478 -79.852,24.159 -15.371,28.7068 -4.5478,64.481 24.159,79.852 z m 17.935,-33.495 c -10.218,-5.4711 -14.07,-18.204 -8.5991,-28.422 5.4711,-10.218 18.204,-14.07 28.422,-8.5991 10.218,5.4711 14.07,18.204 8.5991,28.422 -5.4711,10.218 -18.204,14.07 -28.422,8.5991 z"
         fill="url(#h)"
         id="path97"
         style="fill:url(#h)" />
    </g>
    <path
       opacity="0.3"
       d="m 68,56 c -9.9411,0 -18,8.0589 -18,18 0,3.6617 1.0907,7.064 2.9688,9.9062 -1.247,-2.364 -1.969,-5.047 -1.969,-7.906 0,-9.3888 7.6112,-17 17,-17 9.3888,0 17,7.6112 17,17 0,2.8588 -0.72212,5.5418 -1.9688,7.9062 1.878,-2.842 2.969,-6.244 2.969,-9.906 0,-9.941 -8.059,-18 -18,-18 z"
       fill="url(#aq)"
       id="path98"
       style="fill:url(#aq)" />
    <path
       opacity="0.3"
       d="m 68,56 c -9.9411,0 -18,8.0589 -18,18 0,0.16859 0.02664,0.33252 0.03125,0.5 0.267,-9.708 8.196,-17.5 17.969,-17.5 9.7305,0 17.637,7.7253 17.969,17.375 v -1 C 85.63725,63.725 77.73125,56 68.00025,56 Z"
       fill="#ffffff"
       id="path99" />
  </g>
</svg>
